SplineFontDB: 3.0
FontName: CheyenneSans-Bold
FullName: Cheyenne Sans Bold
FamilyName: Cheyenne Sans
Weight: Bold
Copyright: 
Version: 1.000; ttfautohint (v1.8.2)
ItalicAngle: 0
UnderlinePosition: -150
UnderlineWidth: 50
Ascent: 800
Descent: 200
InvalidEm: 0
sfntRevision: 0x00010000
LayerCount: 2
Layer: 0 1 "Back" 1
Layer: 1 1 "Fore" 0
XUID: [1021 646 1163163066 9600535]
StyleMap: 0x0020
FSType: 0
OS2Version: 3
OS2_WeightWidthSlopeOnly: 0
OS2_UseTypoMetrics: 0
CreationTime: 1513572760
ModificationTime: 1543765218
PfmFamily: 81
TTFWeight: 700
TTFWidth: 5
LineGap: 0
VLineGap: 0
Panose: 0 0 8 0 0 0 0 0 0 0
OS2TypoAscent: 743
OS2TypoAOffset: 0
OS2TypoDescent: -161
OS2TypoDOffset: 0
OS2TypoLinegap: 0
OS2WinAscent: 822
OS2WinAOffset: 0
OS2WinDescent: 178
OS2WinDOffset: 0
HheadAscent: 822
HheadAOffset: 0
HheadDescent: -178
HheadDOffset: 0
OS2SubXSize: 650
OS2SubYSize: 600
OS2SubXOff: 0
OS2SubYOff: 75
OS2SupXSize: 650
OS2SupYSize: 600
OS2SupXOff: 0
OS2SupYOff: 350
OS2StrikeYSize: 50
OS2StrikeYPos: 310
OS2CapHeight: 723
OS2XHeight: 517
OS2Vendor: 'IMPA'
OS2CodePages: 20000193.00000000
OS2UnicodeRanges: 00000007.00000000.00000000.00000000
Lookup: 1 0 0 "'aalt' Access All Alternates in Latin lookup 0" { "'aalt' Access All Alternates in Latin lookup 0 subtable"  } ['aalt' ('DFLT' <'dflt' > 'latn' <'AZE ' 'CAT ' 'CRT ' 'KAZ ' 'MOL ' 'ROM ' 'TAT ' 'TRK ' 'dflt' > ) ]
Lookup: 3 0 0 "'aalt' Access All Alternates in Latin lookup 1" { "'aalt' Access All Alternates in Latin lookup 1 subtable"  } ['aalt' ('DFLT' <'dflt' > 'latn' <'AZE ' 'CAT ' 'CRT ' 'KAZ ' 'MOL ' 'ROM ' 'TAT ' 'TRK ' 'dflt' > ) ]
Lookup: 6 0 0 "'ccmp' Glyph Composition/Decomposition in Latin lookup 2" { "'ccmp' Glyph Composition/Decomposition in Latin lookup 2 contextual 0"  "'ccmp' Glyph Composition/Decomposition in Latin lookup 2 contextual 1"  } ['ccmp' ('DFLT' <'dflt' > 'latn' <'AZE ' 'CAT ' 'CRT ' 'KAZ ' 'MOL ' 'ROM ' 'TAT ' 'TRK ' 'dflt' > ) ]

StartChar: .notdef
Encoding: 65536 -1 0
Width: 650
Flags: W
LayerCount: 2
Fore
SplineSet
568 820.5 m 128,-1,1
 573 815 573 815 573 805 c 2,2,-1
 573 -133 l 2,3,4
 573 -148 573 -148 565 -154.5 c 128,-1,5
 557 -161 557 -161 540 -161 c 2,6,-1
 104 -161 l 2,7,8
 89 -161 89 -161 83 -155.5 c 128,-1,9
 77 -150 77 -150 77 -137 c 2,10,-1
 77 803 l 2,11,12
 77 814 77 814 82 820 c 128,-1,13
 87 826 87 826 96 826 c 2,14,-1
 555 826 l 2,15,0
 563 826 563 826 568 820.5 c 128,-1,1
518 772.5 m 128,-1,17
 514 777 514 777 507 777 c 2,18,-1
 164 777 l 1,19,-1
 522 -57 l 1,20,-1
 522 760 l 2,21,16
 522 768 522 768 518 772.5 c 128,-1,17
133 -107 m 128,-1,23
 138 -112 138 -112 150 -112 c 2,24,-1
 486 -112 l 1,25,-1
 128 716 l 1,26,-1
 128 -92 l 2,27,22
 128 -102 128 -102 133 -107 c 128,-1,23
EndSplineSet
EndChar

StartChar: exclam
Encoding: 33 33 4
Width: 278
GlyphClass: 2
Flags: W
LayerCount: 2
Fore
SplineSet
183 227 m 1,0,-1
 88 227 l 1,1,-1
 46 723 l 1,2,-1
 222 723 l 1,3,-1
 183 227 l 1,0,-1
216 0 m 1,4,-1
 52 0 l 1,5,-1
 52 160 l 1,6,-1
 216 160 l 1,7,-1
 216 0 l 1,4,-1
EndSplineSet
EndChar

StartChar: quotedbl
Encoding: 34 34 5
Width: 480
GlyphClass: 2
Flags: W
LayerCount: 2
Fore
SplineSet
401 439 m 1,0,-1
 326 439 l 1,1,-1
 287 723 l 1,2,-1
 440 723 l 1,3,-1
 401 439 l 1,0,-1
179 439 m 1,4,-1
 104 439 l 1,5,-1
 65 723 l 1,6,-1
 218 723 l 1,7,-1
 179 439 l 1,4,-1
EndSplineSet
EndChar

StartChar: numbersign
Encoding: 35 35 6
Width: 609
GlyphClass: 2
Flags: W
LayerCount: 2
Fore
SplineSet
460 429 m 1,0,-1
 441 302 l 1,1,-1
 547 302 l 1,2,-1
 547 224 l 1,3,-1
 429 224 l 1,4,-1
 396 -2 l 1,5,-1
 317 8 l 1,6,-1
 349 224 l 1,7,-1
 216 224 l 1,8,-1
 183 -2 l 1,9,-1
 105 8 l 1,10,-1
 137 224 l 1,11,-1
 23 224 l 1,12,-1
 23 302 l 1,13,-1
 148 302 l 1,14,-1
 167 429 l 1,15,-1
 55 429 l 1,16,-1
 55 507 l 1,17,-1
 179 507 l 1,18,-1
 211 725 l 1,19,-1
 289 717 l 1,20,-1
 258 507 l 1,21,-1
 391 507 l 1,22,-1
 424 725 l 1,23,-1
 502 717 l 1,24,-1
 471 507 l 1,25,-1
 579 507 l 1,26,-1
 579 429 l 1,27,-1
 460 429 l 1,0,-1
380 429 m 1,28,-1
 247 429 l 1,29,-1
 228 302 l 1,30,-1
 361 302 l 1,31,-1
 380 429 l 1,28,-1
EndSplineSet
EndChar

StartChar: dollar
Encoding: 36 36 7
Width: 656
GlyphClass: 2
Flags: W
LayerCount: 2
Fore
SplineSet
551 64 m 128,-1,1
 492 6 492 6 393 -4 c 0,2,3
 382 -5 382 -5 379 -8 c 128,-1,4
 376 -11 376 -11 376 -20 c 2,5,-1
 376 -77 l 1,6,-1
 278 -77 l 1,7,-1
 278 -5 l 1,8,9
 197 0 197 0 136 26.5 c 128,-1,10
 75 53 75 53 21 103 c 1,11,-1
 108 195 l 1,12,13
 144 157 144 157 185.5 133.5 c 128,-1,14
 227 110 227 110 279 103 c 1,15,-1
 280 297 l 1,16,17
 157 323 157 323 103.5 378 c 128,-1,18
 50 433 50 433 50 514 c 0,19,20
 50 592 50 592 105.5 647 c 128,-1,21
 161 702 161 702 261 721 c 0,22,23
 268 722 268 722 274 726 c 128,-1,24
 280 730 280 730 280 737 c 2,25,-1
 280 787 l 1,26,-1
 376 787 l 1,27,-1
 376 725 l 1,28,29
 494 697 494 697 572 638 c 1,30,-1
 496 543 l 1,31,32
 478 564 478 564 449 581.5 c 128,-1,33
 420 599 420 599 387 609 c 2,34,-1
 383 610 l 2,35,36
 379 610 379 610 377 607.5 c 128,-1,37
 375 605 375 605 375 602 c 2,38,-1
 375 427 l 1,39,-1
 442 410 l 1,40,41
 519 386 519 386 564.5 333.5 c 128,-1,42
 610 281 610 281 610 209 c 0,43,0
 610 122 610 122 551 64 c 128,-1,1
281 615 m 1,44,45
 260 615 260 615 235.5 605 c 128,-1,46
 211 595 211 595 194 576 c 128,-1,47
 177 557 177 557 177 531 c 0,48,49
 177 492 177 492 205.5 471.5 c 128,-1,50
 234 451 234 451 280 441 c 1,51,-1
 281 615 l 1,44,45
453.5 131 m 128,-1,53
 482 154 482 154 482 187 c 0,54,55
 482 221 482 221 456.5 244 c 128,-1,56
 431 267 431 267 375 281 c 1,57,-1
 375 103 l 1,58,52
 425 108 425 108 453.5 131 c 128,-1,53
EndSplineSet
EndChar

StartChar: percent
Encoding: 37 37 8
Width: 938
GlyphClass: 2
Flags: W
LayerCount: 2
Fore
SplineSet
320.5 706.5 m 128,-1,1
 362 679 362 679 386 631.5 c 128,-1,2
 410 584 410 584 410 527 c 0,3,4
 410 471 410 471 386.5 424.5 c 128,-1,5
 363 378 363 378 321.5 351 c 128,-1,6
 280 324 280 324 228 324 c 128,-1,7
 176 324 176 324 134 351 c 128,-1,8
 92 378 92 378 68 424.5 c 128,-1,9
 44 471 44 471 44 527 c 0,10,11
 44 584 44 584 68.5 631.5 c 128,-1,12
 93 679 93 679 135 706.5 c 128,-1,13
 177 734 177 734 228 734 c 128,-1,0
 279 734 279 734 320.5 706.5 c 128,-1,1
281 -4 m 1,14,-1
 194 -3 l 1,15,-1
 681 731 l 1,16,-1
 767 731 l 1,17,-1
 281 -4 l 1,14,-1
300 527 m 0,18,19
 300 590 300 590 281.5 624 c 128,-1,20
 263 658 263 658 227 658 c 128,-1,21
 191 658 191 658 173 623.5 c 128,-1,22
 155 589 155 589 155 527 c 0,23,24
 155 466 155 466 172.5 433 c 128,-1,25
 190 400 190 400 227 400 c 0,26,27
 300 400 300 400 300 527 c 0,18,19
797 373 m 128,-1,29
 839 345 839 345 863 297.5 c 128,-1,30
 887 250 887 250 887 194 c 128,-1,31
 887 138 887 138 863.5 91 c 128,-1,32
 840 44 840 44 798 17 c 128,-1,33
 756 -10 756 -10 704 -10 c 128,-1,34
 652 -10 652 -10 610 17 c 128,-1,35
 568 44 568 44 544 91 c 128,-1,36
 520 138 520 138 520 194 c 128,-1,37
 520 250 520 250 544.5 297.5 c 128,-1,38
 569 345 569 345 611 373 c 128,-1,39
 653 401 653 401 704 401 c 128,-1,28
 755 401 755 401 797 373 c 128,-1,29
758 100 m 128,-1,41
 776 133 776 133 776 193 c 0,42,43
 776 255 776 255 757.5 289.5 c 128,-1,44
 739 324 739 324 703 324 c 0,45,46
 668 324 668 324 650 289.5 c 128,-1,47
 632 255 632 255 632 193 c 0,48,49
 632 133 632 133 649.5 100 c 128,-1,50
 667 67 667 67 703 67 c 0,51,40
 740 67 740 67 758 100 c 128,-1,41
EndSplineSet
EndChar

StartChar: ampersand
Encoding: 38 38 9
Width: 786
GlyphClass: 2
Flags: W
LayerCount: 2
Fore
SplineSet
470 714 m 128,-1,1
 521 694 521 694 550.5 658.5 c 128,-1,2
 580 623 580 623 580 577 c 0,3,4
 580 528 580 528 540 479 c 128,-1,5
 500 430 500 430 421 384 c 1,6,-1
 530 256 l 1,7,8
 570 348 570 348 578 413 c 1,9,-1
 732 413 l 1,10,11
 719 369 719 369 696 326.5 c 128,-1,12
 673 284 673 284 635 224 c 2,13,-1
 601 169 l 1,14,-1
 746 0 l 1,15,-1
 573 0 l 1,16,-1
 512 70 l 1,17,18
 457 31 457 31 397 13 c 128,-1,19
 337 -5 337 -5 279 -5 c 0,20,21
 162 -5 162 -5 103 45.5 c 128,-1,22
 44 96 44 96 44 181 c 0,23,24
 44 253 44 253 87.5 303.5 c 128,-1,25
 131 354 131 354 227 404 c 1,26,27
 180 457 180 457 160.5 489 c 128,-1,28
 141 521 141 521 141 564 c 0,29,30
 141 612 141 612 168.5 651 c 128,-1,31
 196 690 196 690 245 712 c 128,-1,32
 294 734 294 734 357 734 c 0,33,0
 419 734 419 734 470 714 c 128,-1,1
310.5 623.5 m 128,-1,35
 290 604 290 604 290 575 c 0,36,37
 290 533 290 533 338 481 c 2,38,-1
 358 459 l 1,39,40
 408 491 408 491 428 516.5 c 128,-1,41
 448 542 448 542 448 570 c 0,42,43
 448 606 448 606 425 624.5 c 128,-1,44
 402 643 402 643 367 643 c 0,45,34
 331 643 331 643 310.5 623.5 c 128,-1,35
236.5 267.5 m 128,-1,47
 212 238 212 238 212 203 c 0,48,49
 212 161 212 161 243.5 135.5 c 128,-1,50
 275 110 275 110 316 110 c 0,51,52
 346 110 346 110 380.5 122.5 c 128,-1,53
 415 135 415 135 439 158 c 1,54,-1
 301 319 l 1,55,46
 261 297 261 297 236.5 267.5 c 128,-1,47
EndSplineSet
EndChar

StartChar: quotesingle
Encoding: 39 39 10
Width: 255
GlyphClass: 2
Flags: W
LayerCount: 2
Fore
SplineSet
165 439 m 1,0,-1
 90 439 l 1,1,-1
 51 723 l 1,2,-1
 204 723 l 1,3,-1
 165 439 l 1,0,-1
EndSplineSet
EndChar

StartChar: parenleft
Encoding: 40 40 11
Width: 331
GlyphClass: 2
Flags: W
LayerCount: 2
Fore
SplineSet
219.5 507 m 128,-1,1
 189 392 189 392 189 277 c 0,2,3
 189 166 189 166 216.5 61 c 128,-1,4
 244 -44 244 -44 301 -161 c 1,5,-1
 195 -161 l 1,6,7
 125 -43 125 -43 90 57.5 c 128,-1,8
 55 158 55 158 55 278 c 128,-1,9
 55 398 55 398 93 512 c 128,-1,10
 131 626 131 626 197 723 c 1,11,-1
 304 723 l 1,12,0
 250 622 250 622 219.5 507 c 128,-1,1
EndSplineSet
EndChar

StartChar: parenright
Encoding: 41 41 12
Width: 334
GlyphClass: 2
Flags: W
LayerCount: 2
Fore
SplineSet
96.5 507 m 128,-1,1
 127 392 127 392 127 277 c 0,2,3
 127 166 127 166 99.5 61 c 128,-1,4
 72 -44 72 -44 15 -161 c 1,5,-1
 121 -161 l 1,6,7
 191 -43 191 -43 226 57.5 c 128,-1,8
 261 158 261 158 261 278 c 128,-1,9
 261 398 261 398 223 512 c 128,-1,10
 185 626 185 626 119 723 c 1,11,-1
 12 723 l 1,12,0
 66 622 66 622 96.5 507 c 128,-1,1
EndSplineSet
EndChar

StartChar: asterisk
Encoding: 42 42 13
Width: 476
GlyphClass: 2
Flags: W
LayerCount: 2
Fore
SplineSet
236 459 m 1,0,-1
 152 319 l 1,1,-1
 72 375 l 1,2,-1
 176 499 l 1,3,-1
 28 541 l 1,4,-1
 60 628 l 1,5,-1
 200 567 l 1,6,-1
 188 723 l 1,7,-1
 286 723 l 1,8,-1
 272 566 l 1,9,-1
 415 629 l 1,10,-1
 443 541 l 1,11,-1
 299 500 l 1,12,-1
 400 378 l 1,13,-1
 320 322 l 1,14,-1
 236 459 l 1,0,-1
EndSplineSet
EndChar

StartChar: plus
Encoding: 43 43 14
Width: 585
GlyphClass: 2
Flags: W
LayerCount: 2
Fore
SplineSet
528 309 m 1,0,-1
 346 309 l 1,1,-1
 346 126 l 1,2,-1
 236 126 l 1,3,-1
 236 309 l 1,4,-1
 52 309 l 1,5,-1
 52 418 l 1,6,-1
 236 418 l 1,7,-1
 236 602 l 1,8,-1
 345 602 l 1,9,-1
 345 419 l 1,10,-1
 528 419 l 1,11,-1
 528 309 l 1,0,-1
EndSplineSet
EndChar

StartChar: comma
Encoding: 44 44 15
Width: 274
GlyphClass: 2
Flags: W
LayerCount: 2
Fore
SplineSet
102 -4 m 1,0,-1
 51 1 l 1,1,-1
 51 145 l 1,2,-1
 201 145 l 1,3,-1
 201 18 l 1,4,-1
 99 -141 l 1,5,-1
 44 -141 l 1,6,-1
 102 -4 l 1,0,-1
EndSplineSet
Substitution2: "'tnum' Tabular Numbers in Latin lookup 23 subtable" comma.tf
Substitution2: "'aalt' Access All Alternates in Latin lookup 0 subtable" comma.tf
EndChar

StartChar: hyphen
Encoding: 45 45 16
Width: 392
GlyphClass: 2
Flags: W
LayerCount: 2
Fore
SplineSet
330 203 m 1,0,-1
 55 202 l 1,1,-1
 55 312 l 1,2,-1
 330 312 l 1,3,-1
 330 203 l 1,0,-1
EndSplineSet
EndChar

StartChar: period
Encoding: 46 46 17
Width: 269
GlyphClass: 2
Flags: W
LayerCount: 2
Fore
SplineSet
212 0 m 1,0,-1
 47 0 l 1,1,-1
 47 163 l 1,2,-1
 212 163 l 1,3,-1
 212 0 l 1,0,-1
EndSplineSet
Substitution2: "'tnum' Tabular Numbers in Latin lookup 23 subtable" period.tf
Substitution2: "'aalt' Access All Alternates in Latin lookup 0 subtable" period.tf
EndChar

StartChar: slash
Encoding: 47 47 18
Width: 378
GlyphClass: 2
Flags: W
LayerCount: 2
Fore
SplineSet
260 723 m 1,0,-1
 365 723 l 1,1,-1
 112 -17 l 1,2,-1
 7 -17 l 1,3,-1
 260 723 l 1,0,-1
EndSplineSet
Substitution2: "'frac' Diagonal Fractions in Latin lookup 16 subtable" fraction
Substitution2: "'aalt' Access All Alternates in Latin lookup 0 subtable" fraction
EndChar

StartChar: zero
Encoding: 48 48 19
Width: 663
GlyphClass: 2
Flags: W
LayerCount: 2
Fore
SplineSet
485.5 690 m 128,-1,1
 552 646 552 646 589 562 c 128,-1,2
 626 478 626 478 626 360 c 0,3,4
 626 243 626 243 589.5 160 c 128,-1,5
 553 77 553 77 487 34 c 128,-1,6
 421 -9 421 -9 332 -9 c 128,-1,7
 243 -9 243 -9 176 33.5 c 128,-1,8
 109 76 109 76 72.5 159 c 128,-1,9
 36 242 36 242 36 359 c 0,10,11
 36 477 36 477 73.5 561.5 c 128,-1,12
 111 646 111 646 177.5 690 c 128,-1,13
 244 734 244 734 332 734 c 0,14,0
 419 734 419 734 485.5 690 c 128,-1,1
428.5 170 m 128,-1,16
 460 228 460 228 460 359 c 0,17,18
 460 493 460 493 428 553.5 c 128,-1,19
 396 614 396 614 331 614 c 0,20,21
 267 614 267 614 235 553 c 128,-1,22
 203 492 203 492 203 359 c 0,23,24
 203 229 203 229 235 170.5 c 128,-1,25
 267 112 267 112 332 112 c 128,-1,15
 397 112 397 112 428.5 170 c 128,-1,16
EndSplineSet
Substitution2: "'onum' Oldstyle Figures in Latin lookup 24 subtable" zero.osf
Substitution2: "'tnum' Tabular Numbers in Latin lookup 23 subtable" zero.tf
Substitution2: "'frac' Diagonal Fractions in Latin lookup 17 subtable" zero.numr
Substitution2: "'dnom' Denominators in Latin lookup 15 subtable" zero.dnom
Substitution2: "'numr' Numerators in Latin lookup 14 subtable" zero.numr
Substitution2: "'sups' Superscript in Latin lookup 13 subtable" uni2070
Substitution2: "'sinf' Scientific Inferiors in Latin lookup 12 subtable" zero.subs
Substitution2: "'subs' Subscript in Latin lookup 11 subtable" zero.subs
AlternateSubs2: "'aalt' Access All Alternates in Latin lookup 1 subtable" zero.subs uni2070 zero.numr zero.dnom zero.tf zero.osf
EndChar

StartChar: one
Encoding: 49 49 20
Width: 405
GlyphClass: 2
Flags: W
LayerCount: 2
Fore
SplineSet
154 555 m 1,0,-1
 25 519 l 1,1,-1
 25 623 l 1,2,-1
 226 723 l 1,3,-1
 306 723 l 1,4,-1
 306 0 l 1,5,-1
 154 0 l 1,6,-1
 154 555 l 1,0,-1
EndSplineSet
Substitution2: "'onum' Oldstyle Figures in Latin lookup 24 subtable" one.osf
Substitution2: "'tnum' Tabular Numbers in Latin lookup 23 subtable" one.tf
Substitution2: "'frac' Diagonal Fractions in Latin lookup 17 subtable" one.numr
Substitution2: "'dnom' Denominators in Latin lookup 15 subtable" one.dnom
Substitution2: "'numr' Numerators in Latin lookup 14 subtable" one.numr
Substitution2: "'sups' Superscript in Latin lookup 13 subtable" uni00B9
Substitution2: "'sinf' Scientific Inferiors in Latin lookup 12 subtable" one.subs
Substitution2: "'subs' Subscript in Latin lookup 11 subtable" one.subs
AlternateSubs2: "'aalt' Access All Alternates in Latin lookup 1 subtable" one.subs uni00B9 one.numr one.dnom one.tf one.osf
EndChar

StartChar: two
Encoding: 50 50 21
Width: 617
GlyphClass: 2
Flags: W
LayerCount: 2
Fore
SplineSet
36 112 m 1,0,-1
 263 313 l 2,1,2
 327 369 327 369 358.5 401.5 c 128,-1,3
 390 434 390 434 402 458.5 c 128,-1,4
 414 483 414 483 414 512 c 0,5,6
 414 557 414 557 383 582.5 c 128,-1,7
 352 608 352 608 306 608 c 0,8,9
 259 608 259 608 222 582.5 c 128,-1,10
 185 557 185 557 168 503 c 1,11,-1
 28 510 l 1,12,13
 40 612 40 612 112 672.5 c 128,-1,14
 184 733 184 733 310 733 c 0,15,16
 389 733 389 733 448.5 706 c 128,-1,17
 508 679 508 679 540.5 629.5 c 128,-1,18
 573 580 573 580 573 513 c 0,19,20
 572 456 572 456 544 411 c 128,-1,21
 516 366 516 366 440 294 c 2,22,-1
 264 127 l 1,23,-1
 580 127 l 1,24,-1
 580 0 l 1,25,-1
 36 0 l 1,26,-1
 36 112 l 1,0,-1
EndSplineSet
Substitution2: "'onum' Oldstyle Figures in Latin lookup 24 subtable" two.osf
Substitution2: "'tnum' Tabular Numbers in Latin lookup 23 subtable" two.tf
Substitution2: "'frac' Diagonal Fractions in Latin lookup 17 subtable" two.numr
Substitution2: "'dnom' Denominators in Latin lookup 15 subtable" two.dnom
Substitution2: "'numr' Numerators in Latin lookup 14 subtable" two.numr
Substitution2: "'sups' Superscript in Latin lookup 13 subtable" uni00B2
Substitution2: "'sinf' Scientific Inferiors in Latin lookup 12 subtable" two.subs
Substitution2: "'subs' Subscript in Latin lookup 11 subtable" two.subs
AlternateSubs2: "'aalt' Access All Alternates in Latin lookup 1 subtable" two.subs uni00B2 two.numr two.dnom two.tf two.osf
EndChar

StartChar: three
Encoding: 51 51 22
Width: 669
GlyphClass: 2
Flags: W
LayerCount: 2
Fore
SplineSet
130 685 m 128,-1,1
 214 733 214 733 336 733 c 0,2,3
 413 733 413 733 476.5 709 c 128,-1,4
 540 685 540 685 576.5 641.5 c 128,-1,5
 613 598 613 598 613 544 c 0,6,7
 613 434 613 434 479 387 c 1,8,9
 545 370 545 370 590 324 c 128,-1,10
 635 278 635 278 635 209 c 0,11,12
 635 142 635 142 592 92.5 c 128,-1,13
 549 43 549 43 479.5 16.5 c 128,-1,14
 410 -10 410 -10 333 -10 c 0,15,16
 197 -10 197 -10 119.5 35.5 c 128,-1,17
 42 81 42 81 28 196 c 1,18,-1
 170 204 l 1,19,20
 188 154 188 154 230 132.5 c 128,-1,21
 272 111 272 111 323 111 c 0,22,23
 388 111 388 111 427.5 139 c 128,-1,24
 467 167 467 167 467 208 c 0,25,26
 467 253 467 253 429 282 c 128,-1,27
 391 311 391 311 335 311 c 2,28,-1
 237 313 l 1,29,-1
 237 432 l 1,30,-1
 321 435 l 2,31,32
 378 436 378 436 414.5 464 c 128,-1,33
 451 492 451 492 451 532 c 0,34,35
 451 568 451 568 415 592.5 c 128,-1,36
 379 617 379 617 332 617 c 0,37,38
 272 617 272 617 231.5 597 c 128,-1,39
 191 577 191 577 177 523 c 1,40,-1
 37 531 l 1,41,0
 46 637 46 637 130 685 c 128,-1,1
EndSplineSet
Substitution2: "'onum' Oldstyle Figures in Latin lookup 24 subtable" three.osf
Substitution2: "'tnum' Tabular Numbers in Latin lookup 23 subtable" three.tf
Substitution2: "'frac' Diagonal Fractions in Latin lookup 17 subtable" three.numr
Substitution2: "'dnom' Denominators in Latin lookup 15 subtable" three.dnom
Substitution2: "'numr' Numerators in Latin lookup 14 subtable" three.numr
Substitution2: "'sups' Superscript in Latin lookup 13 subtable" uni00B3
Substitution2: "'sinf' Scientific Inferiors in Latin lookup 12 subtable" three.subs
Substitution2: "'subs' Subscript in Latin lookup 11 subtable" three.subs
AlternateSubs2: "'aalt' Access All Alternates in Latin lookup 1 subtable" three.subs uni00B3 three.numr three.dnom three.tf three.osf
EndChar

StartChar: four
Encoding: 52 52 23
Width: 630
GlyphClass: 2
Flags: W
LayerCount: 2
Fore
SplineSet
502 723 m 1,0,-1
 502 287 l 1,1,-1
 610 287 l 1,2,-1
 610 158 l 1,3,-1
 502 158 l 1,4,-1
 502 0 l 1,5,-1
 350 0 l 1,6,-1
 351 158 l 1,7,-1
 26 158 l 1,8,-1
 26 285 l 1,9,-1
 351 723 l 1,10,-1
 502 723 l 1,0,-1
351 287 m 1,11,-1
 351 514 l 1,12,-1
 183 287 l 1,13,-1
 351 287 l 1,11,-1
EndSplineSet
Substitution2: "'onum' Oldstyle Figures in Latin lookup 24 subtable" four.osf
Substitution2: "'tnum' Tabular Numbers in Latin lookup 23 subtable" four.tf
Substitution2: "'frac' Diagonal Fractions in Latin lookup 17 subtable" four.numr
Substitution2: "'dnom' Denominators in Latin lookup 15 subtable" four.dnom
Substitution2: "'numr' Numerators in Latin lookup 14 subtable" four.numr
Substitution2: "'sups' Superscript in Latin lookup 13 subtable" uni2074
Substitution2: "'sinf' Scientific Inferiors in Latin lookup 12 subtable" four.subs
Substitution2: "'subs' Subscript in Latin lookup 11 subtable" four.subs
AlternateSubs2: "'aalt' Access All Alternates in Latin lookup 1 subtable" four.subs uni2074 four.numr four.dnom four.tf four.osf
EndChar

StartChar: five
Encoding: 53 53 24
Width: 665
GlyphClass: 2
Flags: W
LayerCount: 2
Fore
SplineSet
580 723 m 1,0,-1
 573 600 l 1,1,-1
 229 600 l 1,2,-1
 215 431 l 1,3,4
 269 450 269 450 299.5 458 c 128,-1,5
 330 466 330 466 370 466 c 0,6,7
 444 466 444 466 501.5 439.5 c 128,-1,8
 559 413 559 413 592 361 c 128,-1,9
 625 309 625 309 625 236 c 0,10,11
 625 160 625 160 589 104.5 c 128,-1,12
 553 49 553 49 487.5 19.5 c 128,-1,13
 422 -10 422 -10 335 -10 c 0,14,15
 237 -10 237 -10 157 28 c 128,-1,16
 77 66 77 66 33 129 c 1,17,-1
 146 208 l 1,18,19
 189 158 189 158 224.5 134 c 128,-1,20
 260 110 260 110 316 110 c 0,21,22
 384 110 384 110 422.5 144 c 128,-1,23
 461 178 461 178 461 231 c 0,24,25
 461 282 461 282 425.5 313.5 c 128,-1,26
 390 345 390 345 330 345 c 0,27,28
 299 345 299 345 272.5 336 c 128,-1,29
 246 327 246 327 205 307 c 0,30,31
 197 303 197 303 193 303 c 0,32,33
 188 303 188 303 181 308 c 2,34,-1
 78 364 l 1,35,-1
 110 723 l 1,36,-1
 580 723 l 1,0,-1
EndSplineSet
Substitution2: "'onum' Oldstyle Figures in Latin lookup 24 subtable" five.osf
Substitution2: "'tnum' Tabular Numbers in Latin lookup 23 subtable" five.tf
Substitution2: "'frac' Diagonal Fractions in Latin lookup 17 subtable" five.numr
Substitution2: "'dnom' Denominators in Latin lookup 15 subtable" five.dnom
Substitution2: "'numr' Numerators in Latin lookup 14 subtable" five.numr
Substitution2: "'sups' Superscript in Latin lookup 13 subtable" uni2075
Substitution2: "'sinf' Scientific Inferiors in Latin lookup 12 subtable" five.subs
Substitution2: "'subs' Subscript in Latin lookup 11 subtable" five.subs
AlternateSubs2: "'aalt' Access All Alternates in Latin lookup 1 subtable" five.subs uni2075 five.numr five.dnom five.tf five.osf
EndChar

StartChar: six
Encoding: 54 54 25
Width: 647
GlyphClass: 2
Flags: W
LayerCount: 2
Fore
SplineSet
468.5 711.5 m 128,-1,1
 525 688 525 688 560 644.5 c 128,-1,2
 595 601 595 601 600 543 c 1,3,-1
 465 534 l 1,4,5
 448 575 448 575 420.5 595.5 c 128,-1,6
 393 616 393 616 347 616 c 0,7,8
 279 616 279 616 240.5 562.5 c 128,-1,9
 202 509 202 509 202 419 c 0,10,11
 202 405 202 405 204 377 c 1,12,13
 229 410 229 410 272.5 428 c 128,-1,14
 316 446 316 446 367 446 c 0,15,16
 441 446 441 446 496 418.5 c 128,-1,17
 551 391 551 391 581 341.5 c 128,-1,18
 611 292 611 292 611 230 c 0,19,20
 611 162 611 162 575 108.5 c 128,-1,21
 539 55 539 55 476 25 c 128,-1,22
 413 -5 413 -5 334 -5 c 0,23,24
 241 -5 241 -5 173.5 38.5 c 128,-1,25
 106 82 106 82 70.5 162 c 128,-1,26
 35 242 35 242 35 350 c 0,27,28
 35 469 35 469 72.5 556 c 128,-1,29
 110 643 110 643 179.5 689 c 128,-1,30
 249 735 249 735 344 735 c 0,31,0
 412 735 412 735 468.5 711.5 c 128,-1,1
273 322 m 128,-1,33
 244 310 244 310 226 290.5 c 128,-1,34
 208 271 208 271 208 250 c 0,35,36
 213 180 213 180 245 144 c 128,-1,37
 277 108 277 108 329 108 c 0,38,39
 379 108 379 108 415.5 141 c 128,-1,40
 452 174 452 174 452 223 c 0,41,42
 452 274 452 274 417 304 c 128,-1,43
 382 334 382 334 332 334 c 0,44,32
 302 334 302 334 273 322 c 128,-1,33
EndSplineSet
Substitution2: "'onum' Oldstyle Figures in Latin lookup 24 subtable" six.osf
Substitution2: "'tnum' Tabular Numbers in Latin lookup 23 subtable" six.tf
Substitution2: "'frac' Diagonal Fractions in Latin lookup 17 subtable" six.numr
Substitution2: "'dnom' Denominators in Latin lookup 15 subtable" six.dnom
Substitution2: "'numr' Numerators in Latin lookup 14 subtable" six.numr
Substitution2: "'sups' Superscript in Latin lookup 13 subtable" uni2076
Substitution2: "'sinf' Scientific Inferiors in Latin lookup 12 subtable" six.subs
Substitution2: "'subs' Subscript in Latin lookup 11 subtable" six.subs
AlternateSubs2: "'aalt' Access All Alternates in Latin lookup 1 subtable" six.subs uni2076 six.numr six.dnom six.tf six.osf
EndChar

StartChar: seven
Encoding: 55 55 26
Width: 587
GlyphClass: 2
Flags: W
LayerCount: 2
Fore
SplineSet
569 723 m 1,0,-1
 569 569 l 1,1,2
 511 497 511 497 454 394 c 128,-1,3
 397 291 397 291 359.5 185 c 128,-1,4
 322 79 322 79 320 0 c 1,5,-1
 157 0 l 1,6,7
 162 67 162 67 191.5 166 c 128,-1,8
 221 265 221 265 279.5 380 c 128,-1,9
 338 495 338 495 426 600 c 1,10,-1
 25 600 l 1,11,-1
 25 723 l 1,12,-1
 569 723 l 1,0,-1
EndSplineSet
Substitution2: "'onum' Oldstyle Figures in Latin lookup 24 subtable" seven.osf
Substitution2: "'tnum' Tabular Numbers in Latin lookup 23 subtable" seven.tf
Substitution2: "'frac' Diagonal Fractions in Latin lookup 17 subtable" seven.numr
Substitution2: "'dnom' Denominators in Latin lookup 15 subtable" seven.dnom
Substitution2: "'numr' Numerators in Latin lookup 14 subtable" seven.numr
Substitution2: "'sups' Superscript in Latin lookup 13 subtable" uni2077
Substitution2: "'sinf' Scientific Inferiors in Latin lookup 12 subtable" seven.subs
Substitution2: "'subs' Subscript in Latin lookup 11 subtable" seven.subs
AlternateSubs2: "'aalt' Access All Alternates in Latin lookup 1 subtable" seven.subs uni2077 seven.numr seven.dnom seven.tf seven.osf
EndChar

StartChar: eight
Encoding: 56 56 27
Width: 639
GlyphClass: 2
Flags: W
LayerCount: 2
Fore
SplineSet
453 707 m 128,-1,1
 513 681 513 681 546.5 634.5 c 128,-1,2
 580 588 580 588 580 531 c 0,3,4
 580 472 580 472 543 437 c 128,-1,5
 506 402 506 402 469 387 c 1,6,7
 474 384 474 384 515.5 364.5 c 128,-1,8
 557 345 557 345 584.5 303 c 128,-1,9
 612 261 612 261 612 205 c 0,10,11
 612 138 612 138 575 89.5 c 128,-1,12
 538 41 538 41 470 15.5 c 128,-1,13
 402 -10 402 -10 312 -10 c 0,14,15
 183 -10 183 -10 105.5 39.5 c 128,-1,16
 28 89 28 89 28 178 c 0,17,18
 28 238 28 238 64 279 c 128,-1,19
 100 320 100 320 161 345 c 1,20,21
 159 346 159 346 130 361.5 c 128,-1,22
 101 377 101 377 74 418 c 128,-1,23
 47 459 47 459 47 510 c 0,24,25
 47 571 47 571 80 622 c 128,-1,26
 113 673 113 673 174 703 c 128,-1,27
 235 733 235 733 317 733 c 0,28,0
 393 733 393 733 453 707 c 128,-1,1
240 595 m 128,-1,30
 208 570 208 570 208 531 c 0,31,32
 208 473 208 473 276 453 c 2,33,-1
 352 430 l 2,34,35
 355 429 355 429 361 429 c 0,36,37
 379 429 379 429 397.5 444 c 128,-1,38
 416 459 416 459 428 482.5 c 128,-1,39
 440 506 440 506 440 528 c 0,40,41
 440 568 440 568 407.5 594 c 128,-1,42
 375 620 375 620 320 620 c 0,43,29
 272 620 272 620 240 595 c 128,-1,30
413.5 127.5 m 128,-1,45
 447 151 447 151 447 192 c 0,46,47
 447 222 447 222 429 243 c 128,-1,48
 411 264 411 264 368 277 c 2,49,-1
 277 304 l 2,50,51
 269 306 269 306 264 306 c 0,52,53
 245 306 245 306 223.5 292 c 128,-1,54
 202 278 202 278 188 255 c 128,-1,55
 174 232 174 232 174 204 c 0,56,57
 174 156 174 156 210.5 130 c 128,-1,58
 247 104 247 104 322 104 c 0,59,44
 380 104 380 104 413.5 127.5 c 128,-1,45
EndSplineSet
Substitution2: "'onum' Oldstyle Figures in Latin lookup 24 subtable" eight.osf
Substitution2: "'tnum' Tabular Numbers in Latin lookup 23 subtable" eight.tf
Substitution2: "'frac' Diagonal Fractions in Latin lookup 17 subtable" eight.numr
Substitution2: "'dnom' Denominators in Latin lookup 15 subtable" eight.dnom
Substitution2: "'numr' Numerators in Latin lookup 14 subtable" eight.numr
Substitution2: "'sups' Superscript in Latin lookup 13 subtable" uni2078
Substitution2: "'sinf' Scientific Inferiors in Latin lookup 12 subtable" eight.subs
Substitution2: "'subs' Subscript in Latin lookup 11 subtable" eight.subs
AlternateSubs2: "'aalt' Access All Alternates in Latin lookup 1 subtable" eight.subs uni2078 eight.numr eight.dnom eight.tf eight.osf
EndChar

StartChar: nine
Encoding: 57 57 28
Width: 647
GlyphClass: 2
Flags: W
LayerCount: 2
Fore
SplineSet
176 15.5 m 128,-1,1
 119 40 119 40 83.5 84 c 128,-1,2
 48 128 48 128 43 184 c 1,3,-1
 182 193 l 1,4,5
 210 110 210 110 294 110 c 0,6,7
 370 110 370 110 414 161 c 128,-1,8
 458 212 458 212 458 319 c 0,9,10
 458 343 458 343 457 356 c 1,11,12
 435 317 435 317 391 295.5 c 128,-1,13
 347 274 347 274 287 274 c 0,14,15
 213 274 213 274 156 302.5 c 128,-1,16
 99 331 99 331 67 381.5 c 128,-1,17
 35 432 35 432 35 497 c 0,18,19
 35 565 35 565 70.5 618.5 c 128,-1,20
 106 672 106 672 169 702 c 128,-1,21
 232 732 232 732 311 732 c 0,22,23
 404 732 404 732 471.5 689 c 128,-1,24
 539 646 539 646 575 566 c 128,-1,25
 611 486 611 486 611 377 c 0,26,27
 611 185 611 185 529 88 c 128,-1,28
 447 -9 447 -9 301 -9 c 0,29,0
 233 -9 233 -9 176 15.5 c 128,-1,1
373 405.5 m 128,-1,31
 402 418 402 418 420 437.5 c 128,-1,32
 438 457 438 457 438 477 c 0,33,34
 432 547 432 547 400 583 c 128,-1,35
 368 619 368 619 316 619 c 0,36,37
 266 619 266 619 233 587 c 128,-1,38
 200 555 200 555 200 504 c 0,39,40
 200 455 200 455 232 424 c 128,-1,41
 264 393 264 393 313 393 c 0,42,30
 344 393 344 393 373 405.5 c 128,-1,31
EndSplineSet
Substitution2: "'onum' Oldstyle Figures in Latin lookup 24 subtable" nine.osf
Substitution2: "'tnum' Tabular Numbers in Latin lookup 23 subtable" nine.tf
Substitution2: "'frac' Diagonal Fractions in Latin lookup 17 subtable" nine.numr
Substitution2: "'dnom' Denominators in Latin lookup 15 subtable" nine.dnom
Substitution2: "'numr' Numerators in Latin lookup 14 subtable" nine.numr
Substitution2: "'sups' Superscript in Latin lookup 13 subtable" uni2079
Substitution2: "'sinf' Scientific Inferiors in Latin lookup 12 subtable" nine.subs
Substitution2: "'subs' Subscript in Latin lookup 11 subtable" nine.subs
AlternateSubs2: "'aalt' Access All Alternates in Latin lookup 1 subtable" nine.subs uni2079 nine.numr nine.dnom nine.tf nine.osf
EndChar

StartChar: colon
Encoding: 58 58 29
Width: 269
GlyphClass: 2
Flags: W
LayerCount: 2
Fore
SplineSet
212 345 m 1,0,-1
 47 345 l 1,1,-1
 47 505 l 1,2,-1
 212 505 l 1,3,-1
 212 345 l 1,0,-1
212 3 m 1,4,-1
 47 3 l 1,5,-1
 47 163 l 1,6,-1
 212 163 l 1,7,-1
 212 3 l 1,4,-1
EndSplineSet
EndChar

StartChar: semicolon
Encoding: 59 59 30
Width: 278
GlyphClass: 2
Flags: W
LayerCount: 2
Fore
SplineSet
48 503 m 1,0,-1
 212 503 l 1,1,-1
 212 340 l 1,2,-1
 48 340 l 1,3,-1
 48 503 l 1,0,-1
107 0 m 1,4,-1
 49 0 l 1,5,-1
 49 160 l 1,6,-1
 214 160 l 1,7,-1
 214 18 l 1,8,-1
 102 -155 l 1,9,-1
 41 -155 l 1,10,-1
 107 0 l 1,4,-1
EndSplineSet
EndChar

StartChar: less
Encoding: 60 60 31
Width: 583
GlyphClass: 2
Flags: W
LayerCount: 2
Fore
SplineSet
511 101 m 1,0,-1
 47 280 l 1,1,-1
 47 405 l 1,2,-1
 512 586 l 1,3,-1
 512 457 l 1,4,-1
 212 342 l 1,5,-1
 511 230 l 1,6,-1
 511 101 l 1,0,-1
EndSplineSet
EndChar

StartChar: equal
Encoding: 61 61 32
Width: 585
GlyphClass: 2
Flags: W
LayerCount: 2
Fore
SplineSet
528 404 m 1,0,-1
 52 404 l 1,1,-1
 52 514 l 1,2,-1
 528 514 l 1,3,-1
 528 404 l 1,0,-1
528 175 m 1,4,-1
 52 175 l 1,5,-1
 52 284 l 1,6,-1
 528 284 l 1,7,-1
 528 175 l 1,4,-1
EndSplineSet
EndChar

StartChar: greater
Encoding: 62 62 33
Width: 583
GlyphClass: 2
Flags: W
LayerCount: 2
Fore
SplineSet
364 342 m 1,0,-1
 64 457 l 1,1,-1
 64 586 l 1,2,-1
 529 405 l 1,3,-1
 529 280 l 1,4,-1
 64 101 l 1,5,-1
 64 230 l 1,6,-1
 364 342 l 1,0,-1
EndSplineSet
EndChar

StartChar: question
Encoding: 63 63 34
Width: 531
GlyphClass: 2
Flags: W
LayerCount: 2
Fore
SplineSet
106 690 m 128,-1,1
 172 733 172 733 264 733 c 0,2,3
 334 733 334 733 389 710.5 c 128,-1,4
 444 688 444 688 474 649 c 128,-1,5
 504 610 504 610 504 563 c 0,6,7
 504 525 504 525 490.5 494.5 c 128,-1,8
 477 464 477 464 457.5 442 c 128,-1,9
 438 420 438 420 405 390 c 0,10,11
 358 347 358 347 334.5 313 c 128,-1,12
 311 279 311 279 311 229 c 1,13,-1
 190 229 l 1,14,15
 190 278 190 278 204.5 317 c 128,-1,16
 219 356 219 356 239 383 c 128,-1,17
 259 410 259 410 290 443 c 0,18,19
 323 479 323 479 338.5 502.5 c 128,-1,20
 354 526 354 526 354 555 c 0,21,22
 354 589 354 589 328.5 609.5 c 128,-1,23
 303 630 303 630 263 630 c 128,-1,24
 223 630 223 630 187.5 604.5 c 128,-1,25
 152 579 152 579 136 537 c 1,26,-1
 8 567 l 1,27,0
 40 647 40 647 106 690 c 128,-1,1
333 0 m 1,28,-1
 168 0 l 1,29,-1
 168 160 l 1,30,-1
 333 160 l 1,31,-1
 333 0 l 1,28,-1
EndSplineSet
EndChar

StartChar: at
Encoding: 64 64 35
Width: 830
GlyphClass: 2
Flags: W
LayerCount: 2
Fore
SplineSet
563.5 -88.5 m 128,-1,1
 500 -110 500 -110 425 -110 c 0,2,3
 308 -110 308 -110 221.5 -61.5 c 128,-1,4
 135 -13 135 -13 89 70.5 c 128,-1,5
 43 154 43 154 43 255 c 0,6,7
 43 361 43 361 92.5 450 c 128,-1,8
 142 539 142 539 233.5 591.5 c 128,-1,9
 325 644 325 644 444 644 c 0,10,11
 537 644 537 644 617 610.5 c 128,-1,12
 697 577 697 577 746.5 506.5 c 128,-1,13
 796 436 796 436 796 331 c 0,14,15
 796 257 796 257 771.5 200 c 128,-1,16
 747 143 747 143 703 111 c 128,-1,17
 659 79 659 79 603 79 c 0,18,19
 564 79 564 79 541.5 92 c 128,-1,20
 519 105 519 105 509 125 c 0,21,22
 506 131 506 131 503 131 c 128,-1,23
 500 131 500 131 496 125 c 0,24,25
 473 97 473 97 440 81 c 128,-1,26
 407 65 407 65 367 65 c 0,27,28
 325 65 325 65 291 86.5 c 128,-1,29
 257 108 257 108 237.5 147.5 c 128,-1,30
 218 187 218 187 218 238 c 0,31,32
 218 298 218 298 243 349.5 c 128,-1,33
 268 401 268 401 313 432 c 128,-1,34
 358 463 358 463 416 463 c 0,35,36
 453 463 453 463 477.5 450 c 128,-1,37
 502 437 502 437 521 414 c 0,38,39
 523 411 523 411 525.5 412 c 128,-1,40
 528 413 528 413 529 418 c 2,41,-1
 534 438 l 1,42,-1
 620 438 l 1,43,-1
 584 223 l 2,44,45
 582 214 582 214 582 200 c 0,46,47
 582 163 582 163 614 163 c 0,48,49
 637 163 637 163 658.5 181.5 c 128,-1,50
 680 200 680 200 693 237 c 128,-1,51
 706 274 706 274 706 325 c 0,52,53
 706 449 706 449 631 505.5 c 128,-1,54
 556 562 556 562 443 562 c 0,55,56
 341 562 341 562 271.5 521 c 128,-1,57
 202 480 202 480 168.5 411 c 128,-1,58
 135 342 135 342 135 256 c 0,59,60
 135 166 135 166 172 101 c 128,-1,61
 209 36 209 36 277.5 1.5 c 128,-1,62
 346 -33 346 -33 440 -33 c 0,63,64
 502 -33 502 -33 538.5 -19 c 128,-1,65
 575 -5 575 -5 621 26 c 1,66,-1
 667 -34 l 1,67,0
 627 -67 627 -67 563.5 -88.5 c 128,-1,1
342 181.5 m 128,-1,69
 360 155 360 155 393 155 c 0,70,71
 422 155 422 155 446 173.5 c 128,-1,72
 470 192 470 192 483.5 221.5 c 128,-1,73
 497 251 497 251 497 283 c 0,74,75
 497 323 497 323 476.5 348 c 128,-1,76
 456 373 456 373 424 373 c 0,77,78
 383 373 383 373 353.5 336.5 c 128,-1,79
 324 300 324 300 324 248 c 0,80,68
 324 208 324 208 342 181.5 c 128,-1,69
EndSplineSet
EndChar

StartChar: A
Encoding: 65 65 36
Width: 713
GlyphClass: 2
Flags: W
AnchorPoint: "Anchor-5" 0 0 basechar 0
AnchorPoint: "Anchor-4" 0 0 basechar 0
AnchorPoint: "Anchor-3" 367 723 basechar 0
AnchorPoint: "Anchor-2" 693 10 basechar 0
LayerCount: 2
Fore
SplineSet
278 723 m 1,0,-1
 436 723 l 1,1,-1
 694 0 l 1,2,-1
 544 0 l 1,3,-1
 486 165 l 1,4,-1
 229 165 l 1,5,-1
 170 0 l 1,6,-1
 19 0 l 1,7,-1
 278 723 l 1,0,-1
451 296 m 1,8,-1
 357 578 l 1,9,-1
 263 296 l 1,10,-1
 451 296 l 1,8,-1
EndSplineSet
Substitution2: "Single Substitution lookup 30 subtable" ordfeminine
Substitution2: "'aalt' Access All Alternates in Latin lookup 0 subtable" ordfeminine
EndChar

StartChar: B
Encoding: 66 66 37
Width: 685
GlyphClass: 2
Flags: W
LayerCount: 2
Fore
SplineSet
77 723 m 1,0,-1
 342 723 l 2,1,2
 622 723 622 723 622 533 c 0,3,4
 622 478 622 478 594 439 c 128,-1,5
 566 400 566 400 498 371 c 1,6,7
 580 349 580 349 610 302.5 c 128,-1,8
 640 256 640 256 640 196 c 0,9,10
 640 96 640 96 571 48 c 128,-1,11
 502 0 502 0 354 0 c 2,12,-1
 77 0 l 1,13,-1
 77 723 l 1,0,-1
365 426 m 2,14,15
 413 426 413 426 445 448.5 c 128,-1,16
 477 471 477 471 477 514 c 0,17,18
 477 558 477 558 443.5 582.5 c 128,-1,19
 410 607 410 607 356 607 c 2,20,-1
 228 607 l 1,21,-1
 228 426 l 1,22,-1
 365 426 l 2,14,15
358 116 m 2,23,24
 420 116 420 116 453 141.5 c 128,-1,25
 486 167 486 167 486 211 c 0,26,27
 486 256 486 256 452.5 281 c 128,-1,28
 419 306 419 306 365 306 c 2,29,-1
 228 306 l 1,30,-1
 228 116 l 1,31,-1
 358 116 l 2,23,24
EndSplineSet
EndChar

StartChar: C
Encoding: 67 67 38
Width: 711
GlyphClass: 2
Flags: W
AnchorPoint: "Anchor-5" 0 0 basechar 0
AnchorPoint: "Anchor-4" 373 0 basechar 0
AnchorPoint: "Anchor-3" 373 723 basechar 0
AnchorPoint: "Anchor-2" 0 0 basechar 0
LayerCount: 2
Fore
SplineSet
517 701.5 m 128,-1,1
 582 670 582 670 622 614 c 128,-1,2
 662 558 662 558 669 487 c 1,3,-1
 511 485 l 1,4,5
 500 543 500 543 463.5 576 c 128,-1,6
 427 609 427 609 366 609 c 0,7,8
 208 609 208 609 208 365 c 0,9,10
 208 238 208 238 250 176 c 128,-1,11
 292 114 292 114 369 114 c 0,12,13
 424 114 424 114 461.5 150.5 c 128,-1,14
 499 187 499 187 510 246 c 1,15,-1
 668 243 l 1,16,17
 653 129 653 129 583 59.5 c 128,-1,18
 513 -10 513 -10 373 -10 c 0,19,20
 273 -10 273 -10 198.5 37.5 c 128,-1,21
 124 85 124 85 83.5 170.5 c 128,-1,22
 43 256 43 256 43 368 c 0,23,24
 43 479 43 479 82.5 561.5 c 128,-1,25
 122 644 122 644 196 688.5 c 128,-1,26
 270 733 270 733 371 733 c 0,27,0
 452 733 452 733 517 701.5 c 128,-1,1
EndSplineSet
EndChar

StartChar: D
Encoding: 68 68 39
Width: 715
GlyphClass: 2
Flags: W
AnchorPoint: "Anchor-5" 0 0 basechar 0
AnchorPoint: "Anchor-4" 0 0 basechar 0
AnchorPoint: "Anchor-3" 356 723 basechar 0
AnchorPoint: "Anchor-2" 0 0 basechar 0
LayerCount: 2
Fore
SplineSet
298 722 m 0,0,1
 490 717 490 717 581.5 624.5 c 128,-1,2
 673 532 673 532 673 365 c 0,3,4
 673 192 673 192 578 96 c 128,-1,5
 483 0 483 0 293 0 c 2,6,-1
 77 0 l 1,7,-1
 77 723 l 1,8,9
 236 723 236 723 298 722 c 0,0,1
229 122 m 1,10,-1
 297 122 l 2,11,12
 394 122 394 122 454.5 181 c 128,-1,13
 515 240 515 240 515 366 c 0,14,15
 515 487 515 487 458.5 544.5 c 128,-1,16
 402 602 402 602 298 602 c 2,17,-1
 229 602 l 1,18,-1
 229 122 l 1,10,-1
EndSplineSet
EndChar

StartChar: E
Encoding: 69 69 40
Width: 638
GlyphClass: 2
Flags: W
AnchorPoint: "Anchor-5" 0 0 basechar 0
AnchorPoint: "Anchor-4" 337 0 basechar 0
AnchorPoint: "Anchor-3" 331 723 basechar 0
AnchorPoint: "Anchor-2" 579 10 basechar 0
LayerCount: 2
Fore
SplineSet
77 723 m 1,0,-1
 578 723 l 1,1,-1
 577 596 l 1,2,-1
 229 596 l 1,3,-1
 229 426 l 1,4,-1
 530 426 l 1,5,-1
 530 302 l 1,6,-1
 228 302 l 1,7,-1
 228 128 l 1,8,-1
 582 128 l 1,9,-1
 582 0 l 1,10,-1
 77 0 l 1,11,-1
 77 723 l 1,0,-1
EndSplineSet
EndChar

StartChar: F
Encoding: 70 70 41
Width: 605
GlyphClass: 2
Flags: W
LayerCount: 2
Fore
SplineSet
573 723 m 1,0,-1
 572 597 l 1,1,-1
 229 597 l 1,2,-1
 229 421 l 1,3,-1
 526 421 l 1,4,-1
 526 298 l 1,5,-1
 229 298 l 1,6,-1
 229 0 l 1,7,-1
 77 0 l 1,8,-1
 77 723 l 1,9,-1
 573 723 l 1,0,-1
EndSplineSet
EndChar

StartChar: G
Encoding: 71 71 42
Width: 753
GlyphClass: 2
Flags: W
AnchorPoint: "Anchor-5" 0 0 basechar 0
AnchorPoint: "Anchor-4" 373 0 basechar 0
AnchorPoint: "Anchor-3" 371 723 basechar 0
AnchorPoint: "Anchor-2" 0 0 basechar 0
LayerCount: 2
Fore
SplineSet
198 36 m 128,-1,1
 124 82 124 82 83.5 165.5 c 128,-1,2
 43 249 43 249 43 359 c 0,3,4
 43 472 43 472 85 556.5 c 128,-1,5
 127 641 127 641 203 687 c 128,-1,6
 279 733 279 733 378 733 c 0,7,8
 462 733 462 733 529 699 c 128,-1,9
 596 665 596 665 634.5 608.5 c 128,-1,10
 673 552 673 552 675 488 c 1,11,-1
 517 485 l 1,12,13
 506 538 506 538 468.5 572 c 128,-1,14
 431 606 431 606 375 606 c 0,15,16
 299 606 299 606 253 546.5 c 128,-1,17
 207 487 207 487 207 365 c 0,18,19
 207 235 207 235 255.5 178.5 c 128,-1,20
 304 122 304 122 381 122 c 0,21,22
 420 122 420 122 450 139 c 128,-1,23
 480 156 480 156 497.5 181.5 c 128,-1,24
 515 207 515 207 519 233 c 2,25,-1
 526 276 l 1,26,-1
 378 276 l 1,27,-1
 378 380 l 1,28,-1
 684 378 l 1,29,-1
 684 0 l 1,30,-1
 581 0 l 1,31,-1
 581 93 l 1,32,33
 546 47 546 47 497.5 18.5 c 128,-1,34
 449 -10 449 -10 370 -10 c 0,35,0
 272 -10 272 -10 198 36 c 128,-1,1
EndSplineSet
EndChar

StartChar: H
Encoding: 72 72 43
Width: 726
GlyphClass: 2
Flags: W
AnchorPoint: "Anchor-5" 0 0 basechar 0
AnchorPoint: "Anchor-4" 360 0 basechar 0
AnchorPoint: "Anchor-3" 361 723 basechar 0
AnchorPoint: "Anchor-2" 0 0 basechar 0
LayerCount: 2
Fore
SplineSet
228 309 m 1,0,-1
 228 0 l 1,1,-1
 77 0 l 1,2,-1
 77 723 l 1,3,-1
 228 723 l 1,4,-1
 228 434 l 1,5,-1
 498 434 l 1,6,-1
 498 723 l 1,7,-1
 649 723 l 1,8,-1
 649 0 l 1,9,-1
 498 0 l 1,10,-1
 498 309 l 1,11,-1
 228 309 l 1,0,-1
EndSplineSet
EndChar

StartChar: I
Encoding: 73 73 44
Width: 305
GlyphClass: 2
Flags: W
AnchorPoint: "Anchor-5" 0 0 basechar 0
AnchorPoint: "Anchor-4" 161 0 basechar 0
AnchorPoint: "Anchor-3" 154 723 basechar 0
AnchorPoint: "Anchor-2" 209 5 basechar 0
LayerCount: 2
Fore
SplineSet
228 723 m 1,0,-1
 228 0 l 1,1,-1
 77 0 l 1,2,-1
 77 723 l 1,3,-1
 228 723 l 1,0,-1
EndSplineSet
EndChar

StartChar: J
Encoding: 74 74 45
Width: 412
GlyphClass: 2
Flags: W
AnchorPoint: "Anchor-5" 0 0 basechar 0
AnchorPoint: "Anchor-4" 0 0 basechar 0
AnchorPoint: "Anchor-3" 225 723 basechar 0
AnchorPoint: "Anchor-2" 0 0 basechar 0
LayerCount: 2
Fore
SplineSet
319 83 m 128,-1,1
 303 37 303 37 262 13.5 c 128,-1,2
 221 -10 221 -10 147 -10 c 0,3,4
 115 -10 115 -10 78.5 -5 c 128,-1,5
 42 0 42 0 22 5 c 1,6,-1
 25 143 l 1,7,8
 32 142 32 142 53.5 136.5 c 128,-1,9
 75 131 75 131 98 131 c 0,10,11
 148 131 148 131 166 156.5 c 128,-1,12
 184 182 184 182 184 244 c 2,13,-1
 184 723 l 1,14,-1
 335 723 l 1,15,-1
 335 204 l 2,16,0
 335 129 335 129 319 83 c 128,-1,1
EndSplineSet
EndChar

StartChar: K
Encoding: 75 75 46
Width: 716
GlyphClass: 2
Flags: W
AnchorPoint: "Anchor-5" 0 0 basechar 0
AnchorPoint: "Anchor-4" 349 0 basechar 0
AnchorPoint: "Anchor-3" 358 723 basechar 0
AnchorPoint: "Anchor-2" 0 0 basechar 0
LayerCount: 2
Fore
SplineSet
528 0 m 1,0,-1
 339 334 l 1,1,-1
 234 206 l 1,2,-1
 234 0 l 1,3,-1
 77 0 l 1,4,-1
 77 723 l 1,5,-1
 234 723 l 1,6,-1
 234 396 l 1,7,-1
 492 723 l 1,8,-1
 665 723 l 1,9,-1
 448 444 l 1,10,-1
 692 0 l 1,11,-1
 528 0 l 1,0,-1
EndSplineSet
EndChar

StartChar: L
Encoding: 76 76 47
Width: 566
GlyphClass: 2
Flags: W
AnchorPoint: "Anchor-5" 464 723 basechar 0
AnchorPoint: "Anchor-4" 305 0 basechar 0
AnchorPoint: "Anchor-3" 147 723 basechar 0
AnchorPoint: "Anchor-2" 0 0 basechar 0
LayerCount: 2
Fore
SplineSet
229 723 m 1,0,-1
 229 127 l 1,1,-1
 541 127 l 1,2,-1
 541 0 l 1,3,-1
 77 0 l 1,4,-1
 77 723 l 1,5,-1
 229 723 l 1,0,-1
EndSplineSet
EndChar

StartChar: M
Encoding: 77 77 48
Width: 916
GlyphClass: 2
Flags: W
LayerCount: 2
Fore
SplineSet
77 723 m 1,0,-1
 297 723 l 1,1,-1
 458 215 l 1,2,-1
 620 723 l 1,3,-1
 839 723 l 1,4,-1
 839 0 l 1,5,-1
 687 0 l 1,6,-1
 687 550 l 1,7,-1
 516 0 l 1,8,-1
 399 0 l 1,9,-1
 229 548 l 1,10,-1
 229 0 l 1,11,-1
 77 0 l 1,12,-1
 77 723 l 1,0,-1
EndSplineSet
EndChar

StartChar: N
Encoding: 78 78 49
Width: 780
GlyphClass: 2
Flags: W
AnchorPoint: "Anchor-5" 0 0 basechar 0
AnchorPoint: "Anchor-4" 383 0 basechar 0
AnchorPoint: "Anchor-3" 394 723 basechar 0
AnchorPoint: "Anchor-2" 0 0 basechar 0
LayerCount: 2
Fore
SplineSet
703 723 m 1,0,-1
 703 0 l 1,1,-1
 567 0 l 1,2,-1
 228 491 l 1,3,-1
 228 0 l 1,4,-1
 77 0 l 1,5,-1
 77 723 l 1,6,-1
 227 723 l 1,7,-1
 552 252 l 1,8,-1
 552 723 l 1,9,-1
 703 723 l 1,0,-1
EndSplineSet
EndChar

StartChar: O
Encoding: 79 79 50
Width: 754
GlyphClass: 2
Flags: W
AnchorPoint: "Anchor-5" 0 0 basechar 0
AnchorPoint: "Anchor-4" 379 0 basechar 0
AnchorPoint: "Anchor-3" 378 723 basechar 0
AnchorPoint: "Anchor-2" 462 10 basechar 0
LayerCount: 2
Fore
SplineSet
199.5 34.5 m 128,-1,1
 124 79 124 79 83.5 162 c 128,-1,2
 43 245 43 245 43 359 c 0,3,4
 43 474 43 474 84.5 558.5 c 128,-1,5
 126 643 126 643 201.5 688 c 128,-1,6
 277 733 277 733 378 733 c 0,7,8
 478 733 478 733 553.5 688 c 128,-1,9
 629 643 629 643 670 558.5 c 128,-1,10
 711 474 711 474 711 360 c 0,11,12
 711 247 711 247 670.5 163.5 c 128,-1,13
 630 80 630 80 554.5 35 c 128,-1,14
 479 -10 479 -10 378 -10 c 0,15,0
 275 -10 275 -10 199.5 34.5 c 128,-1,1
547 358 m 0,16,17
 547 487 547 487 503 548 c 128,-1,18
 459 609 459 609 378 609 c 128,-1,19
 297 609 297 609 252.5 548 c 128,-1,20
 208 487 208 487 208 358 c 0,21,22
 208 232 208 232 252.5 173 c 128,-1,23
 297 114 297 114 378 114 c 0,24,25
 547 114 547 114 547 358 c 0,16,17
EndSplineSet
Substitution2: "Single Substitution lookup 30 subtable" ordmasculine
Substitution2: "'aalt' Access All Alternates in Latin lookup 0 subtable" ordmasculine
EndChar

StartChar: P
Encoding: 80 80 51
Width: 651
GlyphClass: 2
Flags: W
LayerCount: 2
Fore
SplineSet
77 723 m 1,0,-1
 345 723 l 2,1,2
 425 723 425 723 488 696.5 c 128,-1,3
 551 670 551 670 587 617.5 c 128,-1,4
 623 565 623 565 623 491 c 0,5,6
 623 385 623 385 553.5 326.5 c 128,-1,7
 484 268 484 268 365 268 c 2,8,-1
 229 268 l 1,9,-1
 229 0 l 1,10,-1
 77 0 l 1,11,-1
 77 723 l 1,0,-1
361 384 m 2,12,13
 414 384 414 384 448 416 c 128,-1,14
 482 448 482 448 482 499 c 0,15,16
 482 549 482 549 447 578.5 c 128,-1,17
 412 608 412 608 359 608 c 2,18,-1
 228 608 l 1,19,-1
 228 384 l 1,20,-1
 361 384 l 2,12,13
EndSplineSet
EndChar

StartChar: Q
Encoding: 81 81 52
Width: 759
GlyphClass: 2
Flags: W
LayerCount: 2
Fore
SplineSet
76.5 558.5 m 128,-1,1
 118 643 118 643 193.5 688 c 128,-1,2
 269 733 269 733 370 733 c 128,-1,3
 471 733 471 733 546.5 688 c 128,-1,4
 622 643 622 643 663 558.5 c 128,-1,5
 704 474 704 474 704 360 c 0,6,7
 704 163 704 163 585 63 c 1,8,9
 596 34 596 34 628 16 c 128,-1,10
 660 -2 660 -2 701 -3 c 1,11,-1
 701 -123 l 1,12,13
 646 -123 646 -123 605.5 -114.5 c 128,-1,14
 565 -106 565 -106 526.5 -80 c 128,-1,15
 488 -54 488 -54 452 -3 c 1,16,17
 404 -10 404 -10 370 -10 c 0,18,19
 268 -10 268 -10 192.5 34.5 c 128,-1,20
 117 79 117 79 76 162.5 c 128,-1,21
 35 246 35 246 35 360 c 128,-1,0
 35 474 35 474 76.5 558.5 c 128,-1,1
243.5 172.5 m 128,-1,23
 287 114 287 114 370 114 c 128,-1,24
 453 114 453 114 496 172.5 c 128,-1,25
 539 231 539 231 539 359 c 0,26,27
 539 609 539 609 370 609 c 0,28,29
 200 609 200 609 200 358 c 0,30,22
 200 231 200 231 243.5 172.5 c 128,-1,23
EndSplineSet
EndChar

StartChar: R
Encoding: 82 82 53
Width: 695
GlyphClass: 2
Flags: W
AnchorPoint: "Anchor-5" 0 0 basechar 0
AnchorPoint: "Anchor-4" 348 0 basechar 0
AnchorPoint: "Anchor-3" 339 723 basechar 0
AnchorPoint: "Anchor-2" 0 0 basechar 0
LayerCount: 2
Fore
SplineSet
486 0 m 1,0,-1
 370 276 l 1,1,-1
 228 276 l 1,2,-1
 228 0 l 1,3,-1
 77 0 l 1,4,-1
 77 723 l 1,5,-1
 385 723 l 2,6,7
 511 723 511 723 573 664.5 c 128,-1,8
 635 606 635 606 635 505 c 0,9,10
 635 426 635 426 601 378 c 128,-1,11
 567 330 567 330 509 301 c 1,12,-1
 642 0 l 1,13,-1
 486 0 l 1,0,-1
448.5 422 m 128,-1,15
 482 453 482 453 482 502 c 0,16,17
 482 550 482 550 450 579 c 128,-1,18
 418 608 418 608 368 608 c 2,19,-1
 228 608 l 1,20,-1
 228 391 l 1,21,-1
 359 391 l 2,22,14
 415 391 415 391 448.5 422 c 128,-1,15
EndSplineSet
EndChar

StartChar: S
Encoding: 83 83 54
Width: 696
GlyphClass: 2
Flags: W
AnchorPoint: "Anchor-5" 0 0 basechar 0
AnchorPoint: "Anchor-4" 348 0 basechar 0
AnchorPoint: "Anchor-3" 350 723 basechar 0
AnchorPoint: "Anchor-2" 0 0 basechar 0
LayerCount: 2
Fore
SplineSet
209 14 m 128,-1,1
 141 38 141 38 95.5 86.5 c 128,-1,2
 50 135 50 135 43 205 c 1,3,-1
 200 208 l 1,4,5
 210 160 210 160 251.5 134 c 128,-1,6
 293 108 293 108 353 108 c 0,7,8
 416 108 416 108 457 130.5 c 128,-1,9
 498 153 498 153 498 197 c 0,10,11
 498 234 498 234 466 253.5 c 128,-1,12
 434 273 434 273 374 285 c 2,13,-1
 248 310 l 2,14,15
 162 325 162 325 113 376.5 c 128,-1,16
 64 428 64 428 64 512 c 0,17,18
 64 578 64 578 101.5 628 c 128,-1,19
 139 678 139 678 204.5 705 c 128,-1,20
 270 732 270 732 350 732 c 0,21,22
 434 732 434 732 499 702 c 128,-1,23
 564 672 564 672 602 622 c 128,-1,24
 640 572 640 572 646 514 c 1,25,-1
 493 512 l 1,26,27
 479 613 479 613 352 613 c 0,28,29
 294 613 294 613 260 589 c 128,-1,30
 226 565 226 565 226 527 c 0,31,32
 226 495 226 495 247.5 475.5 c 128,-1,33
 269 456 269 456 325 444 c 2,34,-1
 450 419 l 2,35,36
 572 396 572 396 613 335 c 128,-1,37
 654 274 654 274 654 197 c 0,38,39
 654 139 654 139 616 91.5 c 128,-1,40
 578 44 578 44 509.5 17 c 128,-1,41
 441 -10 441 -10 353 -10 c 0,42,0
 277 -10 277 -10 209 14 c 128,-1,1
EndSplineSet
EndChar

StartChar: T
Encoding: 84 84 55
Width: 607
GlyphClass: 2
Flags: W
AnchorPoint: "Anchor-5" 0 0 basechar 0
AnchorPoint: "Anchor-4" 313 0 basechar 0
AnchorPoint: "Anchor-3" 313 723 basechar 0
AnchorPoint: "Anchor-2" 0 0 basechar 0
LayerCount: 2
Fore
SplineSet
13 723 m 1,0,-1
 594 723 l 1,1,-1
 594 589 l 1,2,-1
 381 589 l 1,3,-1
 381 0 l 1,4,-1
 230 0 l 1,5,-1
 230 589 l 1,6,-1
 13 589 l 1,7,-1
 13 723 l 1,0,-1
EndSplineSet
EndChar

StartChar: U
Encoding: 85 85 56
Width: 737
GlyphClass: 2
Flags: W
AnchorPoint: "Anchor-5" 0 0 basechar 0
AnchorPoint: "Anchor-4" 0 0 basechar 0
AnchorPoint: "Anchor-3" 356 723 basechar 0
AnchorPoint: "Anchor-2" 445 11 basechar 0
LayerCount: 2
Fore
SplineSet
591 64.5 m 128,-1,1
 522 -10 522 -10 369 -10 c 0,2,3
 215 -10 215 -10 146 65 c 128,-1,4
 77 140 77 140 77 282 c 2,5,-1
 77 723 l 1,6,-1
 231 723 l 1,7,-1
 231 272 l 2,8,9
 231 194 231 194 268 156 c 128,-1,10
 305 118 305 118 369 118 c 0,11,12
 432 118 432 118 470 156 c 128,-1,13
 508 194 508 194 508 272 c 2,14,-1
 508 723 l 1,15,-1
 660 723 l 1,16,-1
 660 278 l 2,17,0
 660 139 660 139 591 64.5 c 128,-1,1
EndSplineSet
EndChar

StartChar: V
Encoding: 86 86 57
Width: 685
GlyphClass: 2
Flags: W
LayerCount: 2
Fore
SplineSet
427 0 m 1,0,-1
 257 0 l 1,1,-1
 9 723 l 1,2,-1
 153 723 l 1,3,-1
 342 175 l 1,4,-1
 532 723 l 1,5,-1
 676 723 l 1,6,-1
 427 0 l 1,0,-1
EndSplineSet
EndChar

StartChar: W
Encoding: 87 87 58
Width: 966
GlyphClass: 2
Flags: W
AnchorPoint: "Anchor-5" 0 0 basechar 0
AnchorPoint: "Anchor-4" 0 0 basechar 0
AnchorPoint: "Anchor-3" 485 723 basechar 0
AnchorPoint: "Anchor-2" 0 0 basechar 0
LayerCount: 2
Fore
SplineSet
736 0 m 1,0,-1
 616 0 l 1,1,-1
 483 465 l 1,2,-1
 348 0 l 1,3,-1
 231 0 l 1,4,-1
 17 723 l 1,5,-1
 164 723 l 1,6,-1
 297 255 l 1,7,-1
 428 723 l 1,8,-1
 537 723 l 1,9,-1
 671 255 l 1,10,-1
 802 723 l 1,11,-1
 950 723 l 1,12,-1
 736 0 l 1,0,-1
EndSplineSet
EndChar

StartChar: X
Encoding: 88 88 59
Width: 701
GlyphClass: 2
Flags: W
LayerCount: 2
Fore
SplineSet
496 0 m 1,0,-1
 337 257 l 1,1,-1
 180 0 l 1,2,-1
 17 0 l 1,3,-1
 257 367 l 1,4,-1
 24 723 l 1,5,-1
 212 723 l 1,6,-1
 352 494 l 1,7,-1
 492 723 l 1,8,-1
 653 723 l 1,9,-1
 431 387 l 1,10,-1
 685 0 l 1,11,-1
 496 0 l 1,0,-1
EndSplineSet
EndChar

StartChar: Y
Encoding: 89 89 60
Width: 662
GlyphClass: 2
Flags: W
AnchorPoint: "Anchor-5" 0 0 basechar 0
AnchorPoint: "Anchor-4" 0 0 basechar 0
AnchorPoint: "Anchor-3" 347 723 basechar 0
AnchorPoint: "Anchor-2" 0 0 basechar 0
LayerCount: 2
Fore
SplineSet
406 304 m 1,0,-1
 406 0 l 1,1,-1
 255 0 l 1,2,-1
 255 304 l 1,3,-1
 4 723 l 1,4,-1
 167 723 l 1,5,-1
 331 434 l 1,6,-1
 493 723 l 1,7,-1
 658 723 l 1,8,-1
 406 304 l 1,0,-1
EndSplineSet
EndChar

StartChar: Z
Encoding: 90 90 61
Width: 667
GlyphClass: 2
Flags: W
AnchorPoint: "Anchor-5" 0 0 basechar 0
AnchorPoint: "Anchor-4" 341 0 basechar 0
AnchorPoint: "Anchor-3" 355 723 basechar 0
AnchorPoint: "Anchor-2" 0 0 basechar 0
LayerCount: 2
Fore
SplineSet
45 73 m 1,0,-1
 410 597 l 1,1,-1
 71 597 l 1,2,-1
 71 723 l 1,3,-1
 625 723 l 1,4,-1
 625 653 l 1,5,-1
 255 127 l 1,6,-1
 621 127 l 1,7,-1
 621 0 l 1,8,-1
 45 0 l 1,9,-1
 45 73 l 1,0,-1
EndSplineSet
EndChar

StartChar: bracketleft
Encoding: 91 91 62
Width: 333
GlyphClass: 2
Flags: W
LayerCount: 2
Fore
SplineSet
303 723 m 1,0,-1
 303 638 l 1,1,-1
 193 638 l 1,2,-1
 193 -76 l 1,3,-1
 302 -76 l 1,4,-1
 302 -161 l 1,5,-1
 70 -161 l 1,6,-1
 70 723 l 1,7,-1
 303 723 l 1,0,-1
EndSplineSet
EndChar

StartChar: backslash
Encoding: 92 92 63
Width: 378
GlyphClass: 2
Flags: W
LayerCount: 2
Fore
SplineSet
5 723 m 1,0,-1
 109 723 l 1,1,-1
 362 -17 l 1,2,-1
 257 -17 l 1,3,-1
 5 723 l 1,0,-1
EndSplineSet
EndChar

StartChar: bracketright
Encoding: 93 93 64
Width: 338
GlyphClass: 2
Flags: W
LayerCount: 2
Fore
SplineSet
16 723 m 1,0,-1
 16 638 l 1,1,-1
 126 638 l 1,2,-1
 126 -76 l 1,3,-1
 17 -76 l 1,4,-1
 17 -161 l 1,5,-1
 249 -161 l 1,6,-1
 249 723 l 1,7,-1
 16 723 l 1,0,-1
EndSplineSet
EndChar

StartChar: asciicircum
Encoding: 94 94 65
Width: 481
GlyphClass: 2
Flags: W
LayerCount: 2
Fore
SplineSet
235 374 m 1,0,-1
 133 122 l 1,1,-1
 32 122 l 1,2,-1
 188 491 l 2,3,4
 195 508 195 508 208 517 c 128,-1,5
 221 526 221 526 236 526 c 128,-1,6
 251 526 251 526 263.5 517.5 c 128,-1,7
 276 509 276 509 283 492 c 2,8,-1
 439 122 l 1,9,-1
 338 122 l 1,10,-1
 235 374 l 1,0,-1
EndSplineSet
EndChar

StartChar: underscore
Encoding: 95 95 66
Width: 552
GlyphClass: 2
Flags: W
LayerCount: 2
Fore
SplineSet
491 -140 m 1,0,-1
 54 -140 l 1,1,-1
 54 -31 l 1,2,-1
 491 -31 l 1,3,-1
 491 -140 l 1,0,-1
EndSplineSet
EndChar

StartChar: grave
Encoding: 96 96 67
Width: 315
GlyphClass: 2
Flags: W
LayerCount: 2
Fore
SplineSet
297 631 m 1,0,-1
 276 567 l 1,1,-1
 9 636 l 1,2,-1
 44 734 l 1,3,-1
 297 631 l 1,0,-1
EndSplineSet
EndChar

StartChar: a
Encoding: 97 97 68
Width: 573
GlyphClass: 2
Flags: W
AnchorPoint: "Anchor-5" 0 0 basechar 0
AnchorPoint: "Anchor-4" 0 0 basechar 0
AnchorPoint: "Anchor-3" 287 517 basechar 0
AnchorPoint: "Anchor-2" 485 11 basechar 0
LayerCount: 2
Fore
SplineSet
84 32.5 m 128,-1,1
 35 75 35 75 35 149 c 0,2,3
 35 234 35 234 99.5 277 c 128,-1,4
 164 320 164 320 300 323 c 2,5,-1
 363 326 l 1,6,-1
 363 354 l 2,7,8
 363 389 363 389 342 407.5 c 128,-1,9
 321 426 321 426 281 426 c 0,10,11
 249 425 249 425 221 410.5 c 128,-1,12
 193 396 193 396 176 366 c 1,13,-1
 53 372 l 1,14,15
 65 449 65 449 128.5 488 c 128,-1,16
 192 527 192 527 288 527 c 0,17,18
 507 527 507 527 507 364 c 2,19,-1
 507 0 l 1,20,-1
 381 0 l 1,21,-1
 370 66 l 1,22,23
 346 31 346 31 304.5 10.5 c 128,-1,24
 263 -10 263 -10 210 -10 c 0,25,0
 133 -10 133 -10 84 32.5 c 128,-1,1
330.5 114.5 m 128,-1,27
 362 140 362 140 363 173 c 2,28,-1
 363 247 l 1,29,-1
 312 244 l 2,30,31
 251 241 251 241 214.5 223.5 c 128,-1,32
 178 206 178 206 178 164 c 0,33,34
 178 130 178 130 201.5 109.5 c 128,-1,35
 225 89 225 89 261 89 c 0,36,26
 299 89 299 89 330.5 114.5 c 128,-1,27
EndSplineSet
Substitution2: "Single Substitution lookup 30 subtable" ordfeminine
Substitution2: "'aalt' Access All Alternates in Latin lookup 0 subtable" ordfeminine
EndChar

StartChar: b
Encoding: 98 98 69
Width: 608
GlyphClass: 2
Flags: W
LayerCount: 2
Fore
SplineSet
252 14 m 128,-1,1
 208 38 208 38 189 74 c 1,2,-1
 174 0 l 1,3,-1
 66 0 l 1,4,-1
 66 743 l 1,5,-1
 217 743 l 1,6,-1
 217 442 l 1,7,8
 239 479 239 479 279.5 503 c 128,-1,9
 320 527 320 527 369 527 c 0,10,11
 467 527 467 527 520 455 c 128,-1,12
 573 383 573 383 573 261 c 0,13,14
 573 135 573 135 515 62.5 c 128,-1,15
 457 -10 457 -10 351 -10 c 0,16,0
 296 -10 296 -10 252 14 c 128,-1,1
391 138 m 128,-1,18
 420 178 420 178 420 263 c 0,19,20
 420 418 420 418 317 418 c 0,21,22
 277 418 277 418 251 389.5 c 128,-1,23
 225 361 225 361 217 304 c 1,24,-1
 217 238 l 2,25,26
 217 172 217 172 244 135 c 128,-1,27
 271 98 271 98 313 98 c 0,28,17
 362 98 362 98 391 138 c 128,-1,18
EndSplineSet
EndChar

StartChar: c
Encoding: 99 99 70
Width: 536
GlyphClass: 2
Flags: W
AnchorPoint: "Anchor-5" 0 0 basechar 0
AnchorPoint: "Anchor-4" 284 0 basechar 0
AnchorPoint: "Anchor-3" 284 517 basechar 0
AnchorPoint: "Anchor-2" 0 0 basechar 0
LayerCount: 2
Fore
SplineSet
432.5 473 m 128,-1,1
 488 419 488 419 500 337 c 1,2,-1
 377 331 l 1,3,4
 359 371 359 371 340.5 392 c 128,-1,5
 322 413 322 413 287 413 c 0,6,7
 235 413 235 413 204.5 372 c 128,-1,8
 174 331 174 331 174 258 c 0,9,10
 174 184 174 184 205.5 140.5 c 128,-1,11
 237 97 237 97 289 97 c 0,12,13
 325 97 325 97 345.5 120.5 c 128,-1,14
 366 144 366 144 381 181 c 1,15,-1
 500 175 l 1,16,17
 490 95 490 95 432.5 42.5 c 128,-1,18
 375 -10 375 -10 285 -10 c 0,19,20
 213 -10 213 -10 155.5 23.5 c 128,-1,21
 98 57 98 57 66 117.5 c 128,-1,22
 34 178 34 178 34 256 c 0,23,24
 34 335 34 335 66 396.5 c 128,-1,25
 98 458 98 458 155 492.5 c 128,-1,26
 212 527 212 527 285 527 c 0,27,0
 377 527 377 527 432.5 473 c 128,-1,1
EndSplineSet
EndChar

StartChar: d
Encoding: 100 100 71
Width: 605
GlyphClass: 2
Flags: W
AnchorPoint: "Anchor-5" 583 575 basechar 0
AnchorPoint: "Anchor-4" 293 0 basechar 0
AnchorPoint: "Anchor-3" 0 0 basechar 0
AnchorPoint: "Anchor-2" 0 0 basechar 0
LayerCount: 2
Fore
SplineSet
92 61 m 128,-1,1
 34 132 34 132 34 258 c 0,2,3
 34 382 34 382 89 454.5 c 128,-1,4
 144 527 144 527 241 527 c 0,5,6
 285 527 285 527 323.5 510.5 c 128,-1,7
 362 494 362 494 388 459 c 1,8,-1
 388 743 l 1,9,-1
 539 743 l 1,10,-1
 539 0 l 1,11,-1
 430 0 l 1,12,-1
 419 71 l 1,13,14
 398 39 398 39 355.5 14.5 c 128,-1,15
 313 -10 313 -10 253 -10 c 0,16,0
 150 -10 150 -10 92 61 c 128,-1,1
359.5 131.5 m 128,-1,18
 388 165 388 165 388 218 c 2,19,-1
 388 321 l 1,20,21
 369 418 369 418 289 418 c 0,22,23
 240 418 240 418 210.5 380.5 c 128,-1,24
 181 343 181 343 181 261 c 0,25,26
 181 177 181 177 210.5 137.5 c 128,-1,27
 240 98 240 98 288 98 c 0,28,17
 331 98 331 98 359.5 131.5 c 128,-1,18
EndSplineSet
EndChar

StartChar: e
Encoding: 101 101 72
Width: 562
GlyphClass: 2
Flags: W
AnchorPoint: "Anchor-5" 0 0 basechar 0
AnchorPoint: "Anchor-4" 286 0 basechar 0
AnchorPoint: "Anchor-3" 286 517 basechar 0
AnchorPoint: "Anchor-2" 404 23 basechar 0
LayerCount: 2
Fore
SplineSet
212 132.5 m 128,-1,1
 241 99 241 99 291 99 c 0,2,3
 367 99 367 99 392 161 c 1,4,-1
 526 156 l 1,5,6
 516 106 516 106 482 68.5 c 128,-1,7
 448 31 448 31 398.5 10.5 c 128,-1,8
 349 -10 349 -10 294 -10 c 0,9,10
 217 -10 217 -10 158 22.5 c 128,-1,11
 99 55 99 55 66.5 114.5 c 128,-1,12
 34 174 34 174 34 253 c 0,13,14
 34 331 34 331 64 393 c 128,-1,15
 94 455 94 455 151.5 491 c 128,-1,16
 209 527 209 527 286 527 c 0,17,18
 402 527 402 527 464.5 455 c 128,-1,19
 527 383 527 383 527 264 c 2,20,-1
 527 224 l 1,21,-1
 183 224 l 1,22,0
 183 166 183 166 212 132.5 c 128,-1,1
387 313 m 1,23,24
 387 360 387 360 360.5 391 c 128,-1,25
 334 422 334 422 285 422 c 0,26,27
 239 422 239 422 211 389.5 c 128,-1,28
 183 357 183 357 183 313 c 1,29,-1
 387 313 l 1,23,24
EndSplineSet
EndChar

StartChar: f
Encoding: 102 102 73
Width: 404
GlyphClass: 2
Flags: W
LayerCount: 2
Fore
SplineSet
374 413 m 1,0,-1
 266 413 l 1,1,-1
 266 0 l 1,2,-1
 115 0 l 1,3,-1
 115 413 l 1,4,-1
 21 413 l 1,5,-1
 21 517 l 1,6,-1
 115 517 l 1,7,-1
 115 591 l 2,8,9
 115 653 115 653 152.5 688 c 128,-1,10
 190 723 190 723 258 723 c 2,11,-1
 378 723 l 1,12,-1
 379 623 l 1,13,-1
 312 623 l 2,14,15
 285 623 285 623 274.5 610 c 128,-1,16
 264 597 264 597 264 565 c 2,17,-1
 264 517 l 1,18,-1
 374 517 l 1,19,-1
 374 413 l 1,0,-1
EndSplineSet
EndChar

StartChar: g
Encoding: 103 103 74
Width: 632
GlyphClass: 2
Flags: W
AnchorPoint: "Anchor-5" 0 0 basechar 0
AnchorPoint: "Anchor-4" 0 0 basechar 0
AnchorPoint: "Anchor-3" 310 517 basechar 0
AnchorPoint: "Anchor-2" 0 0 basechar 0
LayerCount: 2
Fore
SplineSet
98 -136.5 m 128,-1,1
 25 -102 25 -102 25 -45 c 0,2,3
 25 -6 25 -6 53.5 15 c 128,-1,4
 82 36 82 36 102 43 c 128,-1,5
 122 50 122 50 125 51 c 1,6,7
 121 53 121 53 103.5 62.5 c 128,-1,8
 86 72 86 72 73.5 89 c 128,-1,9
 61 106 61 106 61 129 c 0,10,11
 61 158 61 158 88.5 181 c 128,-1,12
 116 204 116 204 168 213 c 1,13,14
 116 238 116 238 89.5 277.5 c 128,-1,15
 63 317 63 317 63 363 c 0,16,17
 63 439 63 439 133 482 c 128,-1,18
 203 525 203 525 310 525 c 0,19,20
 359 525 359 525 393.5 515 c 128,-1,21
 428 505 428 505 460 485 c 1,22,23
 519 507 519 507 614 546 c 1,24,-1
 613 431 l 1,25,-1
 524 417 l 1,26,27
 528 404 528 404 531.5 388 c 128,-1,28
 535 372 535 372 535 364 c 0,29,30
 535 319 535 319 508 279.5 c 128,-1,31
 481 240 481 240 427.5 216 c 128,-1,32
 374 192 374 192 299 192 c 2,33,-1
 247 194 l 1,34,35
 199 191 199 191 199 174 c 0,36,37
 199 163 199 163 219 159 c 128,-1,38
 239 155 239 155 289 152 c 0,39,40
 332 149 332 149 349 148 c 2,41,-1
 396 145 l 2,42,43
 491 139 491 139 538.5 99 c 128,-1,44
 586 59 586 59 586 -3 c 0,45,46
 586 -79 586 -79 513.5 -125 c 128,-1,47
 441 -171 441 -171 308 -171 c 0,48,0
 171 -171 171 -171 98 -136.5 c 128,-1,1
369.5 298 m 128,-1,50
 393 320 393 320 393 358 c 0,51,52
 393 397 393 397 369 421.5 c 128,-1,53
 345 446 345 446 304 446 c 128,-1,54
 263 446 263 446 238.5 421.5 c 128,-1,55
 214 397 214 397 214 358 c 0,56,57
 214 320 214 320 238 298 c 128,-1,58
 262 276 262 276 304 276 c 128,-1,49
 346 276 346 276 369.5 298 c 128,-1,50
417 -73.5 m 128,-1,60
 442 -60 442 -60 442 -32 c 0,61,62
 442 16 442 16 365 22 c 2,63,-1
 249 29 l 2,64,65
 215 31 215 31 193.5 14 c 128,-1,66
 172 -3 172 -3 172 -27 c 0,67,68
 172 -59 172 -59 211 -73 c 128,-1,69
 250 -87 250 -87 332 -87 c 0,70,59
 392 -87 392 -87 417 -73.5 c 128,-1,60
EndSplineSet
EndChar

StartChar: h
Encoding: 104 104 75
Width: 609
GlyphClass: 2
Flags: W
AnchorPoint: "Anchor-5" 0 0 basechar 0
AnchorPoint: "Anchor-4" 308 0 basechar 0
AnchorPoint: "Anchor-3" 412 517 basechar 0
AnchorPoint: "Anchor-2" 0 0 basechar 0
LayerCount: 2
Fore
SplineSet
66 743 m 1,0,-1
 214 743 l 1,1,-1
 214 449 l 1,2,3
 242 475 242 475 260.5 489 c 128,-1,4
 279 503 279 503 305.5 511.5 c 128,-1,5
 332 520 332 520 369 520 c 0,6,7
 418 520 418 520 458 499.5 c 128,-1,8
 498 479 498 479 521 441.5 c 128,-1,9
 544 404 544 404 544 356 c 2,10,-1
 544 0 l 1,11,-1
 392 0 l 1,12,-1
 392 336 l 2,13,14
 392 367 392 367 370.5 385 c 128,-1,15
 349 403 349 403 315 403 c 0,16,17
 284 403 284 403 259 387.5 c 128,-1,18
 234 372 234 372 217 343 c 1,19,-1
 217 0 l 1,20,-1
 66 0 l 1,21,-1
 66 743 l 1,0,-1
EndSplineSet
EndChar

StartChar: i
Encoding: 105 105 76
Width: 285
GlyphClass: 2
Flags: W
LayerCount: 2
Fore
SplineSet
219 598 m 1,0,-1
 66 598 l 1,1,-1
 66 743 l 1,2,-1
 219 743 l 1,3,-1
 219 598 l 1,0,-1
218 0 m 1,4,-1
 67 0 l 1,5,-1
 67 517 l 1,6,-1
 218 517 l 1,7,-1
 218 0 l 1,4,-1
EndSplineSet
Substitution2: "Single Substitution lookup 28 subtable" dotlessi
Substitution2: "'locl' Localized Forms in Latin lookup 10 subtable" i.loclTRK
Substitution2: "'locl' Localized Forms in Latin lookup 9 subtable" i.loclTRK
Substitution2: "'locl' Localized Forms in Latin lookup 8 subtable" i.loclTRK
Substitution2: "'locl' Localized Forms in Latin lookup 7 subtable" i.loclTRK
Substitution2: "'locl' Localized Forms in Latin lookup 6 subtable" i.loclTRK
AlternateSubs2: "'aalt' Access All Alternates in Latin lookup 1 subtable" dotlessi i.loclTRK
EndChar

StartChar: j
Encoding: 106 106 77
Width: 295
GlyphClass: 2
Flags: W
LayerCount: 2
Fore
SplineSet
226 598 m 1,0,-1
 72 598 l 1,1,-1
 72 743 l 1,2,-1
 226 743 l 1,3,-1
 226 598 l 1,0,-1
181.5 -123.5 m 128,-1,5
 139 -166 139 -166 47 -166 c 0,6,7
 23 -166 23 -166 8.5 -162.5 c 128,-1,8
 -6 -159 -6 -159 -12 -155.5 c 128,-1,9
 -18 -152 -18 -152 -19 -151 c 2,10,-1
 -20 -51 l 1,11,-1
 19 -47 l 2,12,13
 50 -43 50 -43 61.5 -30.5 c 128,-1,14
 73 -18 73 -18 73 7 c 2,15,-1
 73 517 l 1,16,-1
 224 517 l 1,17,-1
 224 6 l 2,18,4
 224 -81 224 -81 181.5 -123.5 c 128,-1,5
EndSplineSet
Substitution2: "Single Substitution lookup 28 subtable" uni0237
Substitution2: "'aalt' Access All Alternates in Latin lookup 0 subtable" uni0237
EndChar

StartChar: k
Encoding: 107 107 78
Width: 592
GlyphClass: 2
Flags: W
AnchorPoint: "Anchor-5" 0 0 basechar 0
AnchorPoint: "Anchor-4" 297 0 basechar 0
AnchorPoint: "Anchor-3" 0 0 basechar 0
AnchorPoint: "Anchor-2" 0 0 basechar 0
LayerCount: 2
Fore
SplineSet
420 0 m 1,0,-1
 282 220 l 1,1,-1
 217 149 l 1,2,-1
 217 0 l 1,3,-1
 66 0 l 1,4,-1
 66 743 l 1,5,-1
 217 743 l 1,6,-1
 217 299 l 1,7,-1
 410 517 l 1,8,-1
 563 517 l 1,9,-1
 376 310 l 1,10,-1
 569 0 l 1,11,-1
 420 0 l 1,0,-1
EndSplineSet
EndChar

StartChar: l
Encoding: 108 108 79
Width: 324
GlyphClass: 2
Flags: W
AnchorPoint: "Anchor-5" 354 753 basechar 0
AnchorPoint: "Anchor-4" 130 0 basechar 0
AnchorPoint: "Anchor-3" 140 764 basechar 0
AnchorPoint: "Anchor-2" 0 0 basechar 0
LayerCount: 2
Fore
SplineSet
124 14 m 128,-1,1
 87 36 87 36 76.5 68.5 c 128,-1,2
 66 101 66 101 66 148 c 2,3,-1
 66 743 l 1,4,-1
 214 743 l 1,5,-1
 214 166 l 2,6,7
 214 136 214 136 227 119.5 c 128,-1,8
 240 103 240 103 272 99 c 2,9,-1
 296 98 l 1,10,-1
 296 5 l 1,11,12
 259 -8 259 -8 234 -8 c 0,13,0
 161 -8 161 -8 124 14 c 128,-1,1
EndSplineSet
Substitution2: "'ss01' Style Set 1 in Latin lookup 27 subtable" l.ss01
Substitution2: "'salt' Stylistic Alternatives in Latin lookup 26 subtable" l.ss01
Substitution2: "'aalt' Access All Alternates in Latin lookup 0 subtable" l.ss01
EndChar

StartChar: m
Encoding: 109 109 80
Width: 925
GlyphClass: 2
Flags: W
LayerCount: 2
Fore
SplineSet
66 517 m 1,0,-1
 214 517 l 1,1,-1
 214 451 l 1,2,3
 290 527 290 527 379 527 c 0,4,5
 426 527 426 527 466.5 508.5 c 128,-1,6
 507 490 507 490 529 451 c 1,7,8
 555 486 555 486 598 506.5 c 128,-1,9
 641 527 641 527 688 527 c 0,10,11
 731 527 731 527 770 508.5 c 128,-1,12
 809 490 809 490 834 451.5 c 128,-1,13
 859 413 859 413 859 356 c 2,14,-1
 859 0 l 1,15,-1
 708 0 l 1,16,-1
 708 339 l 2,17,18
 708 379 708 379 685 398 c 128,-1,19
 662 417 662 417 626 417 c 0,20,21
 581 417 581 417 559 394 c 128,-1,22
 537 371 537 371 537 324 c 2,23,-1
 537 0 l 1,24,-1
 387 0 l 1,25,-1
 387 351 l 2,26,27
 387 382 387 382 362.5 399.5 c 128,-1,28
 338 417 338 417 304 417 c 128,-1,29
 270 417 270 417 243.5 398.5 c 128,-1,30
 217 380 217 380 217 346 c 2,31,-1
 217 0 l 1,32,-1
 66 0 l 1,33,-1
 66 517 l 1,0,-1
EndSplineSet
EndChar

StartChar: n
Encoding: 110 110 81
Width: 610
GlyphClass: 2
Flags: W
AnchorPoint: "Anchor-5" 0 0 basechar 0
AnchorPoint: "Anchor-4" 305 0 basechar 0
AnchorPoint: "Anchor-3" 308 517 basechar 0
AnchorPoint: "Anchor-2" 0 0 basechar 0
LayerCount: 2
Fore
SplineSet
66 517 m 1,0,-1
 214 517 l 1,1,-1
 214 451 l 1,2,3
 242 485 242 485 274.5 503 c 128,-1,4
 307 521 307 521 363 521 c 0,5,6
 411 521 411 521 452.5 499 c 128,-1,7
 494 477 494 477 519 437 c 128,-1,8
 544 397 544 397 544 345 c 2,9,-1
 544 0 l 1,10,-1
 393 0 l 1,11,-1
 393 326 l 2,12,13
 393 362 393 362 369.5 382.5 c 128,-1,14
 346 403 346 403 310 403 c 0,15,16
 272 403 272 403 244.5 384.5 c 128,-1,17
 217 366 217 366 217 333 c 2,18,-1
 217 0 l 1,19,-1
 66 0 l 1,20,-1
 66 517 l 1,0,-1
EndSplineSet
EndChar

StartChar: o
Encoding: 111 111 82
Width: 571
GlyphClass: 2
Flags: W
AnchorPoint: "Anchor-5" 0 0 basechar 0
AnchorPoint: "Anchor-4" 283 0 basechar 0
AnchorPoint: "Anchor-3" 286 517 basechar 0
AnchorPoint: "Anchor-2" 358 10 basechar 0
LayerCount: 2
Fore
SplineSet
152 23.5 m 128,-1,1
 95 57 95 57 64.5 117 c 128,-1,2
 34 177 34 177 34 255 c 0,3,4
 34 335 34 335 65.5 397 c 128,-1,5
 97 459 97 459 154 493 c 128,-1,6
 211 527 211 527 286 527 c 0,7,8
 362 527 362 527 419 492.5 c 128,-1,9
 476 458 476 458 506.5 396.5 c 128,-1,10
 537 335 537 335 537 256 c 0,11,12
 537 178 537 178 506.5 117.5 c 128,-1,13
 476 57 476 57 419 23.5 c 128,-1,14
 362 -10 362 -10 285 -10 c 0,15,0
 209 -10 209 -10 152 23.5 c 128,-1,1
365 147.5 m 128,-1,17
 389 193 389 193 389 261 c 0,18,19
 389 328 389 328 364.5 372 c 128,-1,20
 340 416 340 416 286 416 c 0,21,22
 231 416 231 416 206.5 372 c 128,-1,23
 182 328 182 328 182 261 c 128,-1,24
 182 194 182 194 206.5 148 c 128,-1,25
 231 102 231 102 286 102 c 128,-1,16
 341 102 341 102 365 147.5 c 128,-1,17
EndSplineSet
Substitution2: "Single Substitution lookup 30 subtable" ordmasculine
Substitution2: "'aalt' Access All Alternates in Latin lookup 0 subtable" ordmasculine
EndChar

StartChar: p
Encoding: 112 112 83
Width: 607
GlyphClass: 2
Flags: W
LayerCount: 2
Fore
SplineSet
66 517 m 1,0,-1
 217 517 l 1,1,-1
 217 452 l 1,2,3
 242 487 242 487 280.5 507 c 128,-1,4
 319 527 319 527 367 527 c 0,5,6
 425 527 425 527 471.5 497.5 c 128,-1,7
 518 468 518 468 545.5 408.5 c 128,-1,8
 573 349 573 349 573 262 c 0,9,10
 573 172 573 172 542.5 110.5 c 128,-1,11
 512 49 512 49 461.5 19.5 c 128,-1,12
 411 -10 411 -10 349 -10 c 0,13,14
 260 -10 260 -10 217 56 c 1,15,-1
 217 -161 l 1,16,-1
 66 -161 l 1,17,-1
 66 517 l 1,0,-1
400 140.5 m 128,-1,19
 432 183 432 183 432 261 c 0,20,21
 432 335 432 335 399.5 376.5 c 128,-1,22
 367 418 367 418 321 418 c 0,23,24
 293 418 293 418 269 402.5 c 128,-1,25
 245 387 245 387 231 363 c 128,-1,26
 217 339 217 339 217 315 c 2,27,-1
 217 187 l 1,28,29
 227 148 227 148 255.5 123 c 128,-1,30
 284 98 284 98 319 98 c 0,31,18
 368 98 368 98 400 140.5 c 128,-1,19
EndSplineSet
EndChar

StartChar: q
Encoding: 113 113 84
Width: 608
GlyphClass: 2
Flags: W
LayerCount: 2
Fore
SplineSet
391 -161 m 1,0,-1
 391 49 l 1,1,2
 356 17 356 17 321 3.5 c 128,-1,3
 286 -10 286 -10 248 -10 c 0,4,5
 153 -10 153 -10 93.5 58.5 c 128,-1,6
 34 127 34 127 34 262 c 0,7,8
 34 349 34 349 61.5 408.5 c 128,-1,9
 89 468 89 468 136 497.5 c 128,-1,10
 183 527 183 527 241 527 c 0,11,12
 323 527 323 527 391 467 c 1,13,-1
 391 517 l 1,14,-1
 542 517 l 1,15,-1
 542 -161 l 1,16,-1
 391 -161 l 1,0,-1
357 124.5 m 128,-1,18
 381 158 381 158 391 218 c 1,19,-1
 391 290 l 2,20,21
 391 352 391 352 365 388.5 c 128,-1,22
 339 425 339 425 295 425 c 0,23,24
 248 425 248 425 217.5 384 c 128,-1,25
 187 343 187 343 187 264 c 128,-1,26
 187 185 187 185 218 138 c 128,-1,27
 249 91 249 91 297 91 c 0,28,17
 333 91 333 91 357 124.5 c 128,-1,18
EndSplineSet
EndChar

StartChar: r
Encoding: 114 114 85
Width: 423
GlyphClass: 2
Flags: W
AnchorPoint: "Anchor-5" 0 0 basechar 0
AnchorPoint: "Anchor-4" 149 0 basechar 0
AnchorPoint: "Anchor-3" 230 517 basechar 0
AnchorPoint: "Anchor-2" 0 0 basechar 0
LayerCount: 2
Fore
SplineSet
66 517 m 1,0,-1
 211 517 l 1,1,-1
 211 388 l 1,2,3
 233 449 233 449 280.5 488 c 128,-1,4
 328 527 328 527 391 527 c 1,5,-1
 392 384 l 1,6,7
 382 385 382 385 363 385 c 0,8,9
 289 385 289 385 253 352.5 c 128,-1,10
 217 320 217 320 217 274 c 2,11,-1
 217 0 l 1,12,-1
 66 0 l 1,13,-1
 66 517 l 1,0,-1
EndSplineSet
EndChar

StartChar: s
Encoding: 115 115 86
Width: 519
GlyphClass: 2
Flags: W
AnchorPoint: "Anchor-5" 0 0 basechar 0
AnchorPoint: "Anchor-4" 263 0 basechar 0
AnchorPoint: "Anchor-3" 262 517 basechar 0
AnchorPoint: "Anchor-2" 0 0 basechar 0
LayerCount: 2
Fore
SplineSet
110 30.5 m 128,-1,1
 45 71 45 71 31 152 c 1,2,-1
 156 157 l 1,3,4
 168 121 168 121 196 107 c 128,-1,5
 224 93 224 93 265 93 c 0,6,7
 308 93 308 93 333.5 107 c 128,-1,8
 359 121 359 121 359 145 c 0,9,10
 359 165 359 165 342 177.5 c 128,-1,11
 325 190 325 190 290 198 c 2,12,-1
 201 215 l 2,13,14
 48 245 48 245 47 363 c 0,15,16
 47 411 47 411 73 448 c 128,-1,17
 99 485 99 485 148.5 506 c 128,-1,18
 198 527 198 527 266 527 c 0,19,20
 366 527 366 527 425 482.5 c 128,-1,21
 484 438 484 438 483 365 c 1,22,-1
 358 362 l 1,23,24
 345 428 345 428 262 428 c 0,25,26
 180 428 180 428 180 374 c 0,27,28
 180 357 180 357 198.5 345 c 128,-1,29
 217 333 217 333 262 324 c 2,30,-1
 344 306 l 2,31,32
 424 287 424 287 456 243 c 128,-1,33
 488 199 488 199 488 153 c 0,34,35
 488 77 488 77 425 33.5 c 128,-1,36
 362 -10 362 -10 263 -10 c 0,37,0
 175 -10 175 -10 110 30.5 c 128,-1,1
EndSplineSet
EndChar

StartChar: t
Encoding: 116 116 87
Width: 426
GlyphClass: 2
Flags: W
AnchorPoint: "Anchor-5" 411 778 basechar 0
AnchorPoint: "Anchor-4" 263 0 basechar 0
AnchorPoint: "Anchor-3" 0 0 basechar 0
AnchorPoint: "Anchor-2" 0 0 basechar 0
LayerCount: 2
Fore
SplineSet
265 413 m 1,0,-1
 265 143 l 2,1,2
 265 117 265 117 275 107.5 c 128,-1,3
 285 98 285 98 304 98 c 2,4,-1
 381 98 l 1,5,-1
 381 7 l 1,6,7
 351 -6 351 -6 289 -6 c 0,8,9
 191 -6 191 -6 152.5 30.5 c 128,-1,10
 114 67 114 67 114 135 c 2,11,-1
 114 413 l 1,12,-1
 30 413 l 1,13,-1
 30 517 l 1,14,-1
 119 517 l 1,15,-1
 140 682 l 1,16,-1
 265 682 l 1,17,-1
 265 518 l 1,18,-1
 379 518 l 1,19,-1
 379 413 l 1,20,-1
 265 413 l 1,0,-1
EndSplineSet
EndChar

StartChar: u
Encoding: 117 117 88
Width: 610
GlyphClass: 2
Flags: W
AnchorPoint: "Anchor-5" 0 0 basechar 0
AnchorPoint: "Anchor-4" 305 0 basechar 0
AnchorPoint: "Anchor-3" 301 517 basechar 0
AnchorPoint: "Anchor-2" 519 10 basechar 0
LayerCount: 2
Fore
SplineSet
168.5 10 m 128,-1,1
 124 29 124 29 95 67 c 128,-1,2
 66 105 66 105 66 159 c 2,3,-1
 66 518 l 1,4,-1
 217 518 l 1,5,-1
 217 178 l 2,6,7
 217 140 217 140 241.5 119.5 c 128,-1,8
 266 99 266 99 303 99 c 0,9,10
 341 99 341 99 366 121 c 128,-1,11
 391 143 391 143 392 181 c 2,12,-1
 392 518 l 1,13,-1
 544 518 l 1,14,-1
 541 0 l 1,15,-1
 428 0 l 1,16,-1
 418 73 l 1,17,18
 397 35 397 35 350.5 12.5 c 128,-1,19
 304 -10 304 -10 258 -10 c 0,20,0
 213 -9 213 -9 168.5 10 c 128,-1,1
EndSplineSet
EndChar

StartChar: v
Encoding: 118 118 89
Width: 554
GlyphClass: 2
Flags: W
LayerCount: 2
Fore
SplineSet
328 0 m 1,0,-1
 226 0 l 1,1,-1
 16 517 l 1,2,-1
 152 517 l 1,3,-1
 278 195 l 1,4,-1
 401 517 l 1,5,-1
 538 517 l 1,6,-1
 328 0 l 1,0,-1
EndSplineSet
EndChar

StartChar: w
Encoding: 119 119 90
Width: 796
GlyphClass: 2
Flags: W
AnchorPoint: "Anchor-5" 0 0 basechar 0
AnchorPoint: "Anchor-4" 0 0 basechar 0
AnchorPoint: "Anchor-3" 402 517 basechar 0
AnchorPoint: "Anchor-2" 0 0 basechar 0
LayerCount: 2
Fore
SplineSet
607 0 m 1,0,-1
 492 0 l 1,1,-1
 396 307 l 1,2,-1
 299 0 l 1,3,-1
 188 0 l 1,4,-1
 17 517 l 1,5,-1
 151 517 l 1,6,-1
 249 203 l 1,7,-1
 344 517 l 1,8,-1
 452 517 l 1,9,-1
 548 203 l 1,10,-1
 644 517 l 1,11,-1
 779 517 l 1,12,-1
 607 0 l 1,0,-1
EndSplineSet
EndChar

StartChar: x
Encoding: 120 120 91
Width: 589
GlyphClass: 2
Flags: W
LayerCount: 2
Fore
SplineSet
416 0 m 1,0,-1
 295 165 l 1,1,-1
 173 0 l 1,2,-1
 16 0 l 1,3,-1
 214 269 l 1,4,-1
 33 517 l 1,5,-1
 190 517 l 1,6,-1
 295 375 l 1,7,-1
 400 517 l 1,8,-1
 557 517 l 1,9,-1
 374 269 l 1,10,-1
 573 0 l 1,11,-1
 416 0 l 1,0,-1
EndSplineSet
EndChar

StartChar: y
Encoding: 121 121 92
Width: 572
GlyphClass: 2
Flags: W
AnchorPoint: "Anchor-5" 0 0 basechar 0
AnchorPoint: "Anchor-4" 0 0 basechar 0
AnchorPoint: "Anchor-3" 304 517 basechar 0
AnchorPoint: "Anchor-2" 0 0 basechar 0
LayerCount: 2
Fore
SplineSet
95 -161 m 128,-1,1
 73 -157 73 -157 62.5 -153 c 128,-1,2
 52 -149 52 -149 50 -147 c 2,3,-1
 50 -51 l 1,4,-1
 101 -53 l 2,5,6
 160 -57 160 -57 180.5 -41.5 c 128,-1,7
 201 -26 201 -26 208 -4 c 2,8,-1
 217 22 l 1,9,-1
 16 517 l 1,10,-1
 165 517 l 1,11,-1
 286 185 l 1,12,-1
 410 517 l 1,13,-1
 557 517 l 1,14,-1
 348 0 l 2,15,16
 309 -95 309 -95 262 -130 c 128,-1,17
 215 -165 215 -165 149 -165 c 0,18,0
 117 -165 117 -165 95 -161 c 128,-1,1
EndSplineSet
EndChar

StartChar: z
Encoding: 122 122 93
Width: 513
GlyphClass: 2
Flags: W
AnchorPoint: "Anchor-5" 0 0 basechar 0
AnchorPoint: "Anchor-4" 0 0 basechar 0
AnchorPoint: "Anchor-3" 268 517 basechar 0
AnchorPoint: "Anchor-2" 0 0 basechar 0
LayerCount: 2
Fore
SplineSet
29 77 m 1,0,-1
 294 422 l 1,1,-1
 51 422 l 1,2,-1
 51 517 l 1,3,-1
 483 517 l 1,4,-1
 483 442 l 1,5,-1
 216 97 l 1,6,-1
 486 97 l 1,7,-1
 486 0 l 1,8,-1
 29 0 l 1,9,-1
 29 77 l 1,0,-1
EndSplineSet
EndChar

StartChar: braceleft
Encoding: 123 123 94
Width: 381
GlyphClass: 2
Flags: W
LayerCount: 2
Fore
SplineSet
168.5 691.5 m 128,-1,1
 215 723 215 723 277 723 c 2,2,-1
 352 723 l 1,3,-1
 352 638 l 1,4,-1
 307 638 l 2,5,6
 268 638 268 638 256.5 625 c 128,-1,7
 245 612 245 612 245 586 c 2,8,-1
 245 390 l 2,9,10
 244 342 244 342 213 317.5 c 128,-1,11
 182 293 182 293 139 289 c 0,12,13
 133 288 133 288 132.5 285.5 c 128,-1,14
 132 283 132 283 139 282 c 0,15,16
 183 278 183 278 213.5 254 c 128,-1,17
 244 230 244 230 245 175 c 2,18,-1
 245 -24 l 2,19,20
 245 -52 245 -52 258.5 -64 c 128,-1,21
 272 -76 272 -76 307 -76 c 2,22,-1
 352 -76 l 1,23,-1
 352 -161 l 1,24,-1
 279 -161 l 2,25,26
 215 -161 215 -161 168.5 -129 c 128,-1,27
 122 -97 122 -97 122 -40 c 2,28,-1
 122 162 l 2,29,30
 122 200 122 200 93.5 224 c 128,-1,31
 65 248 65 248 9 248 c 1,32,-1
 9 323 l 1,33,34
 68 323 68 323 95 345.5 c 128,-1,35
 122 368 122 368 122 413 c 2,36,-1
 122 604 l 2,37,0
 122 660 122 660 168.5 691.5 c 128,-1,1
EndSplineSet
EndChar

StartChar: bar
Encoding: 124 124 95
Width: 264
GlyphClass: 2
Flags: W
LayerCount: 2
Fore
SplineSet
77 -161 m 1,0,-1
 77 826 l 1,1,-1
 187 826 l 1,2,-1
 187 -161 l 1,3,-1
 77 -161 l 1,0,-1
EndSplineSet
EndChar

StartChar: braceright
Encoding: 125 125 96
Width: 386
GlyphClass: 2
Flags: W
LayerCount: 2
Fore
SplineSet
200.5 691.5 m 128,-1,1
 154 723 154 723 92 723 c 2,2,-1
 17 723 l 1,3,-1
 17 638 l 1,4,-1
 62 638 l 2,5,6
 101 638 101 638 112.5 625 c 128,-1,7
 124 612 124 612 124 586 c 2,8,-1
 124 390 l 2,9,10
 125 342 125 342 156 317.5 c 128,-1,11
 187 293 187 293 230 289 c 0,12,13
 236 288 236 288 236.5 285.5 c 128,-1,14
 237 283 237 283 230 282 c 0,15,16
 186 278 186 278 155.5 254 c 128,-1,17
 125 230 125 230 124 175 c 2,18,-1
 124 -24 l 2,19,20
 124 -52 124 -52 110.5 -64 c 128,-1,21
 97 -76 97 -76 62 -76 c 2,22,-1
 17 -76 l 1,23,-1
 17 -161 l 1,24,-1
 90 -161 l 2,25,26
 154 -161 154 -161 200.5 -129 c 128,-1,27
 247 -97 247 -97 247 -40 c 2,28,-1
 247 162 l 2,29,30
 247 200 247 200 275.5 224 c 128,-1,31
 304 248 304 248 360 248 c 1,32,-1
 360 323 l 1,33,34
 301 323 301 323 274 345.5 c 128,-1,35
 247 368 247 368 247 413 c 2,36,-1
 247 604 l 2,37,0
 247 660 247 660 200.5 691.5 c 128,-1,1
EndSplineSet
EndChar

StartChar: asciitilde
Encoding: 126 126 97
Width: 611
GlyphClass: 2
Flags: W
LayerCount: 2
Fore
SplineSet
485.5 309 m 128,-1,1
 446 285 446 285 402 285 c 0,2,3
 374 285 374 285 350.5 294 c 128,-1,4
 327 303 327 303 298 319 c 0,5,6
 272 333 272 333 253 340.5 c 128,-1,7
 234 348 234 348 213 348 c 0,8,9
 179 348 179 348 154 329.5 c 128,-1,10
 129 311 129 311 97 275 c 1,11,-1
 54 350 l 1,12,13
 99 397 99 397 134 419.5 c 128,-1,14
 169 442 169 442 214 442 c 0,15,16
 243 442 243 442 264.5 433.5 c 128,-1,17
 286 425 286 425 319 408 c 0,18,19
 346 394 346 394 363 387 c 128,-1,20
 380 380 380 380 399 380 c 0,21,22
 462 380 462 380 506 452 c 1,23,-1
 550 378 l 1,24,0
 525 333 525 333 485.5 309 c 128,-1,1
EndSplineSet
EndChar

StartChar: exclamdown
Encoding: 161 161 99
Width: 278
GlyphClass: 2
Flags: W
LayerCount: 2
Fore
SplineSet
54 357 m 1,0,-1
 54 517 l 1,1,-1
 218 517 l 1,2,-1
 218 357 l 1,3,-1
 54 357 l 1,0,-1
48 -161 m 1,4,-1
 91 289 l 1,5,-1
 184 289 l 1,6,-1
 225 -161 l 1,7,-1
 48 -161 l 1,4,-1
EndSplineSet
EndChar

StartChar: cent
Encoding: 162 162 100
Width: 556
GlyphClass: 2
Flags: W
AnchorPoint: "Anchor-1" 292 628 basechar 0
AnchorPoint: "Anchor-0" 292 111 basechar 0
LayerCount: 2
Fore
SplineSet
353.5 231.5 m 128,-1,1
 374 255 374 255 389 292 c 1,2,-1
 508 286 l 1,3,4
 499 219 499 219 457 170.5 c 128,-1,5
 415 122 415 122 347 107 c 1,6,-1
 347 0 l 1,7,-1
 248 0 l 1,8,-1
 248 105 l 1,9,10
 187 114 187 114 140.5 149.5 c 128,-1,11
 94 185 94 185 68 241.5 c 128,-1,12
 42 298 42 298 42 367 c 0,13,14
 42 438 42 438 68 495 c 128,-1,15
 94 552 94 552 140.5 588 c 128,-1,16
 187 624 187 624 248 634 c 1,17,-1
 248 723 l 1,18,-1
 347 723 l 1,19,-1
 347 632 l 1,20,21
 415 617 415 617 456.5 567 c 128,-1,22
 498 517 498 517 508 448 c 1,23,-1
 385 442 l 1,24,25
 367 482 367 482 348.5 503 c 128,-1,26
 330 524 330 524 295 524 c 0,27,28
 243 524 243 524 212.5 483 c 128,-1,29
 182 442 182 442 182 369 c 0,30,31
 182 295 182 295 213.5 251.5 c 128,-1,32
 245 208 245 208 297 208 c 0,33,0
 333 208 333 208 353.5 231.5 c 128,-1,1
EndSplineSet
EndChar

StartChar: sterling
Encoding: 163 163 101
Width: 646
GlyphClass: 2
Flags: W
LayerCount: 2
Fore
SplineSet
17 125 m 1,0,-1
 51 125 l 2,1,2
 90 125 90 125 113 149.5 c 128,-1,3
 136 174 136 174 136 225 c 0,4,5
 136 261 136 261 126 338 c 1,6,-1
 24 338 l 1,7,-1
 24 421 l 1,8,-1
 108 421 l 1,9,-1
 99 512 l 2,10,11
 97 532 97 532 97 542 c 0,12,13
 97 602 97 602 128.5 645 c 128,-1,14
 160 688 160 688 212.5 710.5 c 128,-1,15
 265 733 265 733 326 733 c 0,16,17
 408 733 408 733 470.5 694.5 c 128,-1,18
 533 656 533 656 562 587 c 1,19,-1
 431 547 l 1,20,21
 415 583 415 583 397 598 c 128,-1,22
 379 613 379 613 349 613 c 0,23,24
 314 613 314 613 292.5 591.5 c 128,-1,25
 271 570 271 570 271 531 c 0,26,27
 271 497 271 497 287 422 c 1,28,-1
 432 422 l 1,29,-1
 432 339 l 1,30,-1
 298 339 l 1,31,32
 301 309 301 309 301 288 c 0,33,34
 301 261 301 261 295 234 c 0,35,36
 290 196 290 196 276.5 172.5 c 128,-1,37
 263 149 263 149 237 126 c 1,38,-1
 368 126 l 2,39,40
 415 126 415 126 439.5 143.5 c 128,-1,41
 464 161 464 161 480 205 c 1,42,-1
 607 178 l 1,43,44
 559 0 559 0 380 0 c 2,45,-1
 17 0 l 1,46,-1
 17 125 l 1,0,-1
EndSplineSet
EndChar

StartChar: currency
Encoding: 164 164 102
Width: 578
GlyphClass: 2
Flags: W
LayerCount: 2
Fore
SplineSet
173 176 m 0,0,1
 171 178 171 178 167 178 c 0,2,3
 162 178 162 178 158 174 c 2,4,-1
 97 114 l 1,5,-1
 35 179 l 1,6,-1
 101 244 l 1,7,8
 83 274 83 274 74.5 302 c 128,-1,9
 66 330 66 330 66 363 c 0,10,11
 66 425 66 425 96 474 c 0,12,13
 99 479 99 479 99 482 c 0,14,15
 99 486 99 486 95 490 c 2,16,-1
 35 549 l 1,17,-1
 98 614 l 1,18,-1
 165 546 l 1,19,20
 221 583 221 583 284 583 c 0,21,22
 348 583 348 583 400 550 c 0,23,24
 407 547 407 547 411 551 c 2,25,-1
 467 608 l 1,26,-1
 529 543 l 1,27,-1
 468 483 l 1,28,29
 504 427 504 427 504 364 c 0,30,31
 504 299 504 299 471 249 c 0,32,33
 468 246 468 246 471 242 c 2,34,-1
 529 185 l 1,35,-1
 467 121 l 1,36,-1
 406 182 l 1,37,38
 349 144 349 144 287 144 c 128,-1,39
 225 144 225 144 173 176 c 0,0,1
347.5 259.5 m 128,-1,41
 375 276 375 276 390.5 304 c 128,-1,42
 406 332 406 332 406 364 c 0,43,44
 406 395 406 395 390.5 423 c 128,-1,45
 375 451 375 451 347.5 468 c 128,-1,46
 320 485 320 485 286 485 c 128,-1,47
 252 485 252 485 224.5 468 c 128,-1,48
 197 451 197 451 181 423 c 128,-1,49
 165 395 165 395 165 364 c 0,50,51
 165 332 165 332 181 304 c 128,-1,52
 197 276 197 276 224.5 259.5 c 128,-1,53
 252 243 252 243 286 243 c 128,-1,40
 320 243 320 243 347.5 259.5 c 128,-1,41
EndSplineSet
EndChar

StartChar: yen
Encoding: 165 165 103
Width: 659
GlyphClass: 2
Flags: W
LayerCount: 2
Fore
SplineSet
436 349 m 1,0,-1
 567 349 l 1,1,-1
 567 268 l 1,2,-1
 418 268 l 1,3,-1
 418 191 l 1,4,-1
 567 191 l 1,5,-1
 567 110 l 1,6,-1
 418 110 l 1,7,-1
 418 0 l 1,8,-1
 246 0 l 1,9,-1
 246 110 l 1,10,-1
 97 110 l 1,11,-1
 97 191 l 1,12,-1
 246 191 l 1,13,-1
 246 267 l 1,14,-1
 97 267 l 1,15,-1
 97 349 l 1,16,-1
 218 349 l 1,17,-1
 -9 723 l 1,18,-1
 186 723 l 1,19,-1
 348 437 l 1,20,-1
 508 723 l 1,21,-1
 667 723 l 1,22,-1
 436 349 l 1,0,-1
EndSplineSet
EndChar

StartChar: brokenbar
Encoding: 166 166 104
Width: 264
GlyphClass: 2
Flags: W
LayerCount: 2
Fore
SplineSet
77 418 m 1,0,-1
 77 826 l 1,1,-1
 187 826 l 1,2,-1
 187 418 l 1,3,-1
 77 418 l 1,0,-1
77 -161 m 1,4,-1
 77 247 l 1,5,-1
 187 247 l 1,6,-1
 187 -161 l 1,7,-1
 77 -161 l 1,4,-1
EndSplineSet
EndChar

StartChar: section
Encoding: 167 167 105
Width: 510
GlyphClass: 2
Flags: W
LayerCount: 2
Fore
SplineSet
110.5 -45 m 128,-1,1
 49 -12 49 -12 24 38 c 1,2,-1
 117 84 l 1,3,4
 169 13 169 13 253 13 c 0,5,6
 293 13 293 13 317 27 c 128,-1,7
 341 41 341 41 341 66 c 0,8,9
 341 86 341 86 324 102 c 128,-1,10
 307 118 307 118 264 135 c 2,11,-1
 188 164 l 2,12,13
 106 194 106 194 70.5 231 c 128,-1,14
 35 268 35 268 35 325 c 0,15,16
 35 370 35 370 58 403.5 c 128,-1,17
 81 437 81 437 122 456 c 1,18,19
 78 482 78 482 60 511.5 c 128,-1,20
 42 541 42 541 42 578 c 0,21,22
 42 622 42 622 66.5 657 c 128,-1,23
 91 692 91 692 137.5 712.5 c 128,-1,24
 184 733 184 733 245 733 c 0,25,26
 319 733 319 733 376 701 c 128,-1,27
 433 669 433 669 457 622 c 1,28,-1
 364 577 l 1,29,30
 337 607 337 607 310.5 624.5 c 128,-1,31
 284 642 284 642 249 642 c 0,32,33
 215 642 215 642 195.5 628.5 c 128,-1,34
 176 615 176 615 176 592 c 0,35,36
 176 562 176 562 230 539 c 2,37,-1
 308 510 l 2,38,39
 393 477 393 477 430.5 439 c 128,-1,40
 468 401 468 401 468 343 c 0,41,42
 468 259 468 259 387 212 c 1,43,44
 433 186 433 186 453.5 156.5 c 128,-1,45
 474 127 474 127 474 86 c 0,46,47
 474 12 474 12 416.5 -33 c 128,-1,48
 359 -78 359 -78 256 -78 c 0,49,0
 172 -78 172 -78 110.5 -45 c 128,-1,1
327.5 273 m 128,-1,51
 345 290 345 290 345 316 c 0,52,53
 345 340 345 340 328 358 c 128,-1,54
 311 376 311 376 269 392 c 2,55,-1
 225 409 l 1,56,57
 193 406 193 406 175 388 c 128,-1,58
 157 370 157 370 157 346 c 0,59,60
 157 324 157 324 172 310 c 128,-1,61
 187 296 187 296 233 279 c 2,62,-1
 282 259 l 1,63,50
 310 256 310 256 327.5 273 c 128,-1,51
EndSplineSet
EndChar

StartChar: dieresis
Encoding: 168 168 106
Width: 369
GlyphClass: 2
Flags: W
LayerCount: 2
Fore
SplineSet
148 596 m 1,0,-1
 15 596 l 1,1,-1
 15 723 l 1,2,-1
 148 723 l 1,3,-1
 148 596 l 1,0,-1
347 596 m 1,4,-1
 214 596 l 1,5,-1
 214 723 l 1,6,-1
 347 723 l 1,7,-1
 347 596 l 1,4,-1
EndSplineSet
EndChar

StartChar: copyright
Encoding: 169 169 107
Width: 826
GlyphClass: 2
Flags: W
LayerCount: 2
Fore
SplineSet
223 40 m 128,-1,1
 138 90 138 90 88 175 c 128,-1,2
 38 260 38 260 38 362 c 0,3,4
 38 462 38 462 88 547.5 c 128,-1,5
 138 633 138 633 223 683 c 128,-1,6
 308 733 308 733 409 733 c 128,-1,7
 510 733 510 733 595.5 683 c 128,-1,8
 681 633 681 633 731 547.5 c 128,-1,9
 781 462 781 462 781 362 c 0,10,11
 781 260 781 260 731 175 c 128,-1,12
 681 90 681 90 595.5 40 c 128,-1,13
 510 -10 510 -10 409 -10 c 128,-1,0
 308 -10 308 -10 223 40 c 128,-1,1
554 108.5 m 128,-1,15
 618 144 618 144 654 210 c 128,-1,16
 690 276 690 276 690 362 c 128,-1,17
 690 448 690 448 654 513.5 c 128,-1,18
 618 579 618 579 554 615 c 128,-1,19
 490 651 490 651 409 651 c 0,20,21
 327 651 327 651 263.5 615 c 128,-1,22
 200 579 200 579 164.5 513.5 c 128,-1,23
 129 448 129 448 129 362 c 0,24,25
 129 275 129 275 164.5 209.5 c 128,-1,26
 200 144 200 144 263.5 108.5 c 128,-1,27
 327 73 327 73 409 73 c 0,28,14
 490 73 490 73 554 108.5 c 128,-1,15
525.5 532 m 128,-1,30
 571 493 571 493 587 440 c 1,31,-1
 483 429 l 1,32,33
 473 458 473 458 457.5 475 c 128,-1,34
 442 492 442 492 416 492 c 0,35,36
 377 492 377 492 355 459.5 c 128,-1,37
 333 427 333 427 333 365 c 0,38,39
 333 299 333 299 356.5 267 c 128,-1,40
 380 235 380 235 422 235 c 0,41,42
 454 235 454 235 474.5 252.5 c 128,-1,43
 495 270 495 270 513 304 c 1,44,-1
 588 285 l 1,45,46
 572 237 572 237 528 196.5 c 128,-1,47
 484 156 484 156 412 156 c 0,48,49
 354 156 354 156 308.5 182 c 128,-1,50
 263 208 263 208 237.5 255 c 128,-1,51
 212 302 212 302 212 363 c 128,-1,52
 212 424 212 424 238 471.5 c 128,-1,53
 264 519 264 519 309.5 545 c 128,-1,54
 355 571 355 571 412 571 c 0,55,29
 480 571 480 571 525.5 532 c 128,-1,30
EndSplineSet
EndChar

StartChar: ordfeminine
Encoding: 170 170 108
Width: 412
GlyphClass: 2
Flags: W
LayerCount: 2
Fore
SplineSet
63 422 m 128,-1,1
 35 447 35 447 35 489 c 0,2,3
 35 538 35 538 80.5 568.5 c 128,-1,4
 126 599 126 599 206 601 c 2,5,-1
 243 603 l 1,6,-1
 243 624 l 2,7,8
 243 670 243 670 192 670 c 0,9,10
 170 670 170 670 154 661 c 128,-1,11
 138 652 138 652 127 629 c 1,12,-1
 43 647 l 1,13,14
 63 690 63 690 97.5 711 c 128,-1,15
 132 732 132 732 195 732 c 0,16,17
 270 731 270 731 302.5 705 c 128,-1,18
 335 679 335 679 335 629 c 2,19,-1
 335 503 l 2,20,21
 335 456 335 456 339 432 c 2,22,-1
 346 403 l 1,23,-1
 250 403 l 1,24,-1
 243 437 l 1,25,26
 213 415 213 415 191.5 406 c 128,-1,27
 170 397 170 397 142 397 c 0,28,0
 91 397 91 397 63 422 c 128,-1,1
227 475 m 0,29,30
 243 488 243 488 243 503 c 2,31,-1
 243 551 l 1,32,-1
 212 550 l 2,33,34
 174 549 174 549 152 534 c 128,-1,35
 130 519 130 519 130 495 c 0,36,37
 130 478 130 478 143.5 468 c 128,-1,38
 157 458 157 458 179 458 c 0,39,40
 208 458 208 458 227 475 c 0,29,30
EndSplineSet
EndChar

StartChar: guillemotleft
Encoding: 171 171 109
Width: 496
GlyphClass: 2
Flags: W
LayerCount: 2
Fore
SplineSet
244 64 m 1,0,-1
 165 64 l 1,1,-1
 48 251 l 1,2,-1
 164 446 l 1,3,-1
 245 446 l 1,4,-1
 165 251 l 1,5,-1
 244 64 l 1,0,-1
436 64 m 1,6,-1
 356 64 l 1,7,-1
 239 251 l 1,8,-1
 356 446 l 1,9,-1
 436 446 l 1,10,-1
 357 251 l 1,11,-1
 436 64 l 1,6,-1
EndSplineSet
EndChar

StartChar: logicalnot
Encoding: 172 172 110
Width: 585
GlyphClass: 2
Flags: W
LayerCount: 2
Fore
SplineSet
528 419 m 1,0,-1
 528 157 l 1,1,-1
 406 157 l 1,2,-1
 405 309 l 1,3,-1
 52 309 l 1,4,-1
 52 418 l 1,5,-1
 528 419 l 1,0,-1
EndSplineSet
EndChar

StartChar: uni00AD
Encoding: 173 173 111
Width: 388
GlyphClass: 2
Flags: W
LayerCount: 2
Fore
SplineSet
344 203 m 1,0,-1
 69 202 l 1,1,-1
 69 312 l 1,2,-1
 344 312 l 1,3,-1
 344 203 l 1,0,-1
EndSplineSet
EndChar

StartChar: registered
Encoding: 174 174 112
Width: 548
GlyphClass: 2
Flags: W
LayerCount: 2
Fore
SplineSet
153.5 299 m 128,-1,1
 100 330 100 330 69 383 c 128,-1,2
 38 436 38 436 38 500 c 128,-1,3
 38 564 38 564 69 617 c 128,-1,4
 100 670 100 670 153.5 701.5 c 128,-1,5
 207 733 207 733 271 733 c 0,6,7
 334 733 334 733 387.5 701.5 c 128,-1,8
 441 670 441 670 472 616.5 c 128,-1,9
 503 563 503 563 503 500 c 128,-1,10
 503 437 503 437 472 383.5 c 128,-1,11
 441 330 441 330 387.5 299 c 128,-1,12
 334 268 334 268 271 268 c 0,13,0
 207 268 207 268 153.5 299 c 128,-1,1
393 374 m 128,-1,15
 439 421 439 421 439 500 c 128,-1,16
 439 579 439 579 393 626.5 c 128,-1,17
 347 674 347 674 271 674 c 0,18,19
 194 674 194 674 148.5 626.5 c 128,-1,20
 103 579 103 579 103 500 c 128,-1,21
 103 421 103 421 148.5 374 c 128,-1,22
 194 327 194 327 271 327 c 0,23,14
 347 327 347 327 393 374 c 128,-1,15
177 614 m 1,24,-1
 285 614 l 2,25,26
 327 614 327 614 350.5 598 c 128,-1,27
 374 582 374 582 374 552 c 0,28,29
 374 529 374 529 361 513.5 c 128,-1,30
 348 498 348 498 327 490 c 1,31,-1
 373 384 l 1,32,-1
 309 384 l 1,33,-1
 274 484 l 1,34,-1
 235 484 l 1,35,-1
 235 384 l 1,36,-1
 177 384 l 1,37,-1
 177 614 l 1,24,-1
283 525 m 2,38,39
 296 525 296 525 304.5 531 c 128,-1,40
 313 537 313 537 313 549 c 0,41,42
 313 560 313 560 304.5 566.5 c 128,-1,43
 296 573 296 573 280 573 c 2,44,-1
 235 573 l 1,45,-1
 235 525 l 1,46,-1
 283 525 l 2,38,39
EndSplineSet
EndChar

StartChar: macron
Encoding: 175 175 113
Width: 394
GlyphClass: 2
Flags: W
LayerCount: 2
Fore
SplineSet
371 622 m 1,0,-1
 15 622 l 1,1,-1
 15 718 l 1,2,-1
 371 718 l 1,3,-1
 371 622 l 1,0,-1
EndSplineSet
EndChar

StartChar: degree
Encoding: 176 176 114
Width: 469
GlyphClass: 2
Flags: W
LayerCount: 2
Fore
SplineSet
377 580 m 128,-1,1
 355 542 355 542 317 520.5 c 128,-1,2
 279 499 279 499 231 499 c 128,-1,3
 183 499 183 499 144.5 520.5 c 128,-1,4
 106 542 106 542 84.5 580 c 128,-1,5
 63 618 63 618 63 667 c 0,6,7
 63 715 63 715 84.5 753.5 c 128,-1,8
 106 792 106 792 144.5 814 c 128,-1,9
 183 836 183 836 231 836 c 0,10,11
 278 836 278 836 316.5 814 c 128,-1,12
 355 792 355 792 377 753.5 c 128,-1,13
 399 715 399 715 399 667 c 0,14,0
 399 618 399 618 377 580 c 128,-1,1
287.5 726 m 128,-1,16
 266 749 266 749 229 749 c 0,17,18
 194 749 194 749 172 726 c 128,-1,19
 150 703 150 703 150 668 c 0,20,21
 150 630 150 630 171.5 606.5 c 128,-1,22
 193 583 193 583 230 583 c 0,23,24
 266 583 266 583 287.5 606 c 128,-1,25
 309 629 309 629 309 666 c 128,-1,15
 309 703 309 703 287.5 726 c 128,-1,16
EndSplineSet
EndChar

StartChar: plusminus
Encoding: 177 177 115
Width: 585
GlyphClass: 2
Flags: W
LayerCount: 2
Fore
SplineSet
528 505 m 1,0,-1
 528 395 l 1,1,-1
 345 395 l 1,2,-1
 345 212 l 1,3,-1
 236 212 l 1,4,-1
 236 395 l 1,5,-1
 52 395 l 1,6,-1
 52 504 l 1,7,-1
 236 504 l 1,8,-1
 236 688 l 1,9,-1
 345 688 l 1,10,-1
 345 505 l 1,11,-1
 528 505 l 1,0,-1
52 142 m 1,12,-1
 528 143 l 1,13,-1
 528 34 l 1,14,-1
 52 34 l 1,15,-1
 52 142 l 1,12,-1
EndSplineSet
EndChar

StartChar: uni00B2
Encoding: 178 178 116
Width: 386
GlyphClass: 2
Flags: W
LayerCount: 2
Fore
SplineSet
12 454 m 1,0,-1
 154 581 l 2,1,2
 213 632 213 632 231 656 c 128,-1,3
 249 680 249 680 249 706 c 0,4,5
 249 735 249 735 229.5 750.5 c 128,-1,6
 210 766 210 766 181 766 c 0,7,8
 151 766 151 766 128.5 750.5 c 128,-1,9
 106 735 106 735 95 700 c 1,10,-1
 7 705 l 1,11,12
 14 769 14 769 59.5 807 c 128,-1,13
 105 845 105 845 184 845 c 0,14,15
 260 845 260 845 304.5 808 c 128,-1,16
 349 771 349 771 349 707 c 0,17,18
 349 671 349 671 331.5 643 c 128,-1,19
 314 615 314 615 266 569 c 2,20,-1
 155 464 l 1,21,-1
 354 464 l 1,22,-1
 354 384 l 1,23,-1
 12 384 l 1,24,-1
 12 454 l 1,0,-1
EndSplineSet
EndChar

StartChar: uni00B3
Encoding: 179 179 117
Width: 401
GlyphClass: 2
Flags: W
LayerCount: 2
Fore
SplineSet
81 815 m 128,-1,1
 134 845 134 845 210 845 c 0,2,3
 259 845 259 845 299 830 c 128,-1,4
 339 815 339 815 362 787.5 c 128,-1,5
 385 760 385 760 385 726 c 0,6,7
 385 657 385 657 300 627 c 1,8,9
 341 616 341 616 369.5 587.5 c 128,-1,10
 398 559 398 559 398 515 c 0,11,12
 398 473 398 473 371 442 c 128,-1,13
 344 411 344 411 300.5 394.5 c 128,-1,14
 257 378 257 378 208 378 c 0,15,16
 122 378 122 378 73.5 406.5 c 128,-1,17
 25 435 25 435 17 507 c 1,18,-1
 106 512 l 1,19,20
 117 480 117 480 143 467 c 128,-1,21
 169 454 169 454 202 454 c 0,22,23
 243 454 243 454 268 471.5 c 128,-1,24
 293 489 293 489 293 515 c 0,25,26
 293 543 293 543 269 561.5 c 128,-1,27
 245 580 245 580 210 580 c 2,28,-1
 148 581 l 1,29,-1
 148 656 l 1,30,-1
 201 658 l 2,31,32
 237 659 237 659 260 676 c 128,-1,33
 283 693 283 693 283 719 c 0,34,35
 283 742 283 742 260.5 757 c 128,-1,36
 238 772 238 772 208 772 c 0,37,38
 170 772 170 772 144.5 759.5 c 128,-1,39
 119 747 119 747 110 713 c 1,40,-1
 22 718 l 1,41,0
 28 785 28 785 81 815 c 128,-1,1
EndSplineSet
EndChar

StartChar: acute
Encoding: 180 180 118
Width: 315
GlyphClass: 2
Flags: W
LayerCount: 2
Fore
SplineSet
299 636 m 1,0,-1
 33 567 l 1,1,-1
 12 631 l 1,2,-1
 266 734 l 1,3,-1
 299 636 l 1,0,-1
EndSplineSet
EndChar

StartChar: paragraph
Encoding: 182 182 119
Width: 610
GlyphClass: 2
Flags: W
LayerCount: 2
Fore
SplineSet
482 638 m 1,0,-1
 482 -83 l 1,1,-1
 390 -83 l 1,2,-1
 390 638 l 1,3,-1
 331 638 l 1,4,-1
 331 -83 l 1,5,-1
 239 -83 l 1,6,-1
 239 299 l 1,7,8
 150 306 150 306 92 361 c 128,-1,9
 34 416 34 416 34 509 c 0,10,11
 34 568 34 568 61.5 617 c 128,-1,12
 89 666 89 666 141.5 694.5 c 128,-1,13
 194 723 194 723 267 723 c 2,14,-1
 545 723 l 1,15,-1
 545 638 l 1,16,-1
 482 638 l 1,0,-1
EndSplineSet
EndChar

StartChar: periodcentered
Encoding: 183 183 120
Width: 264
GlyphClass: 2
Flags: W
LayerCount: 2
Fore
SplineSet
203 291 m 1,0,-1
 50 291 l 1,1,-1
 50 438 l 1,2,-1
 203 438 l 1,3,-1
 203 291 l 1,0,-1
EndSplineSet
EndChar

StartChar: cedilla
Encoding: 184 184 121
Width: 272
GlyphClass: 2
Flags: W
LayerCount: 2
Fore
SplineSet
215 -191 m 128,-1,1
 180 -213 180 -213 129 -213 c 0,2,3
 57 -213 57 -213 13 -186 c 1,4,-1
 33 -136 l 1,5,6
 73 -161 73 -161 111 -161 c 0,7,8
 134 -161 134 -161 147 -152.5 c 128,-1,9
 160 -144 160 -144 160 -130 c 0,10,11
 160 -110 160 -110 140.5 -100 c 128,-1,12
 121 -90 121 -90 75 -90 c 0,13,14
 62 -90 62 -90 67 -80 c 2,15,-1
 104 5 l 1,16,-1
 170 5 l 1,17,-1
 148 -53 l 1,18,19
 200 -54 200 -54 225 -77.5 c 128,-1,20
 250 -101 250 -101 250 -132 c 0,21,0
 250 -169 250 -169 215 -191 c 128,-1,1
EndSplineSet
EndChar

StartChar: uni00B9
Encoding: 185 185 122
Width: 303
GlyphClass: 2
Flags: W
LayerCount: 2
Fore
SplineSet
74 729 m 1,0,-1
 -7 706 l 1,1,-1
 -7 772 l 1,2,-1
 119 835 l 1,3,-1
 169 835 l 1,4,-1
 169 380 l 1,5,-1
 74 380 l 1,6,-1
 74 729 l 1,0,-1
EndSplineSet
EndChar

StartChar: ordmasculine
Encoding: 186 186 123
Width: 397
GlyphClass: 2
Flags: W
LayerCount: 2
Fore
SplineSet
317.5 686 m 128,-1,1
 363 639 363 639 363 564 c 0,2,3
 363 491 363 491 317.5 444.5 c 128,-1,4
 272 398 272 398 198 398 c 128,-1,5
 124 398 124 398 79 444.5 c 128,-1,6
 34 491 34 491 34 564 c 0,7,8
 34 639 34 639 80 686 c 128,-1,9
 126 733 126 733 198 733 c 0,10,0
 272 733 272 733 317.5 686 c 128,-1,1
134 566 m 128,-1,12
 134 463 134 463 198 463 c 0,13,14
 264 463 264 463 264 566 c 128,-1,15
 264 669 264 669 198 669 c 0,16,11
 134 669 134 669 134 566 c 128,-1,12
EndSplineSet
EndChar

StartChar: guillemotright
Encoding: 187 187 124
Width: 495
GlyphClass: 2
Flags: W
LayerCount: 2
Fore
SplineSet
53 446 m 1,0,-1
 133 446 l 1,1,-1
 250 251 l 1,2,-1
 132 64 l 1,3,-1
 53 64 l 1,4,-1
 132 251 l 1,5,-1
 53 446 l 1,0,-1
244 446 m 1,6,-1
 325 446 l 1,7,-1
 441 251 l 1,8,-1
 324 64 l 1,9,-1
 244 64 l 1,10,-1
 324 251 l 1,11,-1
 244 446 l 1,6,-1
EndSplineSet
EndChar

StartChar: onequarter
Encoding: 188 188 125
Width: 973
GlyphClass: 2
Flags: W
LayerCount: 2
Fore
SplineSet
74 625 m 1,0,-1
 -7 602 l 1,1,-1
 -7 668 l 1,2,-1
 119 731 l 1,3,-1
 169 731 l 1,4,-1
 169 276 l 1,5,-1
 74 276 l 1,6,-1
 74 625 l 1,0,-1
224 -4 m 1,7,-1
 137 -3 l 1,8,-1
 624 731 l 1,9,-1
 710 731 l 1,10,-1
 224 -4 l 1,7,-1
865 455 m 1,11,-1
 865 181 l 1,12,-1
 933 181 l 1,13,-1
 933 99 l 1,14,-1
 865 99 l 1,15,-1
 865 0 l 1,16,-1
 769 0 l 1,17,-1
 770 99 l 1,18,-1
 565 99 l 1,19,-1
 565 179 l 1,20,-1
 770 455 l 1,21,-1
 865 455 l 1,11,-1
770 181 m 1,22,-1
 770 323 l 1,23,-1
 664 181 l 1,24,-1
 770 181 l 1,22,-1
EndSplineSet
EndChar

StartChar: onehalf
Encoding: 189 189 126
Width: 942
GlyphClass: 2
Flags: W
LayerCount: 2
Fore
SplineSet
74 625 m 1,0,-1
 -7 602 l 1,1,-1
 -7 668 l 1,2,-1
 119 731 l 1,3,-1
 169 731 l 1,4,-1
 169 276 l 1,5,-1
 74 276 l 1,6,-1
 74 625 l 1,0,-1
224 -4 m 1,7,-1
 137 -3 l 1,8,-1
 624 731 l 1,9,-1
 710 731 l 1,10,-1
 224 -4 l 1,7,-1
568 70 m 1,11,-1
 710 197 l 2,12,13
 751 232 751 232 770.5 252.5 c 128,-1,14
 790 273 790 273 797.5 288.5 c 128,-1,15
 805 304 805 304 805 322 c 0,16,17
 805 350 805 350 785.5 366 c 128,-1,18
 766 382 766 382 737 382 c 256,19,20
 708 382 708 382 684.5 366 c 128,-1,21
 661 350 661 350 651 316 c 1,22,-1
 563 321 l 1,23,24
 570 385 570 385 615.5 423 c 128,-1,25
 661 461 661 461 740 461 c 0,26,27
 790 461 790 461 827.5 444 c 128,-1,28
 865 427 865 427 885 396 c 128,-1,29
 905 365 905 365 905 323 c 0,30,31
 905 287 905 287 887.5 258.5 c 128,-1,32
 870 230 870 230 822 185 c 2,33,-1
 711 80 l 1,34,-1
 910 80 l 1,35,-1
 910 0 l 1,36,-1
 568 0 l 1,37,-1
 568 70 l 1,11,-1
EndSplineSet
EndChar

StartChar: threequarters
Encoding: 190 190 127
Width: 1071
GlyphClass: 2
Flags: W
LayerCount: 2
Fore
SplineSet
81 710 m 128,-1,1
 134 740 134 740 210 740 c 0,2,3
 259 740 259 740 299 725 c 128,-1,4
 339 710 339 710 362 682.5 c 128,-1,5
 385 655 385 655 385 621 c 0,6,7
 385 552 385 552 300 522 c 1,8,9
 341 511 341 511 369.5 482.5 c 128,-1,10
 398 454 398 454 398 410 c 0,11,12
 398 368 398 368 371 337 c 128,-1,13
 344 306 344 306 300.5 289.5 c 128,-1,14
 257 273 257 273 208 273 c 0,15,16
 122 273 122 273 73.5 301.5 c 128,-1,17
 25 330 25 330 17 402 c 1,18,-1
 106 407 l 1,19,20
 117 375 117 375 143 362 c 128,-1,21
 169 349 169 349 202 349 c 0,22,23
 243 349 243 349 268 366.5 c 128,-1,24
 293 384 293 384 293 410 c 0,25,26
 293 438 293 438 269 456.5 c 128,-1,27
 245 475 245 475 210 475 c 2,28,-1
 148 476 l 1,29,-1
 148 551 l 1,30,-1
 201 553 l 2,31,32
 237 554 237 554 260 571 c 128,-1,33
 283 588 283 588 283 614 c 0,34,35
 283 637 283 637 260.5 652 c 128,-1,36
 238 667 238 667 208 667 c 0,37,38
 170 667 170 667 144.5 654.5 c 128,-1,39
 119 642 119 642 110 608 c 1,40,-1
 22 613 l 1,41,0
 28 680 28 680 81 710 c 128,-1,1
322 -4 m 1,42,-1
 235 -3 l 1,43,-1
 722 731 l 1,44,-1
 808 731 l 1,45,-1
 322 -4 l 1,42,-1
963 455 m 1,46,-1
 963 181 l 1,47,-1
 1031 181 l 1,48,-1
 1031 99 l 1,49,-1
 963 99 l 1,50,-1
 963 0 l 1,51,-1
 867 0 l 1,52,-1
 868 99 l 1,53,-1
 663 99 l 1,54,-1
 663 179 l 1,55,-1
 868 455 l 1,56,-1
 963 455 l 1,46,-1
868 181 m 1,57,-1
 868 323 l 1,58,-1
 762 181 l 1,59,-1
 868 181 l 1,57,-1
EndSplineSet
EndChar

StartChar: questiondown
Encoding: 191 191 128
Width: 541
GlyphClass: 2
Flags: W
LayerCount: 2
Fore
SplineSet
201 517 m 1,0,-1
 366 517 l 1,1,-1
 366 357 l 1,2,-1
 201 357 l 1,3,-1
 201 517 l 1,0,-1
428 -128 m 128,-1,5
 362 -171 362 -171 270 -171 c 0,6,7
 193 -171 193 -171 139 -148.5 c 128,-1,8
 85 -126 85 -126 57.5 -87 c 128,-1,9
 30 -48 30 -48 30 0 c 0,10,11
 30 39 30 39 44.5 68.5 c 128,-1,12
 59 98 59 98 79.5 118 c 128,-1,13
 100 138 100 138 133 163 c 0,14,15
 178 197 178 197 200 224.5 c 128,-1,16
 222 252 222 252 222 294 c 1,17,-1
 344 294 l 1,18,19
 344 251 344 251 330 218 c 128,-1,20
 316 185 316 185 296.5 162 c 128,-1,21
 277 139 277 139 246 112 c 0,22,23
 212 81 212 81 196 59 c 128,-1,24
 180 37 180 37 180 8 c 0,25,26
 180 -24 180 -24 206 -44.5 c 128,-1,27
 232 -65 232 -65 271 -65 c 0,28,29
 311 -65 311 -65 346.5 -39.5 c 128,-1,30
 382 -14 382 -14 398 26 c 1,31,-1
 526 -4 l 1,32,4
 494 -85 494 -85 428 -128 c 128,-1,5
EndSplineSet
EndChar

StartChar: Agrave
Encoding: 192 192 129
Width: 713
GlyphClass: 2
Flags: W
AnchorPoint: "Anchor-5" 0 0 basechar 0
AnchorPoint: "Anchor-4" 0 0 basechar 0
AnchorPoint: "Anchor-3" 367 723 basechar 0
AnchorPoint: "Anchor-2" 693 10 basechar 0
LayerCount: 2
Fore
SplineSet
278 723 m 1,0,-1
 436 723 l 1,1,-1
 694 0 l 1,2,-1
 544 0 l 1,3,-1
 486 165 l 1,4,-1
 229 165 l 1,5,-1
 170 0 l 1,6,-1
 19 0 l 1,7,-1
 278 723 l 1,0,-1
451 296 m 1,8,-1
 357 578 l 1,9,-1
 263 296 l 1,10,-1
 451 296 l 1,8,-1
505 837 m 1,11,-1
 484 773 l 1,12,-1
 217 842 l 1,13,-1
 252 940 l 1,14,-1
 505 837 l 1,11,-1
EndSplineSet
EndChar

StartChar: Aacute
Encoding: 193 193 130
Width: 713
GlyphClass: 2
Flags: W
AnchorPoint: "Anchor-5" 0 0 basechar 0
AnchorPoint: "Anchor-4" 0 0 basechar 0
AnchorPoint: "Anchor-3" 367 723 basechar 0
AnchorPoint: "Anchor-2" 693 10 basechar 0
LayerCount: 2
Fore
SplineSet
278 723 m 1,0,-1
 436 723 l 1,1,-1
 694 0 l 1,2,-1
 544 0 l 1,3,-1
 486 165 l 1,4,-1
 229 165 l 1,5,-1
 170 0 l 1,6,-1
 19 0 l 1,7,-1
 278 723 l 1,0,-1
451 296 m 1,8,-1
 357 578 l 1,9,-1
 263 296 l 1,10,-1
 451 296 l 1,8,-1
511 842 m 1,11,-1
 245 773 l 1,12,-1
 224 837 l 1,13,-1
 478 940 l 1,14,-1
 511 842 l 1,11,-1
EndSplineSet
EndChar

StartChar: Acircumflex
Encoding: 194 194 131
Width: 713
GlyphClass: 2
Flags: W
AnchorPoint: "Anchor-5" 0 0 basechar 0
AnchorPoint: "Anchor-4" 0 0 basechar 0
AnchorPoint: "Anchor-3" 367 723 basechar 0
AnchorPoint: "Anchor-2" 693 10 basechar 0
LayerCount: 2
Fore
SplineSet
278 723 m 1,0,-1
 436 723 l 1,1,-1
 694 0 l 1,2,-1
 544 0 l 1,3,-1
 486 165 l 1,4,-1
 229 165 l 1,5,-1
 170 0 l 1,6,-1
 19 0 l 1,7,-1
 278 723 l 1,0,-1
451 296 m 1,8,-1
 357 578 l 1,9,-1
 263 296 l 1,10,-1
 451 296 l 1,8,-1
366 875 m 1,11,-1
 293 800 l 1,12,-1
 182 800 l 1,13,-1
 315 936 l 1,14,-1
 419 936 l 1,15,-1
 548 800 l 1,16,-1
 431 800 l 1,17,-1
 366 875 l 1,11,-1
EndSplineSet
EndChar

StartChar: Atilde
Encoding: 195 195 132
Width: 713
GlyphClass: 2
Flags: W
AnchorPoint: "Anchor-5" 0 0 basechar 0
AnchorPoint: "Anchor-4" 0 0 basechar 0
AnchorPoint: "Anchor-3" 367 723 basechar 0
AnchorPoint: "Anchor-2" 693 10 basechar 0
LayerCount: 2
Fore
SplineSet
278 723 m 1,0,-1
 436 723 l 1,1,-1
 694 0 l 1,2,-1
 544 0 l 1,3,-1
 486 165 l 1,4,-1
 229 165 l 1,5,-1
 170 0 l 1,6,-1
 19 0 l 1,7,-1
 278 723 l 1,0,-1
451 296 m 1,8,-1
 357 578 l 1,9,-1
 263 296 l 1,10,-1
 451 296 l 1,8,-1
491 825 m 128,-1,12
 468 817 468 817 442 817 c 0,13,14
 423 817 423 817 408.5 820.5 c 128,-1,15
 394 824 394 824 367 832 c 0,16,17
 350 837 350 837 332 841.5 c 128,-1,18
 314 846 314 846 297 846 c 0,19,20
 277 846 277 846 263.5 841 c 128,-1,21
 250 836 250 836 232 823 c 0,22,23
 225 818 225 818 222 818 c 0,24,25
 216 818 216 818 213 829 c 2,26,-1
 199 872 l 2,27,28
 197 878 197 878 197 881 c 0,29,30
 197 887 197 887 205 895 c 0,31,32
 224 912 224 912 244 921.5 c 128,-1,33
 264 931 264 931 292 931 c 0,34,35
 312 931 312 931 330.5 926.5 c 128,-1,36
 349 922 349 922 375 914 c 0,37,38
 392 909 392 909 409.5 904.5 c 128,-1,39
 427 900 427 900 441 900 c 0,40,41
 460 900 460 900 476 906.5 c 128,-1,42
 492 913 492 913 509 924 c 0,43,44
 514 928 514 928 520 928 c 0,45,46
 527 928 527 928 530 918 c 2,47,-1
 541 867 l 2,48,49
 542 865 542 865 542 860 c 0,50,51
 542 852 542 852 531 844 c 0,52,11
 514 833 514 833 491 825 c 128,-1,12
EndSplineSet
EndChar

StartChar: Adieresis
Encoding: 196 196 133
Width: 713
GlyphClass: 2
Flags: W
AnchorPoint: "Anchor-5" 0 0 basechar 0
AnchorPoint: "Anchor-4" 0 0 basechar 0
AnchorPoint: "Anchor-3" 367 723 basechar 0
AnchorPoint: "Anchor-2" 693 10 basechar 0
LayerCount: 2
Fore
SplineSet
278 723 m 1,0,-1
 436 723 l 1,1,-1
 694 0 l 1,2,-1
 544 0 l 1,3,-1
 486 165 l 1,4,-1
 229 165 l 1,5,-1
 170 0 l 1,6,-1
 19 0 l 1,7,-1
 278 723 l 1,0,-1
451 296 m 1,8,-1
 357 578 l 1,9,-1
 263 296 l 1,10,-1
 451 296 l 1,8,-1
334 802 m 1,11,-1
 201 802 l 1,12,-1
 201 929 l 1,13,-1
 334 929 l 1,14,-1
 334 802 l 1,11,-1
533 802 m 1,15,-1
 400 802 l 1,16,-1
 400 929 l 1,17,-1
 533 929 l 1,18,-1
 533 802 l 1,15,-1
EndSplineSet
EndChar

StartChar: Aring
Encoding: 197 197 134
Width: 713
GlyphClass: 2
Flags: W
AnchorPoint: "Anchor-5" 0 0 basechar 0
AnchorPoint: "Anchor-4" 0 0 basechar 0
AnchorPoint: "Anchor-3" 367 723 basechar 0
AnchorPoint: "Anchor-2" 693 10 basechar 0
LayerCount: 2
Fore
SplineSet
278 723 m 1,0,-1
 436 723 l 1,1,-1
 694 0 l 1,2,-1
 544 0 l 1,3,-1
 486 165 l 1,4,-1
 229 165 l 1,5,-1
 170 0 l 1,6,-1
 19 0 l 1,7,-1
 278 723 l 1,0,-1
451 296 m 1,8,-1
 357 578 l 1,9,-1
 263 296 l 1,10,-1
 451 296 l 1,8,-1
445 804.5 m 128,-1,12
 413 773 413 773 367 773 c 128,-1,13
 321 773 321 773 289.5 805 c 128,-1,14
 258 837 258 837 258 884 c 0,15,16
 258 927 258 927 290 958 c 128,-1,17
 322 989 322 989 367 989 c 0,18,19
 413 989 413 989 445 958 c 128,-1,20
 477 927 477 927 477 882 c 0,21,11
 477 836 477 836 445 804.5 c 128,-1,12
401 916 m 128,-1,23
 387 930 387 930 366 930 c 128,-1,24
 345 930 345 930 330.5 916 c 128,-1,25
 316 902 316 902 316 881 c 0,26,27
 316 861 316 861 331 845.5 c 128,-1,28
 346 830 346 830 366 830 c 128,-1,29
 386 830 386 830 400.5 845.5 c 128,-1,30
 415 861 415 861 415 881 c 0,31,22
 415 902 415 902 401 916 c 128,-1,23
EndSplineSet
EndChar

StartChar: AE
Encoding: 198 198 135
Width: 1070
GlyphClass: 2
Flags: W
AnchorPoint: "Anchor-5" 0 0 basechar 0
AnchorPoint: "Anchor-4" 0 0 basechar 0
AnchorPoint: "Anchor-3" 689 723 basechar 0
AnchorPoint: "Anchor-2" 0 0 basechar 0
LayerCount: 2
Fore
SplineSet
1014 0 m 1,0,-1
 489 0 l 1,1,-1
 489 166 l 1,2,-1
 257 166 l 1,3,-1
 170 0 l 1,4,-1
 19 0 l 1,5,-1
 405 723 l 1,6,-1
 1004 723 l 1,7,-1
 1003 598 l 1,8,-1
 661 598 l 1,9,-1
 661 426 l 1,10,-1
 892 426 l 1,11,-1
 892 302 l 1,12,-1
 661 302 l 1,13,-1
 661 126 l 1,14,-1
 1014 126 l 1,15,-1
 1014 0 l 1,0,-1
489 625 m 1,16,-1
 314 296 l 1,17,-1
 489 296 l 1,18,-1
 489 625 l 1,16,-1
EndSplineSet
EndChar

StartChar: Ccedilla
Encoding: 199 199 136
Width: 711
GlyphClass: 2
Flags: W
AnchorPoint: "Anchor-5" 0 0 basechar 0
AnchorPoint: "Anchor-4" 373 0 basechar 0
AnchorPoint: "Anchor-3" 373 723 basechar 0
AnchorPoint: "Anchor-2" 0 0 basechar 0
LayerCount: 2
Fore
SplineSet
517 701.5 m 128,-1,1
 582 670 582 670 622 614 c 128,-1,2
 662 558 662 558 669 487 c 1,3,-1
 511 485 l 1,4,5
 500 543 500 543 463.5 576 c 128,-1,6
 427 609 427 609 366 609 c 0,7,8
 208 609 208 609 208 365 c 0,9,10
 208 238 208 238 250 176 c 128,-1,11
 292 114 292 114 369 114 c 0,12,13
 424 114 424 114 461.5 150.5 c 128,-1,14
 499 187 499 187 510 246 c 1,15,-1
 668 243 l 1,16,17
 653 129 653 129 583 59.5 c 128,-1,18
 513 -10 513 -10 373 -10 c 0,19,20
 273 -10 273 -10 198.5 37.5 c 128,-1,21
 124 85 124 85 83.5 170.5 c 128,-1,22
 43 256 43 256 43 368 c 0,23,24
 43 479 43 479 82.5 561.5 c 128,-1,25
 122 644 122 644 196 688.5 c 128,-1,26
 270 733 270 733 371 733 c 0,27,0
 452 733 452 733 517 701.5 c 128,-1,1
455 -191 m 128,-1,29
 420 -213 420 -213 369 -213 c 0,30,31
 297 -213 297 -213 253 -186 c 1,32,-1
 273 -136 l 1,33,34
 313 -161 313 -161 351 -161 c 0,35,36
 374 -161 374 -161 387 -152.5 c 128,-1,37
 400 -144 400 -144 400 -130 c 0,38,39
 400 -110 400 -110 380.5 -100 c 128,-1,40
 361 -90 361 -90 315 -90 c 0,41,42
 302 -90 302 -90 307 -80 c 2,43,-1
 344 5 l 1,44,-1
 410 5 l 1,45,-1
 388 -53 l 1,46,47
 440 -54 440 -54 465 -77.5 c 128,-1,48
 490 -101 490 -101 490 -132 c 0,49,28
 490 -169 490 -169 455 -191 c 128,-1,29
EndSplineSet
EndChar

StartChar: Egrave
Encoding: 200 200 137
Width: 638
GlyphClass: 2
Flags: W
AnchorPoint: "Anchor-5" 0 0 basechar 0
AnchorPoint: "Anchor-4" 337 0 basechar 0
AnchorPoint: "Anchor-3" 331 723 basechar 0
AnchorPoint: "Anchor-2" 579 10 basechar 0
LayerCount: 2
Fore
SplineSet
77 723 m 1,0,-1
 578 723 l 1,1,-1
 577 596 l 1,2,-1
 229 596 l 1,3,-1
 229 426 l 1,4,-1
 530 426 l 1,5,-1
 530 302 l 1,6,-1
 228 302 l 1,7,-1
 228 128 l 1,8,-1
 582 128 l 1,9,-1
 582 0 l 1,10,-1
 77 0 l 1,11,-1
 77 723 l 1,0,-1
469 837 m 1,12,-1
 448 773 l 1,13,-1
 181 842 l 1,14,-1
 216 940 l 1,15,-1
 469 837 l 1,12,-1
EndSplineSet
EndChar

StartChar: Eacute
Encoding: 201 201 138
Width: 638
GlyphClass: 2
Flags: W
AnchorPoint: "Anchor-5" 0 0 basechar 0
AnchorPoint: "Anchor-4" 337 0 basechar 0
AnchorPoint: "Anchor-3" 331 723 basechar 0
AnchorPoint: "Anchor-2" 579 10 basechar 0
LayerCount: 2
Fore
SplineSet
77 723 m 1,0,-1
 578 723 l 1,1,-1
 577 596 l 1,2,-1
 229 596 l 1,3,-1
 229 426 l 1,4,-1
 530 426 l 1,5,-1
 530 302 l 1,6,-1
 228 302 l 1,7,-1
 228 128 l 1,8,-1
 582 128 l 1,9,-1
 582 0 l 1,10,-1
 77 0 l 1,11,-1
 77 723 l 1,0,-1
475 842 m 1,12,-1
 209 773 l 1,13,-1
 188 837 l 1,14,-1
 442 940 l 1,15,-1
 475 842 l 1,12,-1
EndSplineSet
EndChar

StartChar: Ecircumflex
Encoding: 202 202 139
Width: 638
GlyphClass: 2
Flags: W
AnchorPoint: "Anchor-5" 0 0 basechar 0
AnchorPoint: "Anchor-4" 337 0 basechar 0
AnchorPoint: "Anchor-3" 331 723 basechar 0
AnchorPoint: "Anchor-2" 579 10 basechar 0
LayerCount: 2
Fore
SplineSet
77 723 m 1,0,-1
 578 723 l 1,1,-1
 577 596 l 1,2,-1
 229 596 l 1,3,-1
 229 426 l 1,4,-1
 530 426 l 1,5,-1
 530 302 l 1,6,-1
 228 302 l 1,7,-1
 228 128 l 1,8,-1
 582 128 l 1,9,-1
 582 0 l 1,10,-1
 77 0 l 1,11,-1
 77 723 l 1,0,-1
330 875 m 1,12,-1
 257 800 l 1,13,-1
 146 800 l 1,14,-1
 279 936 l 1,15,-1
 383 936 l 1,16,-1
 512 800 l 1,17,-1
 395 800 l 1,18,-1
 330 875 l 1,12,-1
EndSplineSet
EndChar

StartChar: Edieresis
Encoding: 203 203 140
Width: 638
GlyphClass: 2
Flags: W
AnchorPoint: "Anchor-5" 0 0 basechar 0
AnchorPoint: "Anchor-4" 337 0 basechar 0
AnchorPoint: "Anchor-3" 331 723 basechar 0
AnchorPoint: "Anchor-2" 579 10 basechar 0
LayerCount: 2
Fore
SplineSet
77 723 m 1,0,-1
 578 723 l 1,1,-1
 577 596 l 1,2,-1
 229 596 l 1,3,-1
 229 426 l 1,4,-1
 530 426 l 1,5,-1
 530 302 l 1,6,-1
 228 302 l 1,7,-1
 228 128 l 1,8,-1
 582 128 l 1,9,-1
 582 0 l 1,10,-1
 77 0 l 1,11,-1
 77 723 l 1,0,-1
298 802 m 1,12,-1
 165 802 l 1,13,-1
 165 929 l 1,14,-1
 298 929 l 1,15,-1
 298 802 l 1,12,-1
497 802 m 1,16,-1
 364 802 l 1,17,-1
 364 929 l 1,18,-1
 497 929 l 1,19,-1
 497 802 l 1,16,-1
EndSplineSet
EndChar

StartChar: Igrave
Encoding: 204 204 141
Width: 305
GlyphClass: 2
Flags: W
AnchorPoint: "Anchor-5" 0 0 basechar 0
AnchorPoint: "Anchor-4" 161 0 basechar 0
AnchorPoint: "Anchor-3" 154 723 basechar 0
AnchorPoint: "Anchor-2" 209 5 basechar 0
LayerCount: 2
Fore
SplineSet
228 723 m 1,0,-1
 228 0 l 1,1,-1
 77 0 l 1,2,-1
 77 723 l 1,3,-1
 228 723 l 1,0,-1
292 837 m 1,4,-1
 271 773 l 1,5,-1
 4 842 l 1,6,-1
 39 940 l 1,7,-1
 292 837 l 1,4,-1
EndSplineSet
EndChar

StartChar: Iacute
Encoding: 205 205 142
Width: 305
GlyphClass: 2
Flags: W
AnchorPoint: "Anchor-5" 0 0 basechar 0
AnchorPoint: "Anchor-4" 161 0 basechar 0
AnchorPoint: "Anchor-3" 154 723 basechar 0
AnchorPoint: "Anchor-2" 209 5 basechar 0
LayerCount: 2
Fore
SplineSet
228 723 m 1,0,-1
 228 0 l 1,1,-1
 77 0 l 1,2,-1
 77 723 l 1,3,-1
 228 723 l 1,0,-1
298 842 m 1,4,-1
 32 773 l 1,5,-1
 11 837 l 1,6,-1
 265 940 l 1,7,-1
 298 842 l 1,4,-1
EndSplineSet
EndChar

StartChar: Icircumflex
Encoding: 206 206 143
Width: 305
GlyphClass: 2
Flags: W
AnchorPoint: "Anchor-5" 0 0 basechar 0
AnchorPoint: "Anchor-4" 161 0 basechar 0
AnchorPoint: "Anchor-3" 154 723 basechar 0
AnchorPoint: "Anchor-2" 209 5 basechar 0
LayerCount: 2
Fore
SplineSet
228 723 m 1,0,-1
 228 0 l 1,1,-1
 77 0 l 1,2,-1
 77 723 l 1,3,-1
 228 723 l 1,0,-1
153 875 m 1,4,-1
 80 800 l 1,5,-1
 -31 800 l 1,6,-1
 102 936 l 1,7,-1
 206 936 l 1,8,-1
 335 800 l 1,9,-1
 218 800 l 1,10,-1
 153 875 l 1,4,-1
EndSplineSet
EndChar

StartChar: Idieresis
Encoding: 207 207 144
Width: 305
GlyphClass: 2
Flags: W
AnchorPoint: "Anchor-5" 0 0 basechar 0
AnchorPoint: "Anchor-4" 161 0 basechar 0
AnchorPoint: "Anchor-3" 154 723 basechar 0
AnchorPoint: "Anchor-2" 209 5 basechar 0
LayerCount: 2
Fore
SplineSet
228 723 m 1,0,-1
 228 0 l 1,1,-1
 77 0 l 1,2,-1
 77 723 l 1,3,-1
 228 723 l 1,0,-1
121 802 m 1,4,-1
 -12 802 l 1,5,-1
 -12 929 l 1,6,-1
 121 929 l 1,7,-1
 121 802 l 1,4,-1
320 802 m 1,8,-1
 187 802 l 1,9,-1
 187 929 l 1,10,-1
 320 929 l 1,11,-1
 320 802 l 1,8,-1
EndSplineSet
EndChar

StartChar: Eth
Encoding: 208 208 145
Width: 739
GlyphClass: 2
Flags: W
AnchorPoint: "Anchor-5" 0 0 basechar 0
AnchorPoint: "Anchor-4" 0 0 basechar 0
AnchorPoint: "Anchor-3" 380 723 basechar 0
AnchorPoint: "Anchor-2" 0 0 basechar 0
LayerCount: 2
Fore
SplineSet
605.5 624.5 m 128,-1,1
 697 532 697 532 697 365 c 0,2,3
 697 192 697 192 602 96 c 128,-1,4
 507 0 507 0 317 0 c 2,5,-1
 101 0 l 1,6,-1
 101 302 l 1,7,-1
 53 302 l 2,8,9
 41 302 41 302 36 306.5 c 128,-1,10
 31 311 31 311 31 322 c 2,11,-1
 31 394 l 2,12,13
 31 412 31 412 47 412 c 2,14,-1
 101 412 l 1,15,-1
 101 723 l 1,16,17
 260 723 260 723 322 722 c 0,18,0
 514 717 514 717 605.5 624.5 c 128,-1,1
478.5 181 m 128,-1,20
 539 240 539 240 539 366 c 0,21,22
 539 487 539 487 482.5 544.5 c 128,-1,23
 426 602 426 602 322 602 c 2,24,-1
 253 602 l 1,25,-1
 253 412 l 1,26,-1
 387 412 l 2,27,28
 401 412 401 412 401 396 c 2,29,-1
 401 325 l 2,30,31
 401 312 401 312 395 307 c 128,-1,32
 389 302 389 302 375 302 c 2,33,-1
 253 302 l 1,34,-1
 253 122 l 1,35,-1
 321 122 l 2,36,19
 418 122 418 122 478.5 181 c 128,-1,20
EndSplineSet
EndChar

StartChar: Ntilde
Encoding: 209 209 146
Width: 780
GlyphClass: 2
Flags: W
AnchorPoint: "Anchor-5" 0 0 basechar 0
AnchorPoint: "Anchor-4" 383 0 basechar 0
AnchorPoint: "Anchor-3" 394 723 basechar 0
AnchorPoint: "Anchor-2" 0 0 basechar 0
LayerCount: 2
Fore
SplineSet
703 723 m 1,0,-1
 703 0 l 1,1,-1
 567 0 l 1,2,-1
 228 491 l 1,3,-1
 228 0 l 1,4,-1
 77 0 l 1,5,-1
 77 723 l 1,6,-1
 227 723 l 1,7,-1
 552 252 l 1,8,-1
 552 723 l 1,9,-1
 703 723 l 1,0,-1
518 825 m 128,-1,11
 495 817 495 817 469 817 c 0,12,13
 450 817 450 817 435.5 820.5 c 128,-1,14
 421 824 421 824 394 832 c 0,15,16
 377 837 377 837 359 841.5 c 128,-1,17
 341 846 341 846 324 846 c 0,18,19
 304 846 304 846 290.5 841 c 128,-1,20
 277 836 277 836 259 823 c 0,21,22
 252 818 252 818 249 818 c 0,23,24
 243 818 243 818 240 829 c 2,25,-1
 226 872 l 2,26,27
 224 878 224 878 224 881 c 0,28,29
 224 887 224 887 232 895 c 0,30,31
 251 912 251 912 271 921.5 c 128,-1,32
 291 931 291 931 319 931 c 0,33,34
 339 931 339 931 357.5 926.5 c 128,-1,35
 376 922 376 922 402 914 c 0,36,37
 419 909 419 909 436.5 904.5 c 128,-1,38
 454 900 454 900 468 900 c 0,39,40
 487 900 487 900 503 906.5 c 128,-1,41
 519 913 519 913 536 924 c 0,42,43
 541 928 541 928 547 928 c 0,44,45
 554 928 554 928 557 918 c 2,46,-1
 568 867 l 2,47,48
 569 865 569 865 569 860 c 0,49,50
 569 852 569 852 558 844 c 0,51,10
 541 833 541 833 518 825 c 128,-1,11
EndSplineSet
EndChar

StartChar: Ograve
Encoding: 210 210 147
Width: 754
GlyphClass: 2
Flags: W
AnchorPoint: "Anchor-5" 0 0 basechar 0
AnchorPoint: "Anchor-4" 379 0 basechar 0
AnchorPoint: "Anchor-3" 378 723 basechar 0
AnchorPoint: "Anchor-2" 462 10 basechar 0
LayerCount: 2
Fore
SplineSet
199.5 34.5 m 128,-1,1
 124 79 124 79 83.5 162 c 128,-1,2
 43 245 43 245 43 359 c 0,3,4
 43 474 43 474 84.5 558.5 c 128,-1,5
 126 643 126 643 201.5 688 c 128,-1,6
 277 733 277 733 378 733 c 0,7,8
 478 733 478 733 553.5 688 c 128,-1,9
 629 643 629 643 670 558.5 c 128,-1,10
 711 474 711 474 711 360 c 0,11,12
 711 247 711 247 670.5 163.5 c 128,-1,13
 630 80 630 80 554.5 35 c 128,-1,14
 479 -10 479 -10 378 -10 c 0,15,0
 275 -10 275 -10 199.5 34.5 c 128,-1,1
547 358 m 0,16,17
 547 487 547 487 503 548 c 128,-1,18
 459 609 459 609 378 609 c 128,-1,19
 297 609 297 609 252.5 548 c 128,-1,20
 208 487 208 487 208 358 c 0,21,22
 208 232 208 232 252.5 173 c 128,-1,23
 297 114 297 114 378 114 c 0,24,25
 547 114 547 114 547 358 c 0,16,17
516 837 m 1,26,-1
 495 773 l 1,27,-1
 228 842 l 1,28,-1
 263 940 l 1,29,-1
 516 837 l 1,26,-1
EndSplineSet
EndChar

StartChar: Oacute
Encoding: 211 211 148
Width: 754
GlyphClass: 2
Flags: W
AnchorPoint: "Anchor-5" 0 0 basechar 0
AnchorPoint: "Anchor-4" 379 0 basechar 0
AnchorPoint: "Anchor-3" 378 723 basechar 0
AnchorPoint: "Anchor-2" 462 10 basechar 0
LayerCount: 2
Fore
SplineSet
199.5 34.5 m 128,-1,1
 124 79 124 79 83.5 162 c 128,-1,2
 43 245 43 245 43 359 c 0,3,4
 43 474 43 474 84.5 558.5 c 128,-1,5
 126 643 126 643 201.5 688 c 128,-1,6
 277 733 277 733 378 733 c 0,7,8
 478 733 478 733 553.5 688 c 128,-1,9
 629 643 629 643 670 558.5 c 128,-1,10
 711 474 711 474 711 360 c 0,11,12
 711 247 711 247 670.5 163.5 c 128,-1,13
 630 80 630 80 554.5 35 c 128,-1,14
 479 -10 479 -10 378 -10 c 0,15,0
 275 -10 275 -10 199.5 34.5 c 128,-1,1
547 358 m 0,16,17
 547 487 547 487 503 548 c 128,-1,18
 459 609 459 609 378 609 c 128,-1,19
 297 609 297 609 252.5 548 c 128,-1,20
 208 487 208 487 208 358 c 0,21,22
 208 232 208 232 252.5 173 c 128,-1,23
 297 114 297 114 378 114 c 0,24,25
 547 114 547 114 547 358 c 0,16,17
522 842 m 1,26,-1
 256 773 l 1,27,-1
 235 837 l 1,28,-1
 489 940 l 1,29,-1
 522 842 l 1,26,-1
EndSplineSet
EndChar

StartChar: Ocircumflex
Encoding: 212 212 149
Width: 754
GlyphClass: 2
Flags: W
AnchorPoint: "Anchor-5" 0 0 basechar 0
AnchorPoint: "Anchor-4" 379 0 basechar 0
AnchorPoint: "Anchor-3" 378 723 basechar 0
AnchorPoint: "Anchor-2" 462 10 basechar 0
LayerCount: 2
Fore
SplineSet
199.5 34.5 m 128,-1,1
 124 79 124 79 83.5 162 c 128,-1,2
 43 245 43 245 43 359 c 0,3,4
 43 474 43 474 84.5 558.5 c 128,-1,5
 126 643 126 643 201.5 688 c 128,-1,6
 277 733 277 733 378 733 c 0,7,8
 478 733 478 733 553.5 688 c 128,-1,9
 629 643 629 643 670 558.5 c 128,-1,10
 711 474 711 474 711 360 c 0,11,12
 711 247 711 247 670.5 163.5 c 128,-1,13
 630 80 630 80 554.5 35 c 128,-1,14
 479 -10 479 -10 378 -10 c 0,15,0
 275 -10 275 -10 199.5 34.5 c 128,-1,1
547 358 m 0,16,17
 547 487 547 487 503 548 c 128,-1,18
 459 609 459 609 378 609 c 128,-1,19
 297 609 297 609 252.5 548 c 128,-1,20
 208 487 208 487 208 358 c 0,21,22
 208 232 208 232 252.5 173 c 128,-1,23
 297 114 297 114 378 114 c 0,24,25
 547 114 547 114 547 358 c 0,16,17
377 875 m 1,26,-1
 304 800 l 1,27,-1
 193 800 l 1,28,-1
 326 936 l 1,29,-1
 430 936 l 1,30,-1
 559 800 l 1,31,-1
 442 800 l 1,32,-1
 377 875 l 1,26,-1
EndSplineSet
EndChar

StartChar: Otilde
Encoding: 213 213 150
Width: 754
GlyphClass: 2
Flags: W
AnchorPoint: "Anchor-5" 0 0 basechar 0
AnchorPoint: "Anchor-4" 379 0 basechar 0
AnchorPoint: "Anchor-3" 378 723 basechar 0
AnchorPoint: "Anchor-2" 462 10 basechar 0
LayerCount: 2
Fore
SplineSet
199.5 34.5 m 128,-1,1
 124 79 124 79 83.5 162 c 128,-1,2
 43 245 43 245 43 359 c 0,3,4
 43 474 43 474 84.5 558.5 c 128,-1,5
 126 643 126 643 201.5 688 c 128,-1,6
 277 733 277 733 378 733 c 0,7,8
 478 733 478 733 553.5 688 c 128,-1,9
 629 643 629 643 670 558.5 c 128,-1,10
 711 474 711 474 711 360 c 0,11,12
 711 247 711 247 670.5 163.5 c 128,-1,13
 630 80 630 80 554.5 35 c 128,-1,14
 479 -10 479 -10 378 -10 c 0,15,0
 275 -10 275 -10 199.5 34.5 c 128,-1,1
547 358 m 0,16,17
 547 487 547 487 503 548 c 128,-1,18
 459 609 459 609 378 609 c 128,-1,19
 297 609 297 609 252.5 548 c 128,-1,20
 208 487 208 487 208 358 c 0,21,22
 208 232 208 232 252.5 173 c 128,-1,23
 297 114 297 114 378 114 c 0,24,25
 547 114 547 114 547 358 c 0,16,17
502 825 m 128,-1,27
 479 817 479 817 453 817 c 0,28,29
 434 817 434 817 419.5 820.5 c 128,-1,30
 405 824 405 824 378 832 c 0,31,32
 361 837 361 837 343 841.5 c 128,-1,33
 325 846 325 846 308 846 c 0,34,35
 288 846 288 846 274.5 841 c 128,-1,36
 261 836 261 836 243 823 c 0,37,38
 236 818 236 818 233 818 c 0,39,40
 227 818 227 818 224 829 c 2,41,-1
 210 872 l 2,42,43
 208 878 208 878 208 881 c 0,44,45
 208 887 208 887 216 895 c 0,46,47
 235 912 235 912 255 921.5 c 128,-1,48
 275 931 275 931 303 931 c 0,49,50
 323 931 323 931 341.5 926.5 c 128,-1,51
 360 922 360 922 386 914 c 0,52,53
 403 909 403 909 420.5 904.5 c 128,-1,54
 438 900 438 900 452 900 c 0,55,56
 471 900 471 900 487 906.5 c 128,-1,57
 503 913 503 913 520 924 c 0,58,59
 525 928 525 928 531 928 c 0,60,61
 538 928 538 928 541 918 c 2,62,-1
 552 867 l 2,63,64
 553 865 553 865 553 860 c 0,65,66
 553 852 553 852 542 844 c 0,67,26
 525 833 525 833 502 825 c 128,-1,27
EndSplineSet
EndChar

StartChar: Odieresis
Encoding: 214 214 151
Width: 754
GlyphClass: 2
Flags: W
AnchorPoint: "Anchor-5" 0 0 basechar 0
AnchorPoint: "Anchor-4" 379 0 basechar 0
AnchorPoint: "Anchor-3" 378 723 basechar 0
AnchorPoint: "Anchor-2" 462 10 basechar 0
LayerCount: 2
Fore
SplineSet
199.5 34.5 m 128,-1,1
 124 79 124 79 83.5 162 c 128,-1,2
 43 245 43 245 43 359 c 0,3,4
 43 474 43 474 84.5 558.5 c 128,-1,5
 126 643 126 643 201.5 688 c 128,-1,6
 277 733 277 733 378 733 c 0,7,8
 478 733 478 733 553.5 688 c 128,-1,9
 629 643 629 643 670 558.5 c 128,-1,10
 711 474 711 474 711 360 c 0,11,12
 711 247 711 247 670.5 163.5 c 128,-1,13
 630 80 630 80 554.5 35 c 128,-1,14
 479 -10 479 -10 378 -10 c 0,15,0
 275 -10 275 -10 199.5 34.5 c 128,-1,1
547 358 m 0,16,17
 547 487 547 487 503 548 c 128,-1,18
 459 609 459 609 378 609 c 128,-1,19
 297 609 297 609 252.5 548 c 128,-1,20
 208 487 208 487 208 358 c 0,21,22
 208 232 208 232 252.5 173 c 128,-1,23
 297 114 297 114 378 114 c 0,24,25
 547 114 547 114 547 358 c 0,16,17
345 802 m 1,26,-1
 212 802 l 1,27,-1
 212 929 l 1,28,-1
 345 929 l 1,29,-1
 345 802 l 1,26,-1
544 802 m 1,30,-1
 411 802 l 1,31,-1
 411 929 l 1,32,-1
 544 929 l 1,33,-1
 544 802 l 1,30,-1
EndSplineSet
EndChar

StartChar: multiply
Encoding: 215 215 152
Width: 579
GlyphClass: 2
Flags: W
LayerCount: 2
Fore
SplineSet
364 363 m 1,0,-1
 518 210 l 1,1,-1
 440 132 l 1,2,-1
 287 286 l 1,3,-1
 133 132 l 1,4,-1
 56 210 l 1,5,-1
 209 363 l 1,6,-1
 55 518 l 1,7,-1
 132 595 l 1,8,-1
 286 441 l 1,9,-1
 441 596 l 1,10,-1
 519 518 l 1,11,-1
 364 363 l 1,0,-1
EndSplineSet
EndChar

StartChar: Oslash
Encoding: 216 216 153
Width: 762
GlyphClass: 2
Flags: W
AnchorPoint: "Anchor-5" 0 0 basechar 0
AnchorPoint: "Anchor-4" 0 0 basechar 0
AnchorPoint: "Anchor-3" 378 723 basechar 0
AnchorPoint: "Anchor-2" 0 0 basechar 0
LayerCount: 2
Fore
SplineSet
742 669 m 0,0,1
 742 663 742 663 736 658 c 2,2,-1
 659 579 l 1,3,4
 712 489 712 489 712 360 c 0,5,6
 712 247 712 247 671.5 163.5 c 128,-1,7
 631 80 631 80 555.5 35 c 128,-1,8
 480 -10 480 -10 378 -10 c 0,9,10
 243 -10 243 -10 158 66 c 1,11,-1
 97 4 l 2,12,13
 88 -6 88 -6 80 -6 c 128,-1,14
 72 -6 72 -6 62 4 c 2,15,-1
 30 36 l 2,16,17
 20 46 20 46 20 53 c 128,-1,18
 20 60 20 60 26 66 c 2,19,-1
 96 139 l 1,20,21
 43 229 43 229 43 359 c 0,22,23
 43 474 43 474 84.5 558.5 c 128,-1,24
 126 643 126 643 201.5 688 c 128,-1,25
 277 733 277 733 378 733 c 0,26,27
 514 733 514 733 600 653 c 1,28,-1
 667 721 l 2,29,30
 675 729 675 729 682 729 c 0,31,32
 688 729 688 729 692 725 c 2,33,-1
 736 680 l 2,34,35
 742 676 742 676 742 669 c 0,0,1
235 275 m 1,36,-1
 495 549 l 1,37,38
 477 582 477 582 448 597.5 c 128,-1,39
 419 613 419 613 378 613 c 0,40,41
 298 613 298 613 261 552 c 128,-1,42
 224 491 224 491 224 358 c 0,43,44
 224 307 224 307 235 275 c 1,36,-1
520 442 m 1,45,-1
 261 169 l 1,46,47
 297 111 297 111 379 111 c 0,48,49
 459 111 459 111 495 169 c 128,-1,50
 531 227 531 227 531 358 c 0,51,52
 531 404 531 404 520 442 c 1,45,-1
EndSplineSet
EndChar

StartChar: Ugrave
Encoding: 217 217 154
Width: 737
GlyphClass: 2
Flags: W
AnchorPoint: "Anchor-5" 0 0 basechar 0
AnchorPoint: "Anchor-4" 0 0 basechar 0
AnchorPoint: "Anchor-3" 356 723 basechar 0
AnchorPoint: "Anchor-2" 445 11 basechar 0
LayerCount: 2
Fore
SplineSet
591 64.5 m 128,-1,1
 522 -10 522 -10 369 -10 c 0,2,3
 215 -10 215 -10 146 65 c 128,-1,4
 77 140 77 140 77 282 c 2,5,-1
 77 723 l 1,6,-1
 231 723 l 1,7,-1
 231 272 l 2,8,9
 231 194 231 194 268 156 c 128,-1,10
 305 118 305 118 369 118 c 0,11,12
 432 118 432 118 470 156 c 128,-1,13
 508 194 508 194 508 272 c 2,14,-1
 508 723 l 1,15,-1
 660 723 l 1,16,-1
 660 278 l 2,17,0
 660 139 660 139 591 64.5 c 128,-1,1
494 837 m 1,18,-1
 473 773 l 1,19,-1
 206 842 l 1,20,-1
 241 940 l 1,21,-1
 494 837 l 1,18,-1
EndSplineSet
EndChar

StartChar: Uacute
Encoding: 218 218 155
Width: 737
GlyphClass: 2
Flags: W
AnchorPoint: "Anchor-5" 0 0 basechar 0
AnchorPoint: "Anchor-4" 0 0 basechar 0
AnchorPoint: "Anchor-3" 356 723 basechar 0
AnchorPoint: "Anchor-2" 445 11 basechar 0
LayerCount: 2
Fore
SplineSet
591 64.5 m 128,-1,1
 522 -10 522 -10 369 -10 c 0,2,3
 215 -10 215 -10 146 65 c 128,-1,4
 77 140 77 140 77 282 c 2,5,-1
 77 723 l 1,6,-1
 231 723 l 1,7,-1
 231 272 l 2,8,9
 231 194 231 194 268 156 c 128,-1,10
 305 118 305 118 369 118 c 0,11,12
 432 118 432 118 470 156 c 128,-1,13
 508 194 508 194 508 272 c 2,14,-1
 508 723 l 1,15,-1
 660 723 l 1,16,-1
 660 278 l 2,17,0
 660 139 660 139 591 64.5 c 128,-1,1
500 842 m 1,18,-1
 234 773 l 1,19,-1
 213 837 l 1,20,-1
 467 940 l 1,21,-1
 500 842 l 1,18,-1
EndSplineSet
EndChar

StartChar: Ucircumflex
Encoding: 219 219 156
Width: 737
GlyphClass: 2
Flags: W
AnchorPoint: "Anchor-5" 0 0 basechar 0
AnchorPoint: "Anchor-4" 0 0 basechar 0
AnchorPoint: "Anchor-3" 356 723 basechar 0
AnchorPoint: "Anchor-2" 445 11 basechar 0
LayerCount: 2
Fore
SplineSet
591 64.5 m 128,-1,1
 522 -10 522 -10 369 -10 c 0,2,3
 215 -10 215 -10 146 65 c 128,-1,4
 77 140 77 140 77 282 c 2,5,-1
 77 723 l 1,6,-1
 231 723 l 1,7,-1
 231 272 l 2,8,9
 231 194 231 194 268 156 c 128,-1,10
 305 118 305 118 369 118 c 0,11,12
 432 118 432 118 470 156 c 128,-1,13
 508 194 508 194 508 272 c 2,14,-1
 508 723 l 1,15,-1
 660 723 l 1,16,-1
 660 278 l 2,17,0
 660 139 660 139 591 64.5 c 128,-1,1
355 875 m 1,18,-1
 282 800 l 1,19,-1
 171 800 l 1,20,-1
 304 936 l 1,21,-1
 408 936 l 1,22,-1
 537 800 l 1,23,-1
 420 800 l 1,24,-1
 355 875 l 1,18,-1
EndSplineSet
EndChar

StartChar: Udieresis
Encoding: 220 220 157
Width: 737
GlyphClass: 2
Flags: W
AnchorPoint: "Anchor-5" 0 0 basechar 0
AnchorPoint: "Anchor-4" 0 0 basechar 0
AnchorPoint: "Anchor-3" 356 723 basechar 0
AnchorPoint: "Anchor-2" 445 11 basechar 0
LayerCount: 2
Fore
SplineSet
591 64.5 m 128,-1,1
 522 -10 522 -10 369 -10 c 0,2,3
 215 -10 215 -10 146 65 c 128,-1,4
 77 140 77 140 77 282 c 2,5,-1
 77 723 l 1,6,-1
 231 723 l 1,7,-1
 231 272 l 2,8,9
 231 194 231 194 268 156 c 128,-1,10
 305 118 305 118 369 118 c 0,11,12
 432 118 432 118 470 156 c 128,-1,13
 508 194 508 194 508 272 c 2,14,-1
 508 723 l 1,15,-1
 660 723 l 1,16,-1
 660 278 l 2,17,0
 660 139 660 139 591 64.5 c 128,-1,1
323 802 m 1,18,-1
 190 802 l 1,19,-1
 190 929 l 1,20,-1
 323 929 l 1,21,-1
 323 802 l 1,18,-1
522 802 m 1,22,-1
 389 802 l 1,23,-1
 389 929 l 1,24,-1
 522 929 l 1,25,-1
 522 802 l 1,22,-1
EndSplineSet
EndChar

StartChar: Yacute
Encoding: 221 221 158
Width: 662
GlyphClass: 2
Flags: W
AnchorPoint: "Anchor-5" 0 0 basechar 0
AnchorPoint: "Anchor-4" 0 0 basechar 0
AnchorPoint: "Anchor-3" 347 723 basechar 0
AnchorPoint: "Anchor-2" 0 0 basechar 0
LayerCount: 2
Fore
SplineSet
406 304 m 1,0,-1
 406 0 l 1,1,-1
 255 0 l 1,2,-1
 255 304 l 1,3,-1
 4 723 l 1,4,-1
 167 723 l 1,5,-1
 331 434 l 1,6,-1
 493 723 l 1,7,-1
 658 723 l 1,8,-1
 406 304 l 1,0,-1
491 842 m 1,9,-1
 225 773 l 1,10,-1
 204 837 l 1,11,-1
 458 940 l 1,12,-1
 491 842 l 1,9,-1
EndSplineSet
EndChar

StartChar: Thorn
Encoding: 222 222 159
Width: 708
GlyphClass: 2
Flags: W
LayerCount: 2
Fore
SplineSet
607 206.5 m 128,-1,1
 535 149 535 149 415 149 c 2,2,-1
 249 149 l 1,3,-1
 249 0 l 1,4,-1
 77 0 l 1,5,-1
 77 723 l 1,6,-1
 249 723 l 1,7,-1
 249 585 l 1,8,-1
 395 585 l 2,9,10
 520 585 520 585 599.5 529.5 c 128,-1,11
 679 474 679 474 679 368 c 0,12,0
 679 264 679 264 607 206.5 c 128,-1,1
471.5 438.5 m 128,-1,14
 439 462 439 462 385 462 c 2,15,-1
 249 462 l 1,16,-1
 249 272 l 1,17,-1
 391 272 l 2,18,19
 443 272 443 272 473.5 298 c 128,-1,20
 504 324 504 324 504 370 c 0,21,13
 504 415 504 415 471.5 438.5 c 128,-1,14
EndSplineSet
EndChar

StartChar: germandbls
Encoding: 223 223 160
Width: 643
GlyphClass: 2
Flags: W
LayerCount: 2
Fore
SplineSet
486 683 m 128,-1,1
 539 643 539 643 539 574 c 0,2,3
 539 523 539 523 508 490.5 c 128,-1,4
 477 458 477 458 408 428 c 0,5,6
 394 421 394 421 388 415.5 c 128,-1,7
 382 410 382 410 382 402 c 128,-1,8
 382 394 382 394 387.5 390 c 128,-1,9
 393 386 393 386 409 380 c 0,10,11
 477 351 477 351 515.5 329 c 128,-1,12
 554 307 554 307 582 268 c 128,-1,13
 610 229 610 229 610 169 c 0,14,15
 610 83 610 83 552.5 36.5 c 128,-1,16
 495 -10 495 -10 397 -10 c 0,17,18
 318 -10 318 -10 264 23 c 1,19,-1
 308 116 l 1,20,21
 331 102 331 102 348.5 94.5 c 128,-1,22
 366 87 366 87 392 87 c 0,23,24
 429 87 429 87 452 104 c 128,-1,25
 475 121 475 121 475 153 c 0,26,27
 475 184 475 184 453.5 200 c 128,-1,28
 432 216 432 216 380 236 c 0,29,30
 330 257 330 257 301 287.5 c 128,-1,31
 272 318 272 318 272 367 c 0,32,33
 272 402 272 402 288.5 428 c 128,-1,34
 305 454 305 454 336 478 c 0,35,36
 343 484 343 484 363 500 c 128,-1,37
 383 516 383 516 393 532 c 128,-1,38
 403 548 403 548 403 566 c 0,39,40
 403 592 403 592 382.5 609 c 128,-1,41
 362 626 362 626 326 626 c 0,42,43
 280 626 280 626 254 598 c 128,-1,44
 228 570 228 570 228 522 c 2,45,-1
 228 0 l 1,46,-1
 79 0 l 1,47,-1
 79 389 l 1,48,-1
 20 389 l 1,49,-1
 20 493 l 1,50,-1
 78 493 l 1,51,52
 81 593 81 593 143 658 c 128,-1,53
 205 723 205 723 333 723 c 0,54,0
 433 723 433 723 486 683 c 128,-1,1
EndSplineSet
EndChar

StartChar: agrave
Encoding: 224 224 161
Width: 573
GlyphClass: 2
Flags: W
AnchorPoint: "Anchor-5" 0 0 basechar 0
AnchorPoint: "Anchor-4" 0 0 basechar 0
AnchorPoint: "Anchor-3" 287 517 basechar 0
AnchorPoint: "Anchor-2" 485 11 basechar 0
LayerCount: 2
Fore
SplineSet
84 32.5 m 128,-1,1
 35 75 35 75 35 149 c 0,2,3
 35 234 35 234 99.5 277 c 128,-1,4
 164 320 164 320 300 323 c 2,5,-1
 363 326 l 1,6,-1
 363 354 l 2,7,8
 363 389 363 389 342 407.5 c 128,-1,9
 321 426 321 426 281 426 c 0,10,11
 249 425 249 425 221 410.5 c 128,-1,12
 193 396 193 396 176 366 c 1,13,-1
 53 372 l 1,14,15
 65 449 65 449 128.5 488 c 128,-1,16
 192 527 192 527 288 527 c 0,17,18
 507 527 507 527 507 364 c 2,19,-1
 507 0 l 1,20,-1
 381 0 l 1,21,-1
 370 66 l 1,22,23
 346 31 346 31 304.5 10.5 c 128,-1,24
 263 -10 263 -10 210 -10 c 0,25,0
 133 -10 133 -10 84 32.5 c 128,-1,1
330.5 114.5 m 128,-1,27
 362 140 362 140 363 173 c 2,28,-1
 363 247 l 1,29,-1
 312 244 l 2,30,31
 251 241 251 241 214.5 223.5 c 128,-1,32
 178 206 178 206 178 164 c 0,33,34
 178 130 178 130 201.5 109.5 c 128,-1,35
 225 89 225 89 261 89 c 0,36,26
 299 89 299 89 330.5 114.5 c 128,-1,27
425 631 m 1,37,-1
 404 567 l 1,38,-1
 137 636 l 1,39,-1
 172 734 l 1,40,-1
 425 631 l 1,37,-1
EndSplineSet
EndChar

StartChar: aacute
Encoding: 225 225 162
Width: 573
GlyphClass: 2
Flags: W
AnchorPoint: "Anchor-5" 0 0 basechar 0
AnchorPoint: "Anchor-4" 0 0 basechar 0
AnchorPoint: "Anchor-3" 287 517 basechar 0
AnchorPoint: "Anchor-2" 485 11 basechar 0
LayerCount: 2
Fore
SplineSet
84 32.5 m 128,-1,1
 35 75 35 75 35 149 c 0,2,3
 35 234 35 234 99.5 277 c 128,-1,4
 164 320 164 320 300 323 c 2,5,-1
 363 326 l 1,6,-1
 363 354 l 2,7,8
 363 389 363 389 342 407.5 c 128,-1,9
 321 426 321 426 281 426 c 0,10,11
 249 425 249 425 221 410.5 c 128,-1,12
 193 396 193 396 176 366 c 1,13,-1
 53 372 l 1,14,15
 65 449 65 449 128.5 488 c 128,-1,16
 192 527 192 527 288 527 c 0,17,18
 507 527 507 527 507 364 c 2,19,-1
 507 0 l 1,20,-1
 381 0 l 1,21,-1
 370 66 l 1,22,23
 346 31 346 31 304.5 10.5 c 128,-1,24
 263 -10 263 -10 210 -10 c 0,25,0
 133 -10 133 -10 84 32.5 c 128,-1,1
330.5 114.5 m 128,-1,27
 362 140 362 140 363 173 c 2,28,-1
 363 247 l 1,29,-1
 312 244 l 2,30,31
 251 241 251 241 214.5 223.5 c 128,-1,32
 178 206 178 206 178 164 c 0,33,34
 178 130 178 130 201.5 109.5 c 128,-1,35
 225 89 225 89 261 89 c 0,36,26
 299 89 299 89 330.5 114.5 c 128,-1,27
431 636 m 1,37,-1
 165 567 l 1,38,-1
 144 631 l 1,39,-1
 398 734 l 1,40,-1
 431 636 l 1,37,-1
EndSplineSet
EndChar

StartChar: acircumflex
Encoding: 226 226 163
Width: 573
GlyphClass: 2
Flags: W
AnchorPoint: "Anchor-5" 0 0 basechar 0
AnchorPoint: "Anchor-4" 0 0 basechar 0
AnchorPoint: "Anchor-3" 287 517 basechar 0
AnchorPoint: "Anchor-2" 485 11 basechar 0
LayerCount: 2
Fore
SplineSet
84 32.5 m 128,-1,1
 35 75 35 75 35 149 c 0,2,3
 35 234 35 234 99.5 277 c 128,-1,4
 164 320 164 320 300 323 c 2,5,-1
 363 326 l 1,6,-1
 363 354 l 2,7,8
 363 389 363 389 342 407.5 c 128,-1,9
 321 426 321 426 281 426 c 0,10,11
 249 425 249 425 221 410.5 c 128,-1,12
 193 396 193 396 176 366 c 1,13,-1
 53 372 l 1,14,15
 65 449 65 449 128.5 488 c 128,-1,16
 192 527 192 527 288 527 c 0,17,18
 507 527 507 527 507 364 c 2,19,-1
 507 0 l 1,20,-1
 381 0 l 1,21,-1
 370 66 l 1,22,23
 346 31 346 31 304.5 10.5 c 128,-1,24
 263 -10 263 -10 210 -10 c 0,25,0
 133 -10 133 -10 84 32.5 c 128,-1,1
330.5 114.5 m 128,-1,27
 362 140 362 140 363 173 c 2,28,-1
 363 247 l 1,29,-1
 312 244 l 2,30,31
 251 241 251 241 214.5 223.5 c 128,-1,32
 178 206 178 206 178 164 c 0,33,34
 178 130 178 130 201.5 109.5 c 128,-1,35
 225 89 225 89 261 89 c 0,36,26
 299 89 299 89 330.5 114.5 c 128,-1,27
286 669 m 1,37,-1
 213 594 l 1,38,-1
 102 594 l 1,39,-1
 235 730 l 1,40,-1
 339 730 l 1,41,-1
 468 594 l 1,42,-1
 351 594 l 1,43,-1
 286 669 l 1,37,-1
EndSplineSet
EndChar

StartChar: atilde
Encoding: 227 227 164
Width: 573
GlyphClass: 2
Flags: W
AnchorPoint: "Anchor-5" 0 0 basechar 0
AnchorPoint: "Anchor-4" 0 0 basechar 0
AnchorPoint: "Anchor-3" 287 517 basechar 0
AnchorPoint: "Anchor-2" 485 11 basechar 0
LayerCount: 2
Fore
SplineSet
84 32.5 m 128,-1,1
 35 75 35 75 35 149 c 0,2,3
 35 234 35 234 99.5 277 c 128,-1,4
 164 320 164 320 300 323 c 2,5,-1
 363 326 l 1,6,-1
 363 354 l 2,7,8
 363 389 363 389 342 407.5 c 128,-1,9
 321 426 321 426 281 426 c 0,10,11
 249 425 249 425 221 410.5 c 128,-1,12
 193 396 193 396 176 366 c 1,13,-1
 53 372 l 1,14,15
 65 449 65 449 128.5 488 c 128,-1,16
 192 527 192 527 288 527 c 0,17,18
 507 527 507 527 507 364 c 2,19,-1
 507 0 l 1,20,-1
 381 0 l 1,21,-1
 370 66 l 1,22,23
 346 31 346 31 304.5 10.5 c 128,-1,24
 263 -10 263 -10 210 -10 c 0,25,0
 133 -10 133 -10 84 32.5 c 128,-1,1
330.5 114.5 m 128,-1,27
 362 140 362 140 363 173 c 2,28,-1
 363 247 l 1,29,-1
 312 244 l 2,30,31
 251 241 251 241 214.5 223.5 c 128,-1,32
 178 206 178 206 178 164 c 0,33,34
 178 130 178 130 201.5 109.5 c 128,-1,35
 225 89 225 89 261 89 c 0,36,26
 299 89 299 89 330.5 114.5 c 128,-1,27
411 619 m 128,-1,38
 388 611 388 611 362 611 c 0,39,40
 343 611 343 611 328.5 614.5 c 128,-1,41
 314 618 314 618 287 626 c 0,42,43
 270 631 270 631 252 635.5 c 128,-1,44
 234 640 234 640 217 640 c 0,45,46
 197 640 197 640 183.5 635 c 128,-1,47
 170 630 170 630 152 617 c 0,48,49
 145 612 145 612 142 612 c 0,50,51
 136 612 136 612 133 623 c 2,52,-1
 119 666 l 2,53,54
 117 672 117 672 117 675 c 0,55,56
 117 681 117 681 125 689 c 0,57,58
 144 706 144 706 164 715.5 c 128,-1,59
 184 725 184 725 212 725 c 0,60,61
 232 725 232 725 250.5 720.5 c 128,-1,62
 269 716 269 716 295 708 c 0,63,64
 312 703 312 703 329.5 698.5 c 128,-1,65
 347 694 347 694 361 694 c 0,66,67
 380 694 380 694 396 700.5 c 128,-1,68
 412 707 412 707 429 718 c 0,69,70
 434 722 434 722 440 722 c 0,71,72
 447 722 447 722 450 712 c 2,73,-1
 461 661 l 2,74,75
 462 659 462 659 462 654 c 0,76,77
 462 646 462 646 451 638 c 0,78,37
 434 627 434 627 411 619 c 128,-1,38
EndSplineSet
EndChar

StartChar: adieresis
Encoding: 228 228 165
Width: 573
GlyphClass: 2
Flags: W
AnchorPoint: "Anchor-5" 0 0 basechar 0
AnchorPoint: "Anchor-4" 0 0 basechar 0
AnchorPoint: "Anchor-3" 287 517 basechar 0
AnchorPoint: "Anchor-2" 485 11 basechar 0
LayerCount: 2
Fore
SplineSet
84 32.5 m 128,-1,1
 35 75 35 75 35 149 c 0,2,3
 35 234 35 234 99.5 277 c 128,-1,4
 164 320 164 320 300 323 c 2,5,-1
 363 326 l 1,6,-1
 363 354 l 2,7,8
 363 389 363 389 342 407.5 c 128,-1,9
 321 426 321 426 281 426 c 0,10,11
 249 425 249 425 221 410.5 c 128,-1,12
 193 396 193 396 176 366 c 1,13,-1
 53 372 l 1,14,15
 65 449 65 449 128.5 488 c 128,-1,16
 192 527 192 527 288 527 c 0,17,18
 507 527 507 527 507 364 c 2,19,-1
 507 0 l 1,20,-1
 381 0 l 1,21,-1
 370 66 l 1,22,23
 346 31 346 31 304.5 10.5 c 128,-1,24
 263 -10 263 -10 210 -10 c 0,25,0
 133 -10 133 -10 84 32.5 c 128,-1,1
330.5 114.5 m 128,-1,27
 362 140 362 140 363 173 c 2,28,-1
 363 247 l 1,29,-1
 312 244 l 2,30,31
 251 241 251 241 214.5 223.5 c 128,-1,32
 178 206 178 206 178 164 c 0,33,34
 178 130 178 130 201.5 109.5 c 128,-1,35
 225 89 225 89 261 89 c 0,36,26
 299 89 299 89 330.5 114.5 c 128,-1,27
254 596 m 1,37,-1
 121 596 l 1,38,-1
 121 723 l 1,39,-1
 254 723 l 1,40,-1
 254 596 l 1,37,-1
453 596 m 1,41,-1
 320 596 l 1,42,-1
 320 723 l 1,43,-1
 453 723 l 1,44,-1
 453 596 l 1,41,-1
EndSplineSet
EndChar

StartChar: aring
Encoding: 229 229 166
Width: 573
GlyphClass: 2
Flags: W
AnchorPoint: "Anchor-5" 0 0 basechar 0
AnchorPoint: "Anchor-4" 0 0 basechar 0
AnchorPoint: "Anchor-3" 287 517 basechar 0
AnchorPoint: "Anchor-2" 485 11 basechar 0
LayerCount: 2
Fore
SplineSet
84 32.5 m 128,-1,1
 35 75 35 75 35 149 c 0,2,3
 35 234 35 234 99.5 277 c 128,-1,4
 164 320 164 320 300 323 c 2,5,-1
 363 326 l 1,6,-1
 363 354 l 2,7,8
 363 389 363 389 342 407.5 c 128,-1,9
 321 426 321 426 281 426 c 0,10,11
 249 425 249 425 221 410.5 c 128,-1,12
 193 396 193 396 176 366 c 1,13,-1
 53 372 l 1,14,15
 65 449 65 449 128.5 488 c 128,-1,16
 192 527 192 527 288 527 c 0,17,18
 507 527 507 527 507 364 c 2,19,-1
 507 0 l 1,20,-1
 381 0 l 1,21,-1
 370 66 l 1,22,23
 346 31 346 31 304.5 10.5 c 128,-1,24
 263 -10 263 -10 210 -10 c 0,25,0
 133 -10 133 -10 84 32.5 c 128,-1,1
330.5 114.5 m 128,-1,27
 362 140 362 140 363 173 c 2,28,-1
 363 247 l 1,29,-1
 312 244 l 2,30,31
 251 241 251 241 214.5 223.5 c 128,-1,32
 178 206 178 206 178 164 c 0,33,34
 178 130 178 130 201.5 109.5 c 128,-1,35
 225 89 225 89 261 89 c 0,36,26
 299 89 299 89 330.5 114.5 c 128,-1,27
365 598.5 m 128,-1,38
 333 567 333 567 287 567 c 128,-1,39
 241 567 241 567 209.5 599 c 128,-1,40
 178 631 178 631 178 678 c 0,41,42
 178 721 178 721 210 752 c 128,-1,43
 242 783 242 783 287 783 c 0,44,45
 333 783 333 783 365 752 c 128,-1,46
 397 721 397 721 397 676 c 0,47,37
 397 630 397 630 365 598.5 c 128,-1,38
321 710 m 128,-1,49
 307 724 307 724 286 724 c 128,-1,50
 265 724 265 724 250.5 710 c 128,-1,51
 236 696 236 696 236 675 c 0,52,53
 236 655 236 655 251 639.5 c 128,-1,54
 266 624 266 624 286 624 c 128,-1,55
 306 624 306 624 320.5 639.5 c 128,-1,56
 335 655 335 655 335 675 c 0,57,48
 335 696 335 696 321 710 c 128,-1,49
EndSplineSet
EndChar

StartChar: ae
Encoding: 230 230 167
Width: 912
GlyphClass: 2
Flags: W
AnchorPoint: "Anchor-5" 0 0 basechar 0
AnchorPoint: "Anchor-4" 0 0 basechar 0
AnchorPoint: "Anchor-3" 453 517 basechar 0
AnchorPoint: "Anchor-2" 0 0 basechar 0
LayerCount: 2
Fore
SplineSet
556.5 131.5 m 128,-1,1
 593 93 593 93 647 93 c 0,2,3
 686 93 686 93 715 110.5 c 128,-1,4
 744 128 744 128 779 165 c 1,5,-1
 872 124 l 1,6,7
 826 51 826 51 768.5 20.5 c 128,-1,8
 711 -10 711 -10 627 -10 c 0,9,10
 508 -10 508 -10 425 79 c 0,11,12
 421 84 421 84 417 79 c 0,13,14
 373 35 373 35 323 12.5 c 128,-1,15
 273 -10 273 -10 202 -10 c 0,16,17
 122 -10 122 -10 78.5 30 c 128,-1,18
 35 70 35 70 35 137 c 0,19,20
 35 215 35 215 102.5 262 c 128,-1,21
 170 309 170 309 302 317 c 2,22,-1
 367 321 l 1,23,-1
 367 354 l 2,24,25
 367 391 367 391 346 411.5 c 128,-1,26
 325 432 325 432 284 432 c 0,27,28
 251 432 251 432 223 415.5 c 128,-1,29
 195 399 195 399 177 362 c 1,30,-1
 48 391 l 1,31,32
 79 460 79 460 135 493.5 c 128,-1,33
 191 527 191 527 289 527 c 0,34,35
 418 526 418 526 468 466 c 1,36,37
 499 496 499 496 539 511.5 c 128,-1,38
 579 527 579 527 625 527 c 0,39,40
 699 527 699 527 756.5 491.5 c 128,-1,41
 814 456 814 456 846.5 389 c 128,-1,42
 879 322 879 322 879 230 c 1,43,-1
 520 230 l 1,44,0
 520 170 520 170 556.5 131.5 c 128,-1,1
553.5 401.5 m 128,-1,46
 522 369 522 369 523 313 c 1,47,-1
 731 312 l 1,48,49
 731 340 731 340 719.5 368.5 c 128,-1,50
 708 397 708 397 685 415.5 c 128,-1,51
 662 434 662 434 631 434 c 0,52,45
 585 434 585 434 553.5 401.5 c 128,-1,46
314 238 m 2,53,54
 259 233 259 233 221 209.5 c 128,-1,55
 183 186 183 186 183 147 c 0,56,57
 183 119 183 119 203 101 c 128,-1,58
 223 83 223 83 258 83 c 0,59,60
 302 83 302 83 334.5 105 c 128,-1,61
 367 127 367 127 367 161 c 2,62,-1
 367 241 l 1,63,-1
 314 238 l 2,53,54
EndSplineSet
EndChar

StartChar: ccedilla
Encoding: 231 231 168
Width: 536
GlyphClass: 2
Flags: W
AnchorPoint: "Anchor-5" 0 0 basechar 0
AnchorPoint: "Anchor-4" 284 0 basechar 0
AnchorPoint: "Anchor-3" 284 517 basechar 0
AnchorPoint: "Anchor-2" 0 0 basechar 0
LayerCount: 2
Fore
SplineSet
432.5 473 m 128,-1,1
 488 419 488 419 500 337 c 1,2,-1
 377 331 l 1,3,4
 359 371 359 371 340.5 392 c 128,-1,5
 322 413 322 413 287 413 c 0,6,7
 235 413 235 413 204.5 372 c 128,-1,8
 174 331 174 331 174 258 c 0,9,10
 174 184 174 184 205.5 140.5 c 128,-1,11
 237 97 237 97 289 97 c 0,12,13
 325 97 325 97 345.5 120.5 c 128,-1,14
 366 144 366 144 381 181 c 1,15,-1
 500 175 l 1,16,17
 490 95 490 95 432.5 42.5 c 128,-1,18
 375 -10 375 -10 285 -10 c 0,19,20
 213 -10 213 -10 155.5 23.5 c 128,-1,21
 98 57 98 57 66 117.5 c 128,-1,22
 34 178 34 178 34 256 c 0,23,24
 34 335 34 335 66 396.5 c 128,-1,25
 98 458 98 458 155 492.5 c 128,-1,26
 212 527 212 527 285 527 c 0,27,0
 377 527 377 527 432.5 473 c 128,-1,1
366 -191 m 128,-1,29
 331 -213 331 -213 280 -213 c 0,30,31
 208 -213 208 -213 164 -186 c 1,32,-1
 184 -136 l 1,33,34
 224 -161 224 -161 262 -161 c 0,35,36
 285 -161 285 -161 298 -152.5 c 128,-1,37
 311 -144 311 -144 311 -130 c 0,38,39
 311 -110 311 -110 291.5 -100 c 128,-1,40
 272 -90 272 -90 226 -90 c 0,41,42
 213 -90 213 -90 218 -80 c 2,43,-1
 255 5 l 1,44,-1
 321 5 l 1,45,-1
 299 -53 l 1,46,47
 351 -54 351 -54 376 -77.5 c 128,-1,48
 401 -101 401 -101 401 -132 c 0,49,28
 401 -169 401 -169 366 -191 c 128,-1,29
EndSplineSet
EndChar

StartChar: egrave
Encoding: 232 232 169
Width: 562
GlyphClass: 2
Flags: W
AnchorPoint: "Anchor-5" 0 0 basechar 0
AnchorPoint: "Anchor-4" 286 0 basechar 0
AnchorPoint: "Anchor-3" 286 517 basechar 0
AnchorPoint: "Anchor-2" 404 23 basechar 0
LayerCount: 2
Fore
SplineSet
212 132.5 m 128,-1,1
 241 99 241 99 291 99 c 0,2,3
 367 99 367 99 392 161 c 1,4,-1
 526 156 l 1,5,6
 516 106 516 106 482 68.5 c 128,-1,7
 448 31 448 31 398.5 10.5 c 128,-1,8
 349 -10 349 -10 294 -10 c 0,9,10
 217 -10 217 -10 158 22.5 c 128,-1,11
 99 55 99 55 66.5 114.5 c 128,-1,12
 34 174 34 174 34 253 c 0,13,14
 34 331 34 331 64 393 c 128,-1,15
 94 455 94 455 151.5 491 c 128,-1,16
 209 527 209 527 286 527 c 0,17,18
 402 527 402 527 464.5 455 c 128,-1,19
 527 383 527 383 527 264 c 2,20,-1
 527 224 l 1,21,-1
 183 224 l 1,22,0
 183 166 183 166 212 132.5 c 128,-1,1
387 313 m 1,23,24
 387 360 387 360 360.5 391 c 128,-1,25
 334 422 334 422 285 422 c 0,26,27
 239 422 239 422 211 389.5 c 128,-1,28
 183 357 183 357 183 313 c 1,29,-1
 387 313 l 1,23,24
424 631 m 1,30,-1
 403 567 l 1,31,-1
 136 636 l 1,32,-1
 171 734 l 1,33,-1
 424 631 l 1,30,-1
EndSplineSet
EndChar

StartChar: eacute
Encoding: 233 233 170
Width: 562
GlyphClass: 2
Flags: W
AnchorPoint: "Anchor-5" 0 0 basechar 0
AnchorPoint: "Anchor-4" 286 0 basechar 0
AnchorPoint: "Anchor-3" 286 517 basechar 0
AnchorPoint: "Anchor-2" 404 23 basechar 0
LayerCount: 2
Fore
SplineSet
212 132.5 m 128,-1,1
 241 99 241 99 291 99 c 0,2,3
 367 99 367 99 392 161 c 1,4,-1
 526 156 l 1,5,6
 516 106 516 106 482 68.5 c 128,-1,7
 448 31 448 31 398.5 10.5 c 128,-1,8
 349 -10 349 -10 294 -10 c 0,9,10
 217 -10 217 -10 158 22.5 c 128,-1,11
 99 55 99 55 66.5 114.5 c 128,-1,12
 34 174 34 174 34 253 c 0,13,14
 34 331 34 331 64 393 c 128,-1,15
 94 455 94 455 151.5 491 c 128,-1,16
 209 527 209 527 286 527 c 0,17,18
 402 527 402 527 464.5 455 c 128,-1,19
 527 383 527 383 527 264 c 2,20,-1
 527 224 l 1,21,-1
 183 224 l 1,22,0
 183 166 183 166 212 132.5 c 128,-1,1
387 313 m 1,23,24
 387 360 387 360 360.5 391 c 128,-1,25
 334 422 334 422 285 422 c 0,26,27
 239 422 239 422 211 389.5 c 128,-1,28
 183 357 183 357 183 313 c 1,29,-1
 387 313 l 1,23,24
430 636 m 1,30,-1
 164 567 l 1,31,-1
 143 631 l 1,32,-1
 397 734 l 1,33,-1
 430 636 l 1,30,-1
EndSplineSet
EndChar

StartChar: ecircumflex
Encoding: 234 234 171
Width: 562
GlyphClass: 2
Flags: W
AnchorPoint: "Anchor-5" 0 0 basechar 0
AnchorPoint: "Anchor-4" 286 0 basechar 0
AnchorPoint: "Anchor-3" 286 517 basechar 0
AnchorPoint: "Anchor-2" 404 23 basechar 0
LayerCount: 2
Fore
SplineSet
212 132.5 m 128,-1,1
 241 99 241 99 291 99 c 0,2,3
 367 99 367 99 392 161 c 1,4,-1
 526 156 l 1,5,6
 516 106 516 106 482 68.5 c 128,-1,7
 448 31 448 31 398.5 10.5 c 128,-1,8
 349 -10 349 -10 294 -10 c 0,9,10
 217 -10 217 -10 158 22.5 c 128,-1,11
 99 55 99 55 66.5 114.5 c 128,-1,12
 34 174 34 174 34 253 c 0,13,14
 34 331 34 331 64 393 c 128,-1,15
 94 455 94 455 151.5 491 c 128,-1,16
 209 527 209 527 286 527 c 0,17,18
 402 527 402 527 464.5 455 c 128,-1,19
 527 383 527 383 527 264 c 2,20,-1
 527 224 l 1,21,-1
 183 224 l 1,22,0
 183 166 183 166 212 132.5 c 128,-1,1
387 313 m 1,23,24
 387 360 387 360 360.5 391 c 128,-1,25
 334 422 334 422 285 422 c 0,26,27
 239 422 239 422 211 389.5 c 128,-1,28
 183 357 183 357 183 313 c 1,29,-1
 387 313 l 1,23,24
285 669 m 1,30,-1
 212 594 l 1,31,-1
 101 594 l 1,32,-1
 234 730 l 1,33,-1
 338 730 l 1,34,-1
 467 594 l 1,35,-1
 350 594 l 1,36,-1
 285 669 l 1,30,-1
EndSplineSet
EndChar

StartChar: edieresis
Encoding: 235 235 172
Width: 562
GlyphClass: 2
Flags: W
AnchorPoint: "Anchor-5" 0 0 basechar 0
AnchorPoint: "Anchor-4" 286 0 basechar 0
AnchorPoint: "Anchor-3" 286 517 basechar 0
AnchorPoint: "Anchor-2" 404 23 basechar 0
LayerCount: 2
Fore
SplineSet
212 132.5 m 128,-1,1
 241 99 241 99 291 99 c 0,2,3
 367 99 367 99 392 161 c 1,4,-1
 526 156 l 1,5,6
 516 106 516 106 482 68.5 c 128,-1,7
 448 31 448 31 398.5 10.5 c 128,-1,8
 349 -10 349 -10 294 -10 c 0,9,10
 217 -10 217 -10 158 22.5 c 128,-1,11
 99 55 99 55 66.5 114.5 c 128,-1,12
 34 174 34 174 34 253 c 0,13,14
 34 331 34 331 64 393 c 128,-1,15
 94 455 94 455 151.5 491 c 128,-1,16
 209 527 209 527 286 527 c 0,17,18
 402 527 402 527 464.5 455 c 128,-1,19
 527 383 527 383 527 264 c 2,20,-1
 527 224 l 1,21,-1
 183 224 l 1,22,0
 183 166 183 166 212 132.5 c 128,-1,1
387 313 m 1,23,24
 387 360 387 360 360.5 391 c 128,-1,25
 334 422 334 422 285 422 c 0,26,27
 239 422 239 422 211 389.5 c 128,-1,28
 183 357 183 357 183 313 c 1,29,-1
 387 313 l 1,23,24
253 596 m 1,30,-1
 120 596 l 1,31,-1
 120 723 l 1,32,-1
 253 723 l 1,33,-1
 253 596 l 1,30,-1
452 596 m 1,34,-1
 319 596 l 1,35,-1
 319 723 l 1,36,-1
 452 723 l 1,37,-1
 452 596 l 1,34,-1
EndSplineSet
EndChar

StartChar: igrave
Encoding: 236 236 173
Width: 282
GlyphClass: 2
Flags: W
AnchorPoint: "Anchor-5" 0 0 basechar 0
AnchorPoint: "Anchor-4" 0 0 basechar 0
AnchorPoint: "Anchor-3" 144 517 basechar 0
AnchorPoint: "Anchor-2" 194 10 basechar 0
LayerCount: 2
Fore
SplineSet
217 0 m 1,0,-1
 66 0 l 1,1,-1
 66 517 l 1,2,-1
 217 517 l 1,3,-1
 217 0 l 1,0,-1
282 631 m 1,4,-1
 261 567 l 1,5,-1
 -6 636 l 1,6,-1
 29 734 l 1,7,-1
 282 631 l 1,4,-1
EndSplineSet
EndChar

StartChar: iacute
Encoding: 237 237 174
Width: 282
GlyphClass: 2
Flags: W
AnchorPoint: "Anchor-5" 0 0 basechar 0
AnchorPoint: "Anchor-4" 0 0 basechar 0
AnchorPoint: "Anchor-3" 144 517 basechar 0
AnchorPoint: "Anchor-2" 194 10 basechar 0
LayerCount: 2
Fore
SplineSet
217 0 m 1,0,-1
 66 0 l 1,1,-1
 66 517 l 1,2,-1
 217 517 l 1,3,-1
 217 0 l 1,0,-1
288 636 m 1,4,-1
 22 567 l 1,5,-1
 1 631 l 1,6,-1
 255 734 l 1,7,-1
 288 636 l 1,4,-1
EndSplineSet
EndChar

StartChar: icircumflex
Encoding: 238 238 175
Width: 282
GlyphClass: 2
Flags: W
AnchorPoint: "Anchor-5" 0 0 basechar 0
AnchorPoint: "Anchor-4" 0 0 basechar 0
AnchorPoint: "Anchor-3" 144 517 basechar 0
AnchorPoint: "Anchor-2" 194 10 basechar 0
LayerCount: 2
Fore
SplineSet
217 0 m 1,0,-1
 66 0 l 1,1,-1
 66 517 l 1,2,-1
 217 517 l 1,3,-1
 217 0 l 1,0,-1
143 669 m 1,4,-1
 70 594 l 1,5,-1
 -41 594 l 1,6,-1
 92 730 l 1,7,-1
 196 730 l 1,8,-1
 325 594 l 1,9,-1
 208 594 l 1,10,-1
 143 669 l 1,4,-1
EndSplineSet
EndChar

StartChar: idieresis
Encoding: 239 239 176
Width: 282
GlyphClass: 2
Flags: W
AnchorPoint: "Anchor-5" 0 0 basechar 0
AnchorPoint: "Anchor-4" 0 0 basechar 0
AnchorPoint: "Anchor-3" 144 517 basechar 0
AnchorPoint: "Anchor-2" 194 10 basechar 0
LayerCount: 2
Fore
SplineSet
217 0 m 1,0,-1
 66 0 l 1,1,-1
 66 517 l 1,2,-1
 217 517 l 1,3,-1
 217 0 l 1,0,-1
111 596 m 1,4,-1
 -22 596 l 1,5,-1
 -22 723 l 1,6,-1
 111 723 l 1,7,-1
 111 596 l 1,4,-1
310 596 m 1,8,-1
 177 596 l 1,9,-1
 177 723 l 1,10,-1
 310 723 l 1,11,-1
 310 596 l 1,8,-1
EndSplineSet
EndChar

StartChar: eth
Encoding: 240 240 177
Width: 593
GlyphClass: 2
Flags: W
LayerCount: 2
Fore
SplineSet
525.5 121 m 128,-1,1
 493 58 493 58 433.5 24 c 128,-1,2
 374 -10 374 -10 295 -10 c 0,3,4
 219 -10 219 -10 159.5 23 c 128,-1,5
 100 56 100 56 67 114.5 c 128,-1,6
 34 173 34 173 34 246 c 0,7,8
 34 321 34 321 68 380.5 c 128,-1,9
 102 440 102 440 161.5 473.5 c 128,-1,10
 221 507 221 507 294 507 c 0,11,12
 325 507 325 507 342 492 c 1,13,14
 309 550 309 550 250 591 c 1,15,-1
 124 521 l 1,16,-1
 95 567 l 1,17,-1
 198 624 l 1,18,19
 149 649 149 649 97 668 c 1,20,-1
 179 734 l 1,21,22
 251 714 251 714 307 685 c 1,23,-1
 399 736 l 1,24,-1
 425 689 l 1,25,-1
 361 652 l 1,26,27
 457 585 457 585 507.5 485.5 c 128,-1,28
 558 386 558 386 558 268 c 0,29,0
 558 184 558 184 525.5 121 c 128,-1,1
377 132 m 128,-1,31
 405 174 405 174 405 249 c 0,32,33
 405 325 405 325 377 367.5 c 128,-1,34
 349 410 349 410 297 410 c 128,-1,35
 245 410 245 410 216 367.5 c 128,-1,36
 187 325 187 325 187 249 c 0,37,38
 187 174 187 174 216 132 c 128,-1,39
 245 90 245 90 297 90 c 128,-1,30
 349 90 349 90 377 132 c 128,-1,31
EndSplineSet
EndChar

StartChar: ntilde
Encoding: 241 241 178
Width: 610
GlyphClass: 2
Flags: W
AnchorPoint: "Anchor-5" 0 0 basechar 0
AnchorPoint: "Anchor-4" 305 0 basechar 0
AnchorPoint: "Anchor-3" 308 517 basechar 0
AnchorPoint: "Anchor-2" 0 0 basechar 0
LayerCount: 2
Fore
SplineSet
66 517 m 1,0,-1
 214 517 l 1,1,-1
 214 451 l 1,2,3
 242 485 242 485 274.5 503 c 128,-1,4
 307 521 307 521 363 521 c 0,5,6
 411 521 411 521 452.5 499 c 128,-1,7
 494 477 494 477 519 437 c 128,-1,8
 544 397 544 397 544 345 c 2,9,-1
 544 0 l 1,10,-1
 393 0 l 1,11,-1
 393 326 l 2,12,13
 393 362 393 362 369.5 382.5 c 128,-1,14
 346 403 346 403 310 403 c 0,15,16
 272 403 272 403 244.5 384.5 c 128,-1,17
 217 366 217 366 217 333 c 2,18,-1
 217 0 l 1,19,-1
 66 0 l 1,20,-1
 66 517 l 1,0,-1
432 619 m 128,-1,22
 409 611 409 611 383 611 c 0,23,24
 364 611 364 611 349.5 614.5 c 128,-1,25
 335 618 335 618 308 626 c 0,26,27
 291 631 291 631 273 635.5 c 128,-1,28
 255 640 255 640 238 640 c 0,29,30
 218 640 218 640 204.5 635 c 128,-1,31
 191 630 191 630 173 617 c 0,32,33
 166 612 166 612 163 612 c 0,34,35
 157 612 157 612 154 623 c 2,36,-1
 140 666 l 2,37,38
 138 672 138 672 138 675 c 0,39,40
 138 681 138 681 146 689 c 0,41,42
 165 706 165 706 185 715.5 c 128,-1,43
 205 725 205 725 233 725 c 0,44,45
 253 725 253 725 271.5 720.5 c 128,-1,46
 290 716 290 716 316 708 c 0,47,48
 333 703 333 703 350.5 698.5 c 128,-1,49
 368 694 368 694 382 694 c 0,50,51
 401 694 401 694 417 700.5 c 128,-1,52
 433 707 433 707 450 718 c 0,53,54
 455 722 455 722 461 722 c 0,55,56
 468 722 468 722 471 712 c 2,57,-1
 482 661 l 2,58,59
 483 659 483 659 483 654 c 0,60,61
 483 646 483 646 472 638 c 0,62,21
 455 627 455 627 432 619 c 128,-1,22
EndSplineSet
EndChar

StartChar: ograve
Encoding: 242 242 179
Width: 571
GlyphClass: 2
Flags: W
AnchorPoint: "Anchor-5" 0 0 basechar 0
AnchorPoint: "Anchor-4" 283 0 basechar 0
AnchorPoint: "Anchor-3" 286 517 basechar 0
AnchorPoint: "Anchor-2" 358 10 basechar 0
LayerCount: 2
Fore
SplineSet
152 23.5 m 128,-1,1
 95 57 95 57 64.5 117 c 128,-1,2
 34 177 34 177 34 255 c 0,3,4
 34 335 34 335 65.5 397 c 128,-1,5
 97 459 97 459 154 493 c 128,-1,6
 211 527 211 527 286 527 c 0,7,8
 362 527 362 527 419 492.5 c 128,-1,9
 476 458 476 458 506.5 396.5 c 128,-1,10
 537 335 537 335 537 256 c 0,11,12
 537 178 537 178 506.5 117.5 c 128,-1,13
 476 57 476 57 419 23.5 c 128,-1,14
 362 -10 362 -10 285 -10 c 0,15,0
 209 -10 209 -10 152 23.5 c 128,-1,1
365 147.5 m 128,-1,17
 389 193 389 193 389 261 c 0,18,19
 389 328 389 328 364.5 372 c 128,-1,20
 340 416 340 416 286 416 c 0,21,22
 231 416 231 416 206.5 372 c 128,-1,23
 182 328 182 328 182 261 c 128,-1,24
 182 194 182 194 206.5 148 c 128,-1,25
 231 102 231 102 286 102 c 128,-1,16
 341 102 341 102 365 147.5 c 128,-1,17
424 631 m 1,26,-1
 403 567 l 1,27,-1
 136 636 l 1,28,-1
 171 734 l 1,29,-1
 424 631 l 1,26,-1
EndSplineSet
EndChar

StartChar: oacute
Encoding: 243 243 180
Width: 571
GlyphClass: 2
Flags: W
AnchorPoint: "Anchor-5" 0 0 basechar 0
AnchorPoint: "Anchor-4" 283 0 basechar 0
AnchorPoint: "Anchor-3" 286 517 basechar 0
AnchorPoint: "Anchor-2" 358 10 basechar 0
LayerCount: 2
Fore
SplineSet
152 23.5 m 128,-1,1
 95 57 95 57 64.5 117 c 128,-1,2
 34 177 34 177 34 255 c 0,3,4
 34 335 34 335 65.5 397 c 128,-1,5
 97 459 97 459 154 493 c 128,-1,6
 211 527 211 527 286 527 c 0,7,8
 362 527 362 527 419 492.5 c 128,-1,9
 476 458 476 458 506.5 396.5 c 128,-1,10
 537 335 537 335 537 256 c 0,11,12
 537 178 537 178 506.5 117.5 c 128,-1,13
 476 57 476 57 419 23.5 c 128,-1,14
 362 -10 362 -10 285 -10 c 0,15,0
 209 -10 209 -10 152 23.5 c 128,-1,1
365 147.5 m 128,-1,17
 389 193 389 193 389 261 c 0,18,19
 389 328 389 328 364.5 372 c 128,-1,20
 340 416 340 416 286 416 c 0,21,22
 231 416 231 416 206.5 372 c 128,-1,23
 182 328 182 328 182 261 c 128,-1,24
 182 194 182 194 206.5 148 c 128,-1,25
 231 102 231 102 286 102 c 128,-1,16
 341 102 341 102 365 147.5 c 128,-1,17
430 636 m 1,26,-1
 164 567 l 1,27,-1
 143 631 l 1,28,-1
 397 734 l 1,29,-1
 430 636 l 1,26,-1
EndSplineSet
EndChar

StartChar: ocircumflex
Encoding: 244 244 181
Width: 571
GlyphClass: 2
Flags: W
AnchorPoint: "Anchor-5" 0 0 basechar 0
AnchorPoint: "Anchor-4" 283 0 basechar 0
AnchorPoint: "Anchor-3" 286 517 basechar 0
AnchorPoint: "Anchor-2" 358 10 basechar 0
LayerCount: 2
Fore
SplineSet
152 23.5 m 128,-1,1
 95 57 95 57 64.5 117 c 128,-1,2
 34 177 34 177 34 255 c 0,3,4
 34 335 34 335 65.5 397 c 128,-1,5
 97 459 97 459 154 493 c 128,-1,6
 211 527 211 527 286 527 c 0,7,8
 362 527 362 527 419 492.5 c 128,-1,9
 476 458 476 458 506.5 396.5 c 128,-1,10
 537 335 537 335 537 256 c 0,11,12
 537 178 537 178 506.5 117.5 c 128,-1,13
 476 57 476 57 419 23.5 c 128,-1,14
 362 -10 362 -10 285 -10 c 0,15,0
 209 -10 209 -10 152 23.5 c 128,-1,1
365 147.5 m 128,-1,17
 389 193 389 193 389 261 c 0,18,19
 389 328 389 328 364.5 372 c 128,-1,20
 340 416 340 416 286 416 c 0,21,22
 231 416 231 416 206.5 372 c 128,-1,23
 182 328 182 328 182 261 c 128,-1,24
 182 194 182 194 206.5 148 c 128,-1,25
 231 102 231 102 286 102 c 128,-1,16
 341 102 341 102 365 147.5 c 128,-1,17
285 669 m 1,26,-1
 212 594 l 1,27,-1
 101 594 l 1,28,-1
 234 730 l 1,29,-1
 338 730 l 1,30,-1
 467 594 l 1,31,-1
 350 594 l 1,32,-1
 285 669 l 1,26,-1
EndSplineSet
EndChar

StartChar: otilde
Encoding: 245 245 182
Width: 571
GlyphClass: 2
Flags: W
AnchorPoint: "Anchor-5" 0 0 basechar 0
AnchorPoint: "Anchor-4" 283 0 basechar 0
AnchorPoint: "Anchor-3" 286 517 basechar 0
AnchorPoint: "Anchor-2" 358 10 basechar 0
LayerCount: 2
Fore
SplineSet
152 23.5 m 128,-1,1
 95 57 95 57 64.5 117 c 128,-1,2
 34 177 34 177 34 255 c 0,3,4
 34 335 34 335 65.5 397 c 128,-1,5
 97 459 97 459 154 493 c 128,-1,6
 211 527 211 527 286 527 c 0,7,8
 362 527 362 527 419 492.5 c 128,-1,9
 476 458 476 458 506.5 396.5 c 128,-1,10
 537 335 537 335 537 256 c 0,11,12
 537 178 537 178 506.5 117.5 c 128,-1,13
 476 57 476 57 419 23.5 c 128,-1,14
 362 -10 362 -10 285 -10 c 0,15,0
 209 -10 209 -10 152 23.5 c 128,-1,1
365 147.5 m 128,-1,17
 389 193 389 193 389 261 c 0,18,19
 389 328 389 328 364.5 372 c 128,-1,20
 340 416 340 416 286 416 c 0,21,22
 231 416 231 416 206.5 372 c 128,-1,23
 182 328 182 328 182 261 c 128,-1,24
 182 194 182 194 206.5 148 c 128,-1,25
 231 102 231 102 286 102 c 128,-1,16
 341 102 341 102 365 147.5 c 128,-1,17
410 619 m 128,-1,27
 387 611 387 611 361 611 c 0,28,29
 342 611 342 611 327.5 614.5 c 128,-1,30
 313 618 313 618 286 626 c 0,31,32
 269 631 269 631 251 635.5 c 128,-1,33
 233 640 233 640 216 640 c 0,34,35
 196 640 196 640 182.5 635 c 128,-1,36
 169 630 169 630 151 617 c 0,37,38
 144 612 144 612 141 612 c 0,39,40
 135 612 135 612 132 623 c 2,41,-1
 118 666 l 2,42,43
 116 672 116 672 116 675 c 0,44,45
 116 681 116 681 124 689 c 0,46,47
 143 706 143 706 163 715.5 c 128,-1,48
 183 725 183 725 211 725 c 0,49,50
 231 725 231 725 249.5 720.5 c 128,-1,51
 268 716 268 716 294 708 c 0,52,53
 311 703 311 703 328.5 698.5 c 128,-1,54
 346 694 346 694 360 694 c 0,55,56
 379 694 379 694 395 700.5 c 128,-1,57
 411 707 411 707 428 718 c 0,58,59
 433 722 433 722 439 722 c 0,60,61
 446 722 446 722 449 712 c 2,62,-1
 460 661 l 2,63,64
 461 659 461 659 461 654 c 0,65,66
 461 646 461 646 450 638 c 0,67,26
 433 627 433 627 410 619 c 128,-1,27
EndSplineSet
EndChar

StartChar: odieresis
Encoding: 246 246 183
Width: 571
GlyphClass: 2
Flags: W
AnchorPoint: "Anchor-5" 0 0 basechar 0
AnchorPoint: "Anchor-4" 283 0 basechar 0
AnchorPoint: "Anchor-3" 286 517 basechar 0
AnchorPoint: "Anchor-2" 358 10 basechar 0
LayerCount: 2
Fore
SplineSet
152 23.5 m 128,-1,1
 95 57 95 57 64.5 117 c 128,-1,2
 34 177 34 177 34 255 c 0,3,4
 34 335 34 335 65.5 397 c 128,-1,5
 97 459 97 459 154 493 c 128,-1,6
 211 527 211 527 286 527 c 0,7,8
 362 527 362 527 419 492.5 c 128,-1,9
 476 458 476 458 506.5 396.5 c 128,-1,10
 537 335 537 335 537 256 c 0,11,12
 537 178 537 178 506.5 117.5 c 128,-1,13
 476 57 476 57 419 23.5 c 128,-1,14
 362 -10 362 -10 285 -10 c 0,15,0
 209 -10 209 -10 152 23.5 c 128,-1,1
365 147.5 m 128,-1,17
 389 193 389 193 389 261 c 0,18,19
 389 328 389 328 364.5 372 c 128,-1,20
 340 416 340 416 286 416 c 0,21,22
 231 416 231 416 206.5 372 c 128,-1,23
 182 328 182 328 182 261 c 128,-1,24
 182 194 182 194 206.5 148 c 128,-1,25
 231 102 231 102 286 102 c 128,-1,16
 341 102 341 102 365 147.5 c 128,-1,17
253 596 m 1,26,-1
 120 596 l 1,27,-1
 120 723 l 1,28,-1
 253 723 l 1,29,-1
 253 596 l 1,26,-1
452 596 m 1,30,-1
 319 596 l 1,31,-1
 319 723 l 1,32,-1
 452 723 l 1,33,-1
 452 596 l 1,30,-1
EndSplineSet
EndChar

StartChar: divide
Encoding: 247 247 184
Width: 587
GlyphClass: 2
Flags: W
LayerCount: 2
Fore
SplineSet
369 488 m 1,0,-1
 213 488 l 1,1,-1
 213 638 l 1,2,-1
 369 638 l 1,3,-1
 369 488 l 1,0,-1
528 309 m 1,4,-1
 52 309 l 1,5,-1
 52 418 l 1,6,-1
 528 419 l 1,7,-1
 528 309 l 1,4,-1
369 90 m 1,8,-1
 213 90 l 1,9,-1
 213 240 l 1,10,-1
 369 240 l 1,11,-1
 369 90 l 1,8,-1
EndSplineSet
EndChar

StartChar: oslash
Encoding: 248 248 185
Width: 598
GlyphClass: 2
Flags: W
AnchorPoint: "Anchor-5" 0 0 basechar 0
AnchorPoint: "Anchor-4" 292 0 basechar 0
AnchorPoint: "Anchor-3" 295 517 basechar 0
AnchorPoint: "Anchor-2" 367 10 basechar 0
LayerCount: 2
Fore
SplineSet
508 410 m 1,0,1
 546 345 546 345 546 256 c 0,2,3
 546 178 546 178 515.5 117.5 c 128,-1,4
 485 57 485 57 428 23.5 c 128,-1,5
 371 -10 371 -10 294 -10 c 0,6,7
 191 -10 191 -10 126 49 c 1,8,-1
 66 -8 l 1,9,-1
 17 45 l 1,10,-1
 80 105 l 1,11,12
 43 168 43 168 43 255 c 0,13,14
 43 335 43 335 74.5 397 c 128,-1,15
 106 459 106 459 163 493 c 128,-1,16
 220 527 220 527 295 527 c 0,17,18
 397 527 397 527 464 466 c 1,19,-1
 524 523 l 1,20,-1
 572 471 l 1,21,-1
 508 410 l 1,0,1
195 212 m 1,22,-1
 370 378 l 1,23,24
 344 416 344 416 295 416 c 0,25,26
 240 416 240 416 215.5 372 c 128,-1,27
 191 328 191 328 191 261 c 0,28,29
 191 233 191 233 195 212 c 1,22,-1
395 304 m 1,30,-1
 221 139 l 1,31,32
 250 102 250 102 295 102 c 0,33,34
 350 102 350 102 374 147.5 c 128,-1,35
 398 193 398 193 398 261 c 0,36,37
 398 283 398 283 395 304 c 1,30,-1
EndSplineSet
EndChar

StartChar: ugrave
Encoding: 249 249 186
Width: 610
GlyphClass: 2
Flags: W
AnchorPoint: "Anchor-5" 0 0 basechar 0
AnchorPoint: "Anchor-4" 305 0 basechar 0
AnchorPoint: "Anchor-3" 301 517 basechar 0
AnchorPoint: "Anchor-2" 519 10 basechar 0
LayerCount: 2
Fore
SplineSet
168.5 10 m 128,-1,1
 124 29 124 29 95 67 c 128,-1,2
 66 105 66 105 66 159 c 2,3,-1
 66 518 l 1,4,-1
 217 518 l 1,5,-1
 217 178 l 2,6,7
 217 140 217 140 241.5 119.5 c 128,-1,8
 266 99 266 99 303 99 c 0,9,10
 341 99 341 99 366 121 c 128,-1,11
 391 143 391 143 392 181 c 2,12,-1
 392 518 l 1,13,-1
 544 518 l 1,14,-1
 541 0 l 1,15,-1
 428 0 l 1,16,-1
 418 73 l 1,17,18
 397 35 397 35 350.5 12.5 c 128,-1,19
 304 -10 304 -10 258 -10 c 0,20,0
 213 -9 213 -9 168.5 10 c 128,-1,1
439 631 m 1,21,-1
 418 567 l 1,22,-1
 151 636 l 1,23,-1
 186 734 l 1,24,-1
 439 631 l 1,21,-1
EndSplineSet
EndChar

StartChar: uacute
Encoding: 250 250 187
Width: 610
GlyphClass: 2
Flags: W
AnchorPoint: "Anchor-5" 0 0 basechar 0
AnchorPoint: "Anchor-4" 305 0 basechar 0
AnchorPoint: "Anchor-3" 301 517 basechar 0
AnchorPoint: "Anchor-2" 519 10 basechar 0
LayerCount: 2
Fore
SplineSet
168.5 10 m 128,-1,1
 124 29 124 29 95 67 c 128,-1,2
 66 105 66 105 66 159 c 2,3,-1
 66 518 l 1,4,-1
 217 518 l 1,5,-1
 217 178 l 2,6,7
 217 140 217 140 241.5 119.5 c 128,-1,8
 266 99 266 99 303 99 c 0,9,10
 341 99 341 99 366 121 c 128,-1,11
 391 143 391 143 392 181 c 2,12,-1
 392 518 l 1,13,-1
 544 518 l 1,14,-1
 541 0 l 1,15,-1
 428 0 l 1,16,-1
 418 73 l 1,17,18
 397 35 397 35 350.5 12.5 c 128,-1,19
 304 -10 304 -10 258 -10 c 0,20,0
 213 -9 213 -9 168.5 10 c 128,-1,1
445 636 m 1,21,-1
 179 567 l 1,22,-1
 158 631 l 1,23,-1
 412 734 l 1,24,-1
 445 636 l 1,21,-1
EndSplineSet
EndChar

StartChar: ucircumflex
Encoding: 251 251 188
Width: 610
GlyphClass: 2
Flags: W
AnchorPoint: "Anchor-5" 0 0 basechar 0
AnchorPoint: "Anchor-4" 305 0 basechar 0
AnchorPoint: "Anchor-3" 301 517 basechar 0
AnchorPoint: "Anchor-2" 519 10 basechar 0
LayerCount: 2
Fore
SplineSet
168.5 10 m 128,-1,1
 124 29 124 29 95 67 c 128,-1,2
 66 105 66 105 66 159 c 2,3,-1
 66 518 l 1,4,-1
 217 518 l 1,5,-1
 217 178 l 2,6,7
 217 140 217 140 241.5 119.5 c 128,-1,8
 266 99 266 99 303 99 c 0,9,10
 341 99 341 99 366 121 c 128,-1,11
 391 143 391 143 392 181 c 2,12,-1
 392 518 l 1,13,-1
 544 518 l 1,14,-1
 541 0 l 1,15,-1
 428 0 l 1,16,-1
 418 73 l 1,17,18
 397 35 397 35 350.5 12.5 c 128,-1,19
 304 -10 304 -10 258 -10 c 0,20,0
 213 -9 213 -9 168.5 10 c 128,-1,1
300 669 m 1,21,-1
 227 594 l 1,22,-1
 116 594 l 1,23,-1
 249 730 l 1,24,-1
 353 730 l 1,25,-1
 482 594 l 1,26,-1
 365 594 l 1,27,-1
 300 669 l 1,21,-1
EndSplineSet
EndChar

StartChar: udieresis
Encoding: 252 252 189
Width: 610
GlyphClass: 2
Flags: W
AnchorPoint: "Anchor-5" 0 0 basechar 0
AnchorPoint: "Anchor-4" 305 0 basechar 0
AnchorPoint: "Anchor-3" 301 517 basechar 0
AnchorPoint: "Anchor-2" 519 10 basechar 0
LayerCount: 2
Fore
SplineSet
168.5 10 m 128,-1,1
 124 29 124 29 95 67 c 128,-1,2
 66 105 66 105 66 159 c 2,3,-1
 66 518 l 1,4,-1
 217 518 l 1,5,-1
 217 178 l 2,6,7
 217 140 217 140 241.5 119.5 c 128,-1,8
 266 99 266 99 303 99 c 0,9,10
 341 99 341 99 366 121 c 128,-1,11
 391 143 391 143 392 181 c 2,12,-1
 392 518 l 1,13,-1
 544 518 l 1,14,-1
 541 0 l 1,15,-1
 428 0 l 1,16,-1
 418 73 l 1,17,18
 397 35 397 35 350.5 12.5 c 128,-1,19
 304 -10 304 -10 258 -10 c 0,20,0
 213 -9 213 -9 168.5 10 c 128,-1,1
268 596 m 1,21,-1
 135 596 l 1,22,-1
 135 723 l 1,23,-1
 268 723 l 1,24,-1
 268 596 l 1,21,-1
467 596 m 1,25,-1
 334 596 l 1,26,-1
 334 723 l 1,27,-1
 467 723 l 1,28,-1
 467 596 l 1,25,-1
EndSplineSet
EndChar

StartChar: yacute
Encoding: 253 253 190
Width: 572
GlyphClass: 2
Flags: W
AnchorPoint: "Anchor-5" 0 0 basechar 0
AnchorPoint: "Anchor-4" 0 0 basechar 0
AnchorPoint: "Anchor-3" 304 517 basechar 0
AnchorPoint: "Anchor-2" 0 0 basechar 0
LayerCount: 2
Fore
SplineSet
95 -161 m 128,-1,1
 73 -157 73 -157 62.5 -153 c 128,-1,2
 52 -149 52 -149 50 -147 c 2,3,-1
 50 -51 l 1,4,-1
 101 -53 l 2,5,6
 160 -57 160 -57 180.5 -41.5 c 128,-1,7
 201 -26 201 -26 208 -4 c 2,8,-1
 217 22 l 1,9,-1
 16 517 l 1,10,-1
 165 517 l 1,11,-1
 286 185 l 1,12,-1
 410 517 l 1,13,-1
 557 517 l 1,14,-1
 348 0 l 2,15,16
 309 -95 309 -95 262 -130 c 128,-1,17
 215 -165 215 -165 149 -165 c 0,18,0
 117 -165 117 -165 95 -161 c 128,-1,1
448 636 m 1,19,-1
 182 567 l 1,20,-1
 161 631 l 1,21,-1
 415 734 l 1,22,-1
 448 636 l 1,19,-1
EndSplineSet
EndChar

StartChar: thorn
Encoding: 254 254 191
Width: 607
GlyphClass: 2
Flags: W
LayerCount: 2
Fore
SplineSet
217 452 m 1,0,1
 249 487 249 487 284.5 507 c 128,-1,2
 320 527 320 527 373 527 c 0,3,4
 462 527 462 527 517.5 459.5 c 128,-1,5
 573 392 573 392 573 262 c 0,6,7
 573 127 573 127 516 58.5 c 128,-1,8
 459 -10 459 -10 365 -10 c 0,9,10
 288 -10 288 -10 235 40 c 0,11,12
 224 48 224 48 221 48 c 0,13,14
 217 48 217 48 217 34 c 2,15,-1
 217 -161 l 1,16,-1
 66 -161 l 1,17,-1
 66 723 l 1,18,-1
 217 723 l 1,19,-1
 217 452 l 1,0,1
309 85 m 0,20,21
 420 85 420 85 420 265 c 0,22,23
 420 354 420 354 391.5 393 c 128,-1,24
 363 432 363 432 311 432 c 0,25,26
 272 432 272 432 244.5 408 c 128,-1,27
 217 384 217 384 217 354 c 2,28,-1
 217 134 l 1,29,30
 258 85 258 85 309 85 c 0,20,21
EndSplineSet
EndChar

StartChar: ydieresis
Encoding: 255 255 192
Width: 572
GlyphClass: 2
Flags: W
AnchorPoint: "Anchor-5" 0 0 basechar 0
AnchorPoint: "Anchor-4" 0 0 basechar 0
AnchorPoint: "Anchor-3" 304 517 basechar 0
AnchorPoint: "Anchor-2" 0 0 basechar 0
LayerCount: 2
Fore
SplineSet
95 -161 m 128,-1,1
 73 -157 73 -157 62.5 -153 c 128,-1,2
 52 -149 52 -149 50 -147 c 2,3,-1
 50 -51 l 1,4,-1
 101 -53 l 2,5,6
 160 -57 160 -57 180.5 -41.5 c 128,-1,7
 201 -26 201 -26 208 -4 c 2,8,-1
 217 22 l 1,9,-1
 16 517 l 1,10,-1
 165 517 l 1,11,-1
 286 185 l 1,12,-1
 410 517 l 1,13,-1
 557 517 l 1,14,-1
 348 0 l 2,15,16
 309 -95 309 -95 262 -130 c 128,-1,17
 215 -165 215 -165 149 -165 c 0,18,0
 117 -165 117 -165 95 -161 c 128,-1,1
271 596 m 1,19,-1
 138 596 l 1,20,-1
 138 723 l 1,21,-1
 271 723 l 1,22,-1
 271 596 l 1,19,-1
470 596 m 1,23,-1
 337 596 l 1,24,-1
 337 723 l 1,25,-1
 470 723 l 1,26,-1
 470 596 l 1,23,-1
EndSplineSet
EndChar

StartChar: Amacron
Encoding: 256 256 193
Width: 713
GlyphClass: 2
Flags: W
AnchorPoint: "Anchor-5" 0 0 basechar 0
AnchorPoint: "Anchor-4" 0 0 basechar 0
AnchorPoint: "Anchor-3" 367 723 basechar 0
AnchorPoint: "Anchor-2" 693 10 basechar 0
LayerCount: 2
Fore
SplineSet
278 723 m 1,0,-1
 436 723 l 1,1,-1
 694 0 l 1,2,-1
 544 0 l 1,3,-1
 486 165 l 1,4,-1
 229 165 l 1,5,-1
 170 0 l 1,6,-1
 19 0 l 1,7,-1
 278 723 l 1,0,-1
451 296 m 1,8,-1
 357 578 l 1,9,-1
 263 296 l 1,10,-1
 451 296 l 1,8,-1
545 828 m 1,11,-1
 189 828 l 1,12,-1
 189 924 l 1,13,-1
 545 924 l 1,14,-1
 545 828 l 1,11,-1
EndSplineSet
EndChar

StartChar: amacron
Encoding: 257 257 194
Width: 573
GlyphClass: 2
Flags: W
AnchorPoint: "Anchor-5" 0 0 basechar 0
AnchorPoint: "Anchor-4" 0 0 basechar 0
AnchorPoint: "Anchor-3" 287 517 basechar 0
AnchorPoint: "Anchor-2" 485 11 basechar 0
LayerCount: 2
Fore
SplineSet
84 32.5 m 128,-1,1
 35 75 35 75 35 149 c 0,2,3
 35 234 35 234 99.5 277 c 128,-1,4
 164 320 164 320 300 323 c 2,5,-1
 363 326 l 1,6,-1
 363 354 l 2,7,8
 363 389 363 389 342 407.5 c 128,-1,9
 321 426 321 426 281 426 c 0,10,11
 249 425 249 425 221 410.5 c 128,-1,12
 193 396 193 396 176 366 c 1,13,-1
 53 372 l 1,14,15
 65 449 65 449 128.5 488 c 128,-1,16
 192 527 192 527 288 527 c 0,17,18
 507 527 507 527 507 364 c 2,19,-1
 507 0 l 1,20,-1
 381 0 l 1,21,-1
 370 66 l 1,22,23
 346 31 346 31 304.5 10.5 c 128,-1,24
 263 -10 263 -10 210 -10 c 0,25,0
 133 -10 133 -10 84 32.5 c 128,-1,1
330.5 114.5 m 128,-1,27
 362 140 362 140 363 173 c 2,28,-1
 363 247 l 1,29,-1
 312 244 l 2,30,31
 251 241 251 241 214.5 223.5 c 128,-1,32
 178 206 178 206 178 164 c 0,33,34
 178 130 178 130 201.5 109.5 c 128,-1,35
 225 89 225 89 261 89 c 0,36,26
 299 89 299 89 330.5 114.5 c 128,-1,27
465 622 m 1,37,-1
 109 622 l 1,38,-1
 109 718 l 1,39,-1
 465 718 l 1,40,-1
 465 622 l 1,37,-1
EndSplineSet
EndChar

StartChar: Abreve
Encoding: 258 258 195
Width: 713
GlyphClass: 2
Flags: W
AnchorPoint: "Anchor-5" 0 0 basechar 0
AnchorPoint: "Anchor-4" 0 0 basechar 0
AnchorPoint: "Anchor-3" 367 723 basechar 0
AnchorPoint: "Anchor-2" 693 10 basechar 0
LayerCount: 2
Fore
SplineSet
278 723 m 1,0,-1
 436 723 l 1,1,-1
 694 0 l 1,2,-1
 544 0 l 1,3,-1
 486 165 l 1,4,-1
 229 165 l 1,5,-1
 170 0 l 1,6,-1
 19 0 l 1,7,-1
 278 723 l 1,0,-1
451 296 m 1,8,-1
 357 578 l 1,9,-1
 263 296 l 1,10,-1
 451 296 l 1,8,-1
479.5 834.5 m 128,-1,12
 432 800 432 800 368 800 c 0,13,14
 303 800 303 800 255 833.5 c 128,-1,15
 207 867 207 867 190 929 c 1,16,-1
 279 929 l 1,17,18
 292 906 292 906 315.5 890 c 128,-1,19
 339 874 339 874 368 874 c 0,20,21
 394 874 394 874 418.5 890 c 128,-1,22
 443 906 443 906 455 929 c 1,23,-1
 545 929 l 1,24,11
 527 869 527 869 479.5 834.5 c 128,-1,12
EndSplineSet
EndChar

StartChar: abreve
Encoding: 259 259 196
Width: 573
GlyphClass: 2
Flags: W
AnchorPoint: "Anchor-5" 0 0 basechar 0
AnchorPoint: "Anchor-4" 0 0 basechar 0
AnchorPoint: "Anchor-3" 287 517 basechar 0
AnchorPoint: "Anchor-2" 485 11 basechar 0
LayerCount: 2
Fore
SplineSet
84 32.5 m 128,-1,1
 35 75 35 75 35 149 c 0,2,3
 35 234 35 234 99.5 277 c 128,-1,4
 164 320 164 320 300 323 c 2,5,-1
 363 326 l 1,6,-1
 363 354 l 2,7,8
 363 389 363 389 342 407.5 c 128,-1,9
 321 426 321 426 281 426 c 0,10,11
 249 425 249 425 221 410.5 c 128,-1,12
 193 396 193 396 176 366 c 1,13,-1
 53 372 l 1,14,15
 65 449 65 449 128.5 488 c 128,-1,16
 192 527 192 527 288 527 c 0,17,18
 507 527 507 527 507 364 c 2,19,-1
 507 0 l 1,20,-1
 381 0 l 1,21,-1
 370 66 l 1,22,23
 346 31 346 31 304.5 10.5 c 128,-1,24
 263 -10 263 -10 210 -10 c 0,25,0
 133 -10 133 -10 84 32.5 c 128,-1,1
330.5 114.5 m 128,-1,27
 362 140 362 140 363 173 c 2,28,-1
 363 247 l 1,29,-1
 312 244 l 2,30,31
 251 241 251 241 214.5 223.5 c 128,-1,32
 178 206 178 206 178 164 c 0,33,34
 178 130 178 130 201.5 109.5 c 128,-1,35
 225 89 225 89 261 89 c 0,36,26
 299 89 299 89 330.5 114.5 c 128,-1,27
399.5 628.5 m 128,-1,38
 352 594 352 594 288 594 c 0,39,40
 223 594 223 594 175 627.5 c 128,-1,41
 127 661 127 661 110 723 c 1,42,-1
 199 723 l 1,43,44
 212 700 212 700 235.5 684 c 128,-1,45
 259 668 259 668 288 668 c 0,46,47
 314 668 314 668 338.5 684 c 128,-1,48
 363 700 363 700 375 723 c 1,49,-1
 465 723 l 1,50,37
 447 663 447 663 399.5 628.5 c 128,-1,38
EndSplineSet
EndChar

StartChar: Aogonek
Encoding: 260 260 197
Width: 713
GlyphClass: 2
Flags: W
AnchorPoint: "Anchor-5" 0 0 basechar 0
AnchorPoint: "Anchor-4" 0 0 basechar 0
AnchorPoint: "Anchor-3" 367 723 basechar 0
AnchorPoint: "Anchor-2" 693 10 basechar 0
LayerCount: 2
Fore
SplineSet
278 723 m 1,0,-1
 436 723 l 1,1,-1
 694 0 l 1,2,-1
 544 0 l 1,3,-1
 486 165 l 1,4,-1
 229 165 l 1,5,-1
 170 0 l 1,6,-1
 19 0 l 1,7,-1
 278 723 l 1,0,-1
451 296 m 1,8,-1
 357 578 l 1,9,-1
 263 296 l 1,10,-1
 451 296 l 1,8,-1
530.5 -34.5 m 128,-1,12
 551 -12 551 -12 606 6 c 1,13,-1
 711 4 l 1,14,15
 659 -15 659 -15 638.5 -31.5 c 128,-1,16
 618 -48 618 -48 618 -68 c 0,17,18
 618 -100 618 -100 654 -100 c 0,19,20
 679 -100 679 -100 711 -85 c 0,21,22
 717 -82 717 -82 720 -82 c 0,23,24
 726 -82 726 -82 726 -94 c 2,25,-1
 726 -136 l 2,26,27
 726 -146 726 -146 717 -150 c 0,28,29
 704 -157 704 -157 677 -163 c 128,-1,30
 650 -169 650 -169 620 -169 c 0,31,32
 568 -169 568 -169 539 -148 c 128,-1,33
 510 -127 510 -127 510 -87 c 0,34,11
 510 -57 510 -57 530.5 -34.5 c 128,-1,12
EndSplineSet
EndChar

StartChar: aogonek
Encoding: 261 261 198
Width: 573
GlyphClass: 2
Flags: W
AnchorPoint: "Anchor-5" 0 0 basechar 0
AnchorPoint: "Anchor-4" 0 0 basechar 0
AnchorPoint: "Anchor-3" 287 517 basechar 0
AnchorPoint: "Anchor-2" 485 11 basechar 0
LayerCount: 2
Fore
SplineSet
84 32.5 m 128,-1,1
 35 75 35 75 35 149 c 0,2,3
 35 234 35 234 99.5 277 c 128,-1,4
 164 320 164 320 300 323 c 2,5,-1
 363 326 l 1,6,-1
 363 354 l 2,7,8
 363 389 363 389 342 407.5 c 128,-1,9
 321 426 321 426 281 426 c 0,10,11
 249 425 249 425 221 410.5 c 128,-1,12
 193 396 193 396 176 366 c 1,13,-1
 53 372 l 1,14,15
 65 449 65 449 128.5 488 c 128,-1,16
 192 527 192 527 288 527 c 0,17,18
 507 527 507 527 507 364 c 2,19,-1
 507 0 l 1,20,-1
 381 0 l 1,21,-1
 370 66 l 1,22,23
 346 31 346 31 304.5 10.5 c 128,-1,24
 263 -10 263 -10 210 -10 c 0,25,0
 133 -10 133 -10 84 32.5 c 128,-1,1
330.5 114.5 m 128,-1,27
 362 140 362 140 363 173 c 2,28,-1
 363 247 l 1,29,-1
 312 244 l 2,30,31
 251 241 251 241 214.5 223.5 c 128,-1,32
 178 206 178 206 178 164 c 0,33,34
 178 130 178 130 201.5 109.5 c 128,-1,35
 225 89 225 89 261 89 c 0,36,26
 299 89 299 89 330.5 114.5 c 128,-1,27
322.5 -33.5 m 128,-1,38
 343 -11 343 -11 398 7 c 1,39,-1
 503 5 l 1,40,41
 451 -14 451 -14 430.5 -30.5 c 128,-1,42
 410 -47 410 -47 410 -67 c 0,43,44
 410 -99 410 -99 446 -99 c 0,45,46
 471 -99 471 -99 503 -84 c 0,47,48
 509 -81 509 -81 512 -81 c 0,49,50
 518 -81 518 -81 518 -93 c 2,51,-1
 518 -135 l 2,52,53
 518 -145 518 -145 509 -149 c 0,54,55
 496 -156 496 -156 469 -162 c 128,-1,56
 442 -168 442 -168 412 -168 c 0,57,58
 360 -168 360 -168 331 -147 c 128,-1,59
 302 -126 302 -126 302 -86 c 0,60,37
 302 -56 302 -56 322.5 -33.5 c 128,-1,38
EndSplineSet
EndChar

StartChar: Cacute
Encoding: 262 262 199
Width: 711
GlyphClass: 2
Flags: W
AnchorPoint: "Anchor-5" 0 0 basechar 0
AnchorPoint: "Anchor-4" 373 0 basechar 0
AnchorPoint: "Anchor-3" 373 723 basechar 0
AnchorPoint: "Anchor-2" 0 0 basechar 0
LayerCount: 2
Fore
SplineSet
517 701.5 m 128,-1,1
 582 670 582 670 622 614 c 128,-1,2
 662 558 662 558 669 487 c 1,3,-1
 511 485 l 1,4,5
 500 543 500 543 463.5 576 c 128,-1,6
 427 609 427 609 366 609 c 0,7,8
 208 609 208 609 208 365 c 0,9,10
 208 238 208 238 250 176 c 128,-1,11
 292 114 292 114 369 114 c 0,12,13
 424 114 424 114 461.5 150.5 c 128,-1,14
 499 187 499 187 510 246 c 1,15,-1
 668 243 l 1,16,17
 653 129 653 129 583 59.5 c 128,-1,18
 513 -10 513 -10 373 -10 c 0,19,20
 273 -10 273 -10 198.5 37.5 c 128,-1,21
 124 85 124 85 83.5 170.5 c 128,-1,22
 43 256 43 256 43 368 c 0,23,24
 43 479 43 479 82.5 561.5 c 128,-1,25
 122 644 122 644 196 688.5 c 128,-1,26
 270 733 270 733 371 733 c 0,27,0
 452 733 452 733 517 701.5 c 128,-1,1
517 842 m 1,28,-1
 251 773 l 1,29,-1
 230 837 l 1,30,-1
 484 940 l 1,31,-1
 517 842 l 1,28,-1
EndSplineSet
EndChar

StartChar: cacute
Encoding: 263 263 200
Width: 536
GlyphClass: 2
Flags: W
AnchorPoint: "Anchor-5" 0 0 basechar 0
AnchorPoint: "Anchor-4" 284 0 basechar 0
AnchorPoint: "Anchor-3" 284 517 basechar 0
AnchorPoint: "Anchor-2" 0 0 basechar 0
LayerCount: 2
Fore
SplineSet
432.5 473 m 128,-1,1
 488 419 488 419 500 337 c 1,2,-1
 377 331 l 1,3,4
 359 371 359 371 340.5 392 c 128,-1,5
 322 413 322 413 287 413 c 0,6,7
 235 413 235 413 204.5 372 c 128,-1,8
 174 331 174 331 174 258 c 0,9,10
 174 184 174 184 205.5 140.5 c 128,-1,11
 237 97 237 97 289 97 c 0,12,13
 325 97 325 97 345.5 120.5 c 128,-1,14
 366 144 366 144 381 181 c 1,15,-1
 500 175 l 1,16,17
 490 95 490 95 432.5 42.5 c 128,-1,18
 375 -10 375 -10 285 -10 c 0,19,20
 213 -10 213 -10 155.5 23.5 c 128,-1,21
 98 57 98 57 66 117.5 c 128,-1,22
 34 178 34 178 34 256 c 0,23,24
 34 335 34 335 66 396.5 c 128,-1,25
 98 458 98 458 155 492.5 c 128,-1,26
 212 527 212 527 285 527 c 0,27,0
 377 527 377 527 432.5 473 c 128,-1,1
428 636 m 1,28,-1
 162 567 l 1,29,-1
 141 631 l 1,30,-1
 395 734 l 1,31,-1
 428 636 l 1,28,-1
EndSplineSet
EndChar

StartChar: Ccircumflex
Encoding: 264 264 201
Width: 711
GlyphClass: 2
Flags: W
AnchorPoint: "Anchor-5" 0 0 basechar 0
AnchorPoint: "Anchor-4" 373 0 basechar 0
AnchorPoint: "Anchor-3" 373 723 basechar 0
AnchorPoint: "Anchor-2" 0 0 basechar 0
LayerCount: 2
Fore
SplineSet
517 701.5 m 128,-1,1
 582 670 582 670 622 614 c 128,-1,2
 662 558 662 558 669 487 c 1,3,-1
 511 485 l 1,4,5
 500 543 500 543 463.5 576 c 128,-1,6
 427 609 427 609 366 609 c 0,7,8
 208 609 208 609 208 365 c 0,9,10
 208 238 208 238 250 176 c 128,-1,11
 292 114 292 114 369 114 c 0,12,13
 424 114 424 114 461.5 150.5 c 128,-1,14
 499 187 499 187 510 246 c 1,15,-1
 668 243 l 1,16,17
 653 129 653 129 583 59.5 c 128,-1,18
 513 -10 513 -10 373 -10 c 0,19,20
 273 -10 273 -10 198.5 37.5 c 128,-1,21
 124 85 124 85 83.5 170.5 c 128,-1,22
 43 256 43 256 43 368 c 0,23,24
 43 479 43 479 82.5 561.5 c 128,-1,25
 122 644 122 644 196 688.5 c 128,-1,26
 270 733 270 733 371 733 c 0,27,0
 452 733 452 733 517 701.5 c 128,-1,1
372 875 m 1,28,-1
 299 800 l 1,29,-1
 188 800 l 1,30,-1
 321 936 l 1,31,-1
 425 936 l 1,32,-1
 554 800 l 1,33,-1
 437 800 l 1,34,-1
 372 875 l 1,28,-1
EndSplineSet
EndChar

StartChar: ccircumflex
Encoding: 265 265 202
Width: 536
GlyphClass: 2
Flags: W
AnchorPoint: "Anchor-5" 0 0 basechar 0
AnchorPoint: "Anchor-4" 284 0 basechar 0
AnchorPoint: "Anchor-3" 284 517 basechar 0
AnchorPoint: "Anchor-2" 0 0 basechar 0
LayerCount: 2
Fore
SplineSet
432.5 473 m 128,-1,1
 488 419 488 419 500 337 c 1,2,-1
 377 331 l 1,3,4
 359 371 359 371 340.5 392 c 128,-1,5
 322 413 322 413 287 413 c 0,6,7
 235 413 235 413 204.5 372 c 128,-1,8
 174 331 174 331 174 258 c 0,9,10
 174 184 174 184 205.5 140.5 c 128,-1,11
 237 97 237 97 289 97 c 0,12,13
 325 97 325 97 345.5 120.5 c 128,-1,14
 366 144 366 144 381 181 c 1,15,-1
 500 175 l 1,16,17
 490 95 490 95 432.5 42.5 c 128,-1,18
 375 -10 375 -10 285 -10 c 0,19,20
 213 -10 213 -10 155.5 23.5 c 128,-1,21
 98 57 98 57 66 117.5 c 128,-1,22
 34 178 34 178 34 256 c 0,23,24
 34 335 34 335 66 396.5 c 128,-1,25
 98 458 98 458 155 492.5 c 128,-1,26
 212 527 212 527 285 527 c 0,27,0
 377 527 377 527 432.5 473 c 128,-1,1
283 669 m 1,28,-1
 210 594 l 1,29,-1
 99 594 l 1,30,-1
 232 730 l 1,31,-1
 336 730 l 1,32,-1
 465 594 l 1,33,-1
 348 594 l 1,34,-1
 283 669 l 1,28,-1
EndSplineSet
EndChar

StartChar: Cdotaccent
Encoding: 266 266 203
Width: 711
GlyphClass: 2
Flags: W
AnchorPoint: "Anchor-5" 0 0 basechar 0
AnchorPoint: "Anchor-4" 373 0 basechar 0
AnchorPoint: "Anchor-3" 373 723 basechar 0
AnchorPoint: "Anchor-2" 0 0 basechar 0
LayerCount: 2
Fore
SplineSet
517 701.5 m 128,-1,1
 582 670 582 670 622 614 c 128,-1,2
 662 558 662 558 669 487 c 1,3,-1
 511 485 l 1,4,5
 500 543 500 543 463.5 576 c 128,-1,6
 427 609 427 609 366 609 c 0,7,8
 208 609 208 609 208 365 c 0,9,10
 208 238 208 238 250 176 c 128,-1,11
 292 114 292 114 369 114 c 0,12,13
 424 114 424 114 461.5 150.5 c 128,-1,14
 499 187 499 187 510 246 c 1,15,-1
 668 243 l 1,16,17
 653 129 653 129 583 59.5 c 128,-1,18
 513 -10 513 -10 373 -10 c 0,19,20
 273 -10 273 -10 198.5 37.5 c 128,-1,21
 124 85 124 85 83.5 170.5 c 128,-1,22
 43 256 43 256 43 368 c 0,23,24
 43 479 43 479 82.5 561.5 c 128,-1,25
 122 644 122 644 196 688.5 c 128,-1,26
 270 733 270 733 371 733 c 0,27,0
 452 733 452 733 517 701.5 c 128,-1,1
451 785 m 1,28,-1
 297 785 l 1,29,-1
 297 929 l 1,30,-1
 451 929 l 1,31,-1
 451 785 l 1,28,-1
EndSplineSet
EndChar

StartChar: cdotaccent
Encoding: 267 267 204
Width: 536
GlyphClass: 2
Flags: W
AnchorPoint: "Anchor-5" 0 0 basechar 0
AnchorPoint: "Anchor-4" 284 0 basechar 0
AnchorPoint: "Anchor-3" 284 517 basechar 0
AnchorPoint: "Anchor-2" 0 0 basechar 0
LayerCount: 2
Fore
SplineSet
432.5 473 m 128,-1,1
 488 419 488 419 500 337 c 1,2,-1
 377 331 l 1,3,4
 359 371 359 371 340.5 392 c 128,-1,5
 322 413 322 413 287 413 c 0,6,7
 235 413 235 413 204.5 372 c 128,-1,8
 174 331 174 331 174 258 c 0,9,10
 174 184 174 184 205.5 140.5 c 128,-1,11
 237 97 237 97 289 97 c 0,12,13
 325 97 325 97 345.5 120.5 c 128,-1,14
 366 144 366 144 381 181 c 1,15,-1
 500 175 l 1,16,17
 490 95 490 95 432.5 42.5 c 128,-1,18
 375 -10 375 -10 285 -10 c 0,19,20
 213 -10 213 -10 155.5 23.5 c 128,-1,21
 98 57 98 57 66 117.5 c 128,-1,22
 34 178 34 178 34 256 c 0,23,24
 34 335 34 335 66 396.5 c 128,-1,25
 98 458 98 458 155 492.5 c 128,-1,26
 212 527 212 527 285 527 c 0,27,0
 377 527 377 527 432.5 473 c 128,-1,1
362 579 m 1,28,-1
 208 579 l 1,29,-1
 208 723 l 1,30,-1
 362 723 l 1,31,-1
 362 579 l 1,28,-1
EndSplineSet
EndChar

StartChar: Ccaron
Encoding: 268 268 205
Width: 711
GlyphClass: 2
Flags: W
AnchorPoint: "Anchor-5" 0 0 basechar 0
AnchorPoint: "Anchor-4" 373 0 basechar 0
AnchorPoint: "Anchor-3" 373 723 basechar 0
AnchorPoint: "Anchor-2" 0 0 basechar 0
LayerCount: 2
Fore
SplineSet
517 701.5 m 128,-1,1
 582 670 582 670 622 614 c 128,-1,2
 662 558 662 558 669 487 c 1,3,-1
 511 485 l 1,4,5
 500 543 500 543 463.5 576 c 128,-1,6
 427 609 427 609 366 609 c 0,7,8
 208 609 208 609 208 365 c 0,9,10
 208 238 208 238 250 176 c 128,-1,11
 292 114 292 114 369 114 c 0,12,13
 424 114 424 114 461.5 150.5 c 128,-1,14
 499 187 499 187 510 246 c 1,15,-1
 668 243 l 1,16,17
 653 129 653 129 583 59.5 c 128,-1,18
 513 -10 513 -10 373 -10 c 0,19,20
 273 -10 273 -10 198.5 37.5 c 128,-1,21
 124 85 124 85 83.5 170.5 c 128,-1,22
 43 256 43 256 43 368 c 0,23,24
 43 479 43 479 82.5 561.5 c 128,-1,25
 122 644 122 644 196 688.5 c 128,-1,26
 270 733 270 733 371 733 c 0,27,0
 452 733 452 733 517 701.5 c 128,-1,1
554 930 m 1,28,-1
 425 792 l 1,29,-1
 320 792 l 1,30,-1
 188 930 l 1,31,-1
 299 930 l 1,32,-1
 372 854 l 1,33,-1
 437 930 l 1,34,-1
 554 930 l 1,28,-1
EndSplineSet
EndChar

StartChar: ccaron
Encoding: 269 269 206
Width: 536
GlyphClass: 2
Flags: W
AnchorPoint: "Anchor-5" 0 0 basechar 0
AnchorPoint: "Anchor-4" 284 0 basechar 0
AnchorPoint: "Anchor-3" 284 517 basechar 0
AnchorPoint: "Anchor-2" 0 0 basechar 0
LayerCount: 2
Fore
SplineSet
432.5 473 m 128,-1,1
 488 419 488 419 500 337 c 1,2,-1
 377 331 l 1,3,4
 359 371 359 371 340.5 392 c 128,-1,5
 322 413 322 413 287 413 c 0,6,7
 235 413 235 413 204.5 372 c 128,-1,8
 174 331 174 331 174 258 c 0,9,10
 174 184 174 184 205.5 140.5 c 128,-1,11
 237 97 237 97 289 97 c 0,12,13
 325 97 325 97 345.5 120.5 c 128,-1,14
 366 144 366 144 381 181 c 1,15,-1
 500 175 l 1,16,17
 490 95 490 95 432.5 42.5 c 128,-1,18
 375 -10 375 -10 285 -10 c 0,19,20
 213 -10 213 -10 155.5 23.5 c 128,-1,21
 98 57 98 57 66 117.5 c 128,-1,22
 34 178 34 178 34 256 c 0,23,24
 34 335 34 335 66 396.5 c 128,-1,25
 98 458 98 458 155 492.5 c 128,-1,26
 212 527 212 527 285 527 c 0,27,0
 377 527 377 527 432.5 473 c 128,-1,1
465 724 m 1,28,-1
 336 586 l 1,29,-1
 231 586 l 1,30,-1
 99 724 l 1,31,-1
 210 724 l 1,32,-1
 283 648 l 1,33,-1
 348 724 l 1,34,-1
 465 724 l 1,28,-1
EndSplineSet
EndChar

StartChar: Dcaron
Encoding: 270 270 207
Width: 715
GlyphClass: 2
Flags: W
AnchorPoint: "Anchor-5" 0 0 basechar 0
AnchorPoint: "Anchor-4" 0 0 basechar 0
AnchorPoint: "Anchor-3" 356 723 basechar 0
AnchorPoint: "Anchor-2" 0 0 basechar 0
LayerCount: 2
Fore
SplineSet
298 722 m 0,0,1
 490 717 490 717 581.5 624.5 c 128,-1,2
 673 532 673 532 673 365 c 0,3,4
 673 192 673 192 578 96 c 128,-1,5
 483 0 483 0 293 0 c 2,6,-1
 77 0 l 1,7,-1
 77 723 l 1,8,9
 236 723 236 723 298 722 c 0,0,1
229 122 m 1,10,-1
 297 122 l 2,11,12
 394 122 394 122 454.5 181 c 128,-1,13
 515 240 515 240 515 366 c 0,14,15
 515 487 515 487 458.5 544.5 c 128,-1,16
 402 602 402 602 298 602 c 2,17,-1
 229 602 l 1,18,-1
 229 122 l 1,10,-1
537 930 m 1,19,-1
 408 792 l 1,20,-1
 303 792 l 1,21,-1
 171 930 l 1,22,-1
 282 930 l 1,23,-1
 355 854 l 1,24,-1
 420 930 l 1,25,-1
 537 930 l 1,19,-1
EndSplineSet
EndChar

StartChar: dcaron
Encoding: 271 271 208
Width: 605
GlyphClass: 2
Flags: W
AnchorPoint: "Anchor-5" 583 575 basechar 0
AnchorPoint: "Anchor-4" 293 0 basechar 0
AnchorPoint: "Anchor-3" 0 0 basechar 0
AnchorPoint: "Anchor-2" 0 0 basechar 0
LayerCount: 2
Fore
SplineSet
92 61 m 128,-1,1
 34 132 34 132 34 258 c 0,2,3
 34 382 34 382 89 454.5 c 128,-1,4
 144 527 144 527 241 527 c 0,5,6
 285 527 285 527 323.5 510.5 c 128,-1,7
 362 494 362 494 388 459 c 1,8,-1
 388 743 l 1,9,-1
 539 743 l 1,10,-1
 539 0 l 1,11,-1
 430 0 l 1,12,-1
 419 71 l 1,13,14
 398 39 398 39 355.5 14.5 c 128,-1,15
 313 -10 313 -10 253 -10 c 0,16,0
 150 -10 150 -10 92 61 c 128,-1,1
359.5 131.5 m 128,-1,18
 388 165 388 165 388 218 c 2,19,-1
 388 321 l 1,20,21
 369 418 369 418 289 418 c 0,22,23
 240 418 240 418 210.5 380.5 c 128,-1,24
 181 343 181 343 181 261 c 0,25,26
 181 177 181 177 210.5 137.5 c 128,-1,27
 240 98 240 98 288 98 c 0,28,17
 331 98 331 98 359.5 131.5 c 128,-1,18
493.5 359 m 128,-1,30
 491 363 491 363 493 367 c 2,31,-1
 523 440 l 1,32,-1
 525 450 l 2,33,34
 525 457 525 457 517 458 c 2,35,-1
 507 460 l 2,36,37
 499 461 499 461 495.5 463.5 c 128,-1,38
 492 466 492 466 492 473 c 2,39,-1
 492 563 l 2,40,41
 492 575 492 575 503 575 c 2,42,-1
 583 575 l 2,43,44
 594 575 594 575 594 565 c 2,45,-1
 594 460 l 2,46,47
 594 457 594 457 593 455 c 128,-1,48
 592 453 592 453 592 452 c 2,49,-1
 556 367 l 2,50,51
 554 360 554 360 548.5 357.5 c 128,-1,52
 543 355 543 355 531 355 c 2,53,-1
 501 355 l 2,54,29
 496 355 496 355 493.5 359 c 128,-1,30
EndSplineSet
EndChar

StartChar: Dcroat
Encoding: 272 272 209
Width: 739
GlyphClass: 2
Flags: W
AnchorPoint: "Anchor-5" 0 0 basechar 0
AnchorPoint: "Anchor-4" 0 0 basechar 0
AnchorPoint: "Anchor-3" 380 723 basechar 0
AnchorPoint: "Anchor-2" 0 0 basechar 0
LayerCount: 2
Fore
SplineSet
605.5 624.5 m 128,-1,1
 697 532 697 532 697 365 c 0,2,3
 697 192 697 192 602 96 c 128,-1,4
 507 0 507 0 317 0 c 2,5,-1
 101 0 l 1,6,-1
 101 302 l 1,7,-1
 53 302 l 2,8,9
 41 302 41 302 36 306.5 c 128,-1,10
 31 311 31 311 31 322 c 2,11,-1
 31 394 l 2,12,13
 31 412 31 412 47 412 c 2,14,-1
 101 412 l 1,15,-1
 101 723 l 1,16,17
 260 723 260 723 322 722 c 0,18,0
 514 717 514 717 605.5 624.5 c 128,-1,1
478.5 181 m 128,-1,20
 539 240 539 240 539 366 c 0,21,22
 539 487 539 487 482.5 544.5 c 128,-1,23
 426 602 426 602 322 602 c 2,24,-1
 253 602 l 1,25,-1
 253 412 l 1,26,-1
 387 412 l 2,27,28
 401 412 401 412 401 396 c 2,29,-1
 401 325 l 2,30,31
 401 312 401 312 395 307 c 128,-1,32
 389 302 389 302 375 302 c 2,33,-1
 253 302 l 1,34,-1
 253 122 l 1,35,-1
 321 122 l 2,36,19
 418 122 418 122 478.5 181 c 128,-1,20
EndSplineSet
EndChar

StartChar: dcroat
Encoding: 273 273 210
Width: 611
GlyphClass: 2
Flags: W
AnchorPoint: "Anchor-5" 583 575 basechar 0
AnchorPoint: "Anchor-4" 293 0 basechar 0
AnchorPoint: "Anchor-3" 0 0 basechar 0
AnchorPoint: "Anchor-2" 0 0 basechar 0
LayerCount: 2
Fore
SplineSet
583 579 m 1,0,-1
 539 579 l 1,1,-1
 539 0 l 1,2,-1
 430 0 l 1,3,-1
 419 71 l 1,4,5
 398 39 398 39 355.5 14.5 c 128,-1,6
 313 -10 313 -10 253 -10 c 0,7,8
 150 -10 150 -10 92 61 c 128,-1,9
 34 132 34 132 34 258 c 0,10,11
 34 382 34 382 89 454.5 c 128,-1,12
 144 527 144 527 241 527 c 0,13,14
 285 527 285 527 323.5 510.5 c 128,-1,15
 362 494 362 494 388 459 c 1,16,-1
 388 579 l 1,17,-1
 244 579 l 1,18,-1
 244 663 l 1,19,-1
 388 663 l 1,20,-1
 388 743 l 1,21,-1
 539 743 l 1,22,-1
 539 663 l 1,23,-1
 583 663 l 1,24,-1
 583 579 l 1,0,-1
388 321 m 1,25,26
 369 418 369 418 289 418 c 0,27,28
 240 418 240 418 210.5 380.5 c 128,-1,29
 181 343 181 343 181 261 c 0,30,31
 181 177 181 177 210.5 137.5 c 128,-1,32
 240 98 240 98 288 98 c 0,33,34
 331 98 331 98 359.5 131.5 c 128,-1,35
 388 165 388 165 388 218 c 2,36,-1
 388 321 l 1,25,26
EndSplineSet
EndChar

StartChar: Emacron
Encoding: 274 274 211
Width: 638
GlyphClass: 2
Flags: W
AnchorPoint: "Anchor-5" 0 0 basechar 0
AnchorPoint: "Anchor-4" 337 0 basechar 0
AnchorPoint: "Anchor-3" 331 723 basechar 0
AnchorPoint: "Anchor-2" 579 10 basechar 0
LayerCount: 2
Fore
SplineSet
77 723 m 1,0,-1
 578 723 l 1,1,-1
 577 596 l 1,2,-1
 229 596 l 1,3,-1
 229 426 l 1,4,-1
 530 426 l 1,5,-1
 530 302 l 1,6,-1
 228 302 l 1,7,-1
 228 128 l 1,8,-1
 582 128 l 1,9,-1
 582 0 l 1,10,-1
 77 0 l 1,11,-1
 77 723 l 1,0,-1
509 828 m 1,12,-1
 153 828 l 1,13,-1
 153 924 l 1,14,-1
 509 924 l 1,15,-1
 509 828 l 1,12,-1
EndSplineSet
EndChar

StartChar: emacron
Encoding: 275 275 212
Width: 562
GlyphClass: 2
Flags: W
AnchorPoint: "Anchor-5" 0 0 basechar 0
AnchorPoint: "Anchor-4" 286 0 basechar 0
AnchorPoint: "Anchor-3" 286 517 basechar 0
AnchorPoint: "Anchor-2" 404 23 basechar 0
LayerCount: 2
Fore
SplineSet
212 132.5 m 128,-1,1
 241 99 241 99 291 99 c 0,2,3
 367 99 367 99 392 161 c 1,4,-1
 526 156 l 1,5,6
 516 106 516 106 482 68.5 c 128,-1,7
 448 31 448 31 398.5 10.5 c 128,-1,8
 349 -10 349 -10 294 -10 c 0,9,10
 217 -10 217 -10 158 22.5 c 128,-1,11
 99 55 99 55 66.5 114.5 c 128,-1,12
 34 174 34 174 34 253 c 0,13,14
 34 331 34 331 64 393 c 128,-1,15
 94 455 94 455 151.5 491 c 128,-1,16
 209 527 209 527 286 527 c 0,17,18
 402 527 402 527 464.5 455 c 128,-1,19
 527 383 527 383 527 264 c 2,20,-1
 527 224 l 1,21,-1
 183 224 l 1,22,0
 183 166 183 166 212 132.5 c 128,-1,1
387 313 m 1,23,24
 387 360 387 360 360.5 391 c 128,-1,25
 334 422 334 422 285 422 c 0,26,27
 239 422 239 422 211 389.5 c 128,-1,28
 183 357 183 357 183 313 c 1,29,-1
 387 313 l 1,23,24
464 622 m 1,30,-1
 108 622 l 1,31,-1
 108 718 l 1,32,-1
 464 718 l 1,33,-1
 464 622 l 1,30,-1
EndSplineSet
EndChar

StartChar: Ebreve
Encoding: 276 276 213
Width: 638
GlyphClass: 2
Flags: W
AnchorPoint: "Anchor-5" 0 0 basechar 0
AnchorPoint: "Anchor-4" 337 0 basechar 0
AnchorPoint: "Anchor-3" 331 723 basechar 0
AnchorPoint: "Anchor-2" 579 10 basechar 0
LayerCount: 2
Fore
SplineSet
77 723 m 1,0,-1
 578 723 l 1,1,-1
 577 596 l 1,2,-1
 229 596 l 1,3,-1
 229 426 l 1,4,-1
 530 426 l 1,5,-1
 530 302 l 1,6,-1
 228 302 l 1,7,-1
 228 128 l 1,8,-1
 582 128 l 1,9,-1
 582 0 l 1,10,-1
 77 0 l 1,11,-1
 77 723 l 1,0,-1
443.5 834.5 m 128,-1,13
 396 800 396 800 332 800 c 0,14,15
 267 800 267 800 219 833.5 c 128,-1,16
 171 867 171 867 154 929 c 1,17,-1
 243 929 l 1,18,19
 256 906 256 906 279.5 890 c 128,-1,20
 303 874 303 874 332 874 c 0,21,22
 358 874 358 874 382.5 890 c 128,-1,23
 407 906 407 906 419 929 c 1,24,-1
 509 929 l 1,25,12
 491 869 491 869 443.5 834.5 c 128,-1,13
EndSplineSet
EndChar

StartChar: ebreve
Encoding: 277 277 214
Width: 562
GlyphClass: 2
Flags: W
AnchorPoint: "Anchor-5" 0 0 basechar 0
AnchorPoint: "Anchor-4" 286 0 basechar 0
AnchorPoint: "Anchor-3" 286 517 basechar 0
AnchorPoint: "Anchor-2" 404 23 basechar 0
LayerCount: 2
Fore
SplineSet
212 132.5 m 128,-1,1
 241 99 241 99 291 99 c 0,2,3
 367 99 367 99 392 161 c 1,4,-1
 526 156 l 1,5,6
 516 106 516 106 482 68.5 c 128,-1,7
 448 31 448 31 398.5 10.5 c 128,-1,8
 349 -10 349 -10 294 -10 c 0,9,10
 217 -10 217 -10 158 22.5 c 128,-1,11
 99 55 99 55 66.5 114.5 c 128,-1,12
 34 174 34 174 34 253 c 0,13,14
 34 331 34 331 64 393 c 128,-1,15
 94 455 94 455 151.5 491 c 128,-1,16
 209 527 209 527 286 527 c 0,17,18
 402 527 402 527 464.5 455 c 128,-1,19
 527 383 527 383 527 264 c 2,20,-1
 527 224 l 1,21,-1
 183 224 l 1,22,0
 183 166 183 166 212 132.5 c 128,-1,1
387 313 m 1,23,24
 387 360 387 360 360.5 391 c 128,-1,25
 334 422 334 422 285 422 c 0,26,27
 239 422 239 422 211 389.5 c 128,-1,28
 183 357 183 357 183 313 c 1,29,-1
 387 313 l 1,23,24
398.5 628.5 m 128,-1,31
 351 594 351 594 287 594 c 0,32,33
 222 594 222 594 174 627.5 c 128,-1,34
 126 661 126 661 109 723 c 1,35,-1
 198 723 l 1,36,37
 211 700 211 700 234.5 684 c 128,-1,38
 258 668 258 668 287 668 c 0,39,40
 313 668 313 668 337.5 684 c 128,-1,41
 362 700 362 700 374 723 c 1,42,-1
 464 723 l 1,43,30
 446 663 446 663 398.5 628.5 c 128,-1,31
EndSplineSet
EndChar

StartChar: Edotaccent
Encoding: 278 278 215
Width: 638
GlyphClass: 2
Flags: W
AnchorPoint: "Anchor-5" 0 0 basechar 0
AnchorPoint: "Anchor-4" 337 0 basechar 0
AnchorPoint: "Anchor-3" 331 723 basechar 0
AnchorPoint: "Anchor-2" 579 10 basechar 0
LayerCount: 2
Fore
SplineSet
77 723 m 1,0,-1
 578 723 l 1,1,-1
 577 596 l 1,2,-1
 229 596 l 1,3,-1
 229 426 l 1,4,-1
 530 426 l 1,5,-1
 530 302 l 1,6,-1
 228 302 l 1,7,-1
 228 128 l 1,8,-1
 582 128 l 1,9,-1
 582 0 l 1,10,-1
 77 0 l 1,11,-1
 77 723 l 1,0,-1
409 785 m 1,12,-1
 255 785 l 1,13,-1
 255 929 l 1,14,-1
 409 929 l 1,15,-1
 409 785 l 1,12,-1
EndSplineSet
EndChar

StartChar: edotaccent
Encoding: 279 279 216
Width: 562
GlyphClass: 2
Flags: W
AnchorPoint: "Anchor-5" 0 0 basechar 0
AnchorPoint: "Anchor-4" 286 0 basechar 0
AnchorPoint: "Anchor-3" 286 517 basechar 0
AnchorPoint: "Anchor-2" 404 23 basechar 0
LayerCount: 2
Fore
SplineSet
212 132.5 m 128,-1,1
 241 99 241 99 291 99 c 0,2,3
 367 99 367 99 392 161 c 1,4,-1
 526 156 l 1,5,6
 516 106 516 106 482 68.5 c 128,-1,7
 448 31 448 31 398.5 10.5 c 128,-1,8
 349 -10 349 -10 294 -10 c 0,9,10
 217 -10 217 -10 158 22.5 c 128,-1,11
 99 55 99 55 66.5 114.5 c 128,-1,12
 34 174 34 174 34 253 c 0,13,14
 34 331 34 331 64 393 c 128,-1,15
 94 455 94 455 151.5 491 c 128,-1,16
 209 527 209 527 286 527 c 0,17,18
 402 527 402 527 464.5 455 c 128,-1,19
 527 383 527 383 527 264 c 2,20,-1
 527 224 l 1,21,-1
 183 224 l 1,22,0
 183 166 183 166 212 132.5 c 128,-1,1
387 313 m 1,23,24
 387 360 387 360 360.5 391 c 128,-1,25
 334 422 334 422 285 422 c 0,26,27
 239 422 239 422 211 389.5 c 128,-1,28
 183 357 183 357 183 313 c 1,29,-1
 387 313 l 1,23,24
364 579 m 1,30,-1
 210 579 l 1,31,-1
 210 723 l 1,32,-1
 364 723 l 1,33,-1
 364 579 l 1,30,-1
EndSplineSet
EndChar

StartChar: Eogonek
Encoding: 280 280 217
Width: 638
GlyphClass: 2
Flags: W
AnchorPoint: "Anchor-5" 0 0 basechar 0
AnchorPoint: "Anchor-4" 337 0 basechar 0
AnchorPoint: "Anchor-3" 331 723 basechar 0
AnchorPoint: "Anchor-2" 579 10 basechar 0
LayerCount: 2
Fore
SplineSet
77 723 m 1,0,-1
 578 723 l 1,1,-1
 577 596 l 1,2,-1
 229 596 l 1,3,-1
 229 426 l 1,4,-1
 530 426 l 1,5,-1
 530 302 l 1,6,-1
 228 302 l 1,7,-1
 228 128 l 1,8,-1
 582 128 l 1,9,-1
 582 0 l 1,10,-1
 77 0 l 1,11,-1
 77 723 l 1,0,-1
416.5 -34.5 m 128,-1,13
 437 -12 437 -12 492 6 c 1,14,-1
 597 4 l 1,15,16
 545 -15 545 -15 524.5 -31.5 c 128,-1,17
 504 -48 504 -48 504 -68 c 0,18,19
 504 -100 504 -100 540 -100 c 0,20,21
 565 -100 565 -100 597 -85 c 0,22,23
 603 -82 603 -82 606 -82 c 0,24,25
 612 -82 612 -82 612 -94 c 2,26,-1
 612 -136 l 2,27,28
 612 -146 612 -146 603 -150 c 0,29,30
 590 -157 590 -157 563 -163 c 128,-1,31
 536 -169 536 -169 506 -169 c 0,32,33
 454 -169 454 -169 425 -148 c 128,-1,34
 396 -127 396 -127 396 -87 c 0,35,12
 396 -57 396 -57 416.5 -34.5 c 128,-1,13
EndSplineSet
EndChar

StartChar: eogonek
Encoding: 281 281 218
Width: 562
GlyphClass: 2
Flags: W
AnchorPoint: "Anchor-5" 0 0 basechar 0
AnchorPoint: "Anchor-4" 286 0 basechar 0
AnchorPoint: "Anchor-3" 286 517 basechar 0
AnchorPoint: "Anchor-2" 404 23 basechar 0
LayerCount: 2
Fore
SplineSet
212 132.5 m 128,-1,1
 241 99 241 99 291 99 c 0,2,3
 367 99 367 99 392 161 c 1,4,-1
 526 156 l 1,5,6
 516 106 516 106 482 68.5 c 128,-1,7
 448 31 448 31 398.5 10.5 c 128,-1,8
 349 -10 349 -10 294 -10 c 0,9,10
 217 -10 217 -10 158 22.5 c 128,-1,11
 99 55 99 55 66.5 114.5 c 128,-1,12
 34 174 34 174 34 253 c 0,13,14
 34 331 34 331 64 393 c 128,-1,15
 94 455 94 455 151.5 491 c 128,-1,16
 209 527 209 527 286 527 c 0,17,18
 402 527 402 527 464.5 455 c 128,-1,19
 527 383 527 383 527 264 c 2,20,-1
 527 224 l 1,21,-1
 183 224 l 1,22,0
 183 166 183 166 212 132.5 c 128,-1,1
387 313 m 1,23,24
 387 360 387 360 360.5 391 c 128,-1,25
 334 422 334 422 285 422 c 0,26,27
 239 422 239 422 211 389.5 c 128,-1,28
 183 357 183 357 183 313 c 1,29,-1
 387 313 l 1,23,24
241.5 -21.5 m 128,-1,31
 262 1 262 1 317 19 c 1,32,-1
 422 17 l 1,33,34
 370 -2 370 -2 349.5 -18.5 c 128,-1,35
 329 -35 329 -35 329 -55 c 0,36,37
 329 -87 329 -87 365 -87 c 0,38,39
 390 -87 390 -87 422 -72 c 0,40,41
 428 -69 428 -69 431 -69 c 0,42,43
 437 -69 437 -69 437 -81 c 2,44,-1
 437 -123 l 2,45,46
 437 -133 437 -133 428 -137 c 0,47,48
 415 -144 415 -144 388 -150 c 128,-1,49
 361 -156 361 -156 331 -156 c 0,50,51
 279 -156 279 -156 250 -135 c 128,-1,52
 221 -114 221 -114 221 -74 c 0,53,30
 221 -44 221 -44 241.5 -21.5 c 128,-1,31
EndSplineSet
EndChar

StartChar: Ecaron
Encoding: 282 282 219
Width: 638
GlyphClass: 2
Flags: W
AnchorPoint: "Anchor-5" 0 0 basechar 0
AnchorPoint: "Anchor-4" 337 0 basechar 0
AnchorPoint: "Anchor-3" 331 723 basechar 0
AnchorPoint: "Anchor-2" 579 10 basechar 0
LayerCount: 2
Fore
SplineSet
77 723 m 1,0,-1
 578 723 l 1,1,-1
 577 596 l 1,2,-1
 229 596 l 1,3,-1
 229 426 l 1,4,-1
 530 426 l 1,5,-1
 530 302 l 1,6,-1
 228 302 l 1,7,-1
 228 128 l 1,8,-1
 582 128 l 1,9,-1
 582 0 l 1,10,-1
 77 0 l 1,11,-1
 77 723 l 1,0,-1
512 930 m 1,12,-1
 383 792 l 1,13,-1
 278 792 l 1,14,-1
 146 930 l 1,15,-1
 257 930 l 1,16,-1
 330 854 l 1,17,-1
 395 930 l 1,18,-1
 512 930 l 1,12,-1
EndSplineSet
EndChar

StartChar: ecaron
Encoding: 283 283 220
Width: 562
GlyphClass: 2
Flags: W
AnchorPoint: "Anchor-5" 0 0 basechar 0
AnchorPoint: "Anchor-4" 286 0 basechar 0
AnchorPoint: "Anchor-3" 286 517 basechar 0
AnchorPoint: "Anchor-2" 404 23 basechar 0
LayerCount: 2
Fore
SplineSet
212 132.5 m 128,-1,1
 241 99 241 99 291 99 c 0,2,3
 367 99 367 99 392 161 c 1,4,-1
 526 156 l 1,5,6
 516 106 516 106 482 68.5 c 128,-1,7
 448 31 448 31 398.5 10.5 c 128,-1,8
 349 -10 349 -10 294 -10 c 0,9,10
 217 -10 217 -10 158 22.5 c 128,-1,11
 99 55 99 55 66.5 114.5 c 128,-1,12
 34 174 34 174 34 253 c 0,13,14
 34 331 34 331 64 393 c 128,-1,15
 94 455 94 455 151.5 491 c 128,-1,16
 209 527 209 527 286 527 c 0,17,18
 402 527 402 527 464.5 455 c 128,-1,19
 527 383 527 383 527 264 c 2,20,-1
 527 224 l 1,21,-1
 183 224 l 1,22,0
 183 166 183 166 212 132.5 c 128,-1,1
387 313 m 1,23,24
 387 360 387 360 360.5 391 c 128,-1,25
 334 422 334 422 285 422 c 0,26,27
 239 422 239 422 211 389.5 c 128,-1,28
 183 357 183 357 183 313 c 1,29,-1
 387 313 l 1,23,24
467 724 m 1,30,-1
 338 586 l 1,31,-1
 233 586 l 1,32,-1
 101 724 l 1,33,-1
 212 724 l 1,34,-1
 285 648 l 1,35,-1
 350 724 l 1,36,-1
 467 724 l 1,30,-1
EndSplineSet
EndChar

StartChar: Gcircumflex
Encoding: 284 284 221
Width: 753
GlyphClass: 2
Flags: W
AnchorPoint: "Anchor-5" 0 0 basechar 0
AnchorPoint: "Anchor-4" 373 0 basechar 0
AnchorPoint: "Anchor-3" 371 723 basechar 0
AnchorPoint: "Anchor-2" 0 0 basechar 0
LayerCount: 2
Fore
SplineSet
198 36 m 128,-1,1
 124 82 124 82 83.5 165.5 c 128,-1,2
 43 249 43 249 43 359 c 0,3,4
 43 472 43 472 85 556.5 c 128,-1,5
 127 641 127 641 203 687 c 128,-1,6
 279 733 279 733 378 733 c 0,7,8
 462 733 462 733 529 699 c 128,-1,9
 596 665 596 665 634.5 608.5 c 128,-1,10
 673 552 673 552 675 488 c 1,11,-1
 517 485 l 1,12,13
 506 538 506 538 468.5 572 c 128,-1,14
 431 606 431 606 375 606 c 0,15,16
 299 606 299 606 253 546.5 c 128,-1,17
 207 487 207 487 207 365 c 0,18,19
 207 235 207 235 255.5 178.5 c 128,-1,20
 304 122 304 122 381 122 c 0,21,22
 420 122 420 122 450 139 c 128,-1,23
 480 156 480 156 497.5 181.5 c 128,-1,24
 515 207 515 207 519 233 c 2,25,-1
 526 276 l 1,26,-1
 378 276 l 1,27,-1
 378 380 l 1,28,-1
 684 378 l 1,29,-1
 684 0 l 1,30,-1
 581 0 l 1,31,-1
 581 93 l 1,32,33
 546 47 546 47 497.5 18.5 c 128,-1,34
 449 -10 449 -10 370 -10 c 0,35,0
 272 -10 272 -10 198 36 c 128,-1,1
370 875 m 1,36,-1
 297 800 l 1,37,-1
 186 800 l 1,38,-1
 319 936 l 1,39,-1
 423 936 l 1,40,-1
 552 800 l 1,41,-1
 435 800 l 1,42,-1
 370 875 l 1,36,-1
EndSplineSet
EndChar

StartChar: gcircumflex
Encoding: 285 285 222
Width: 632
GlyphClass: 2
Flags: W
AnchorPoint: "Anchor-5" 0 0 basechar 0
AnchorPoint: "Anchor-4" 0 0 basechar 0
AnchorPoint: "Anchor-3" 310 517 basechar 0
AnchorPoint: "Anchor-2" 0 0 basechar 0
LayerCount: 2
Fore
SplineSet
98 -136.5 m 128,-1,1
 25 -102 25 -102 25 -45 c 0,2,3
 25 -6 25 -6 53.5 15 c 128,-1,4
 82 36 82 36 102 43 c 128,-1,5
 122 50 122 50 125 51 c 1,6,7
 121 53 121 53 103.5 62.5 c 128,-1,8
 86 72 86 72 73.5 89 c 128,-1,9
 61 106 61 106 61 129 c 0,10,11
 61 158 61 158 88.5 181 c 128,-1,12
 116 204 116 204 168 213 c 1,13,14
 116 238 116 238 89.5 277.5 c 128,-1,15
 63 317 63 317 63 363 c 0,16,17
 63 439 63 439 133 482 c 128,-1,18
 203 525 203 525 310 525 c 0,19,20
 359 525 359 525 393.5 515 c 128,-1,21
 428 505 428 505 460 485 c 1,22,23
 519 507 519 507 614 546 c 1,24,-1
 613 431 l 1,25,-1
 524 417 l 1,26,27
 528 404 528 404 531.5 388 c 128,-1,28
 535 372 535 372 535 364 c 0,29,30
 535 319 535 319 508 279.5 c 128,-1,31
 481 240 481 240 427.5 216 c 128,-1,32
 374 192 374 192 299 192 c 2,33,-1
 247 194 l 1,34,35
 199 191 199 191 199 174 c 0,36,37
 199 163 199 163 219 159 c 128,-1,38
 239 155 239 155 289 152 c 0,39,40
 332 149 332 149 349 148 c 2,41,-1
 396 145 l 2,42,43
 491 139 491 139 538.5 99 c 128,-1,44
 586 59 586 59 586 -3 c 0,45,46
 586 -79 586 -79 513.5 -125 c 128,-1,47
 441 -171 441 -171 308 -171 c 0,48,0
 171 -171 171 -171 98 -136.5 c 128,-1,1
369.5 298 m 128,-1,50
 393 320 393 320 393 358 c 0,51,52
 393 397 393 397 369 421.5 c 128,-1,53
 345 446 345 446 304 446 c 128,-1,54
 263 446 263 446 238.5 421.5 c 128,-1,55
 214 397 214 397 214 358 c 0,56,57
 214 320 214 320 238 298 c 128,-1,58
 262 276 262 276 304 276 c 128,-1,49
 346 276 346 276 369.5 298 c 128,-1,50
417 -73.5 m 128,-1,60
 442 -60 442 -60 442 -32 c 0,61,62
 442 16 442 16 365 22 c 2,63,-1
 249 29 l 2,64,65
 215 31 215 31 193.5 14 c 128,-1,66
 172 -3 172 -3 172 -27 c 0,67,68
 172 -59 172 -59 211 -73 c 128,-1,69
 250 -87 250 -87 332 -87 c 0,70,59
 392 -87 392 -87 417 -73.5 c 128,-1,60
309 669 m 1,71,-1
 236 594 l 1,72,-1
 125 594 l 1,73,-1
 258 730 l 1,74,-1
 362 730 l 1,75,-1
 491 594 l 1,76,-1
 374 594 l 1,77,-1
 309 669 l 1,71,-1
EndSplineSet
EndChar

StartChar: Gbreve
Encoding: 286 286 223
Width: 753
GlyphClass: 2
Flags: W
AnchorPoint: "Anchor-5" 0 0 basechar 0
AnchorPoint: "Anchor-4" 373 0 basechar 0
AnchorPoint: "Anchor-3" 371 723 basechar 0
AnchorPoint: "Anchor-2" 0 0 basechar 0
LayerCount: 2
Fore
SplineSet
198 36 m 128,-1,1
 124 82 124 82 83.5 165.5 c 128,-1,2
 43 249 43 249 43 359 c 0,3,4
 43 472 43 472 85 556.5 c 128,-1,5
 127 641 127 641 203 687 c 128,-1,6
 279 733 279 733 378 733 c 0,7,8
 462 733 462 733 529 699 c 128,-1,9
 596 665 596 665 634.5 608.5 c 128,-1,10
 673 552 673 552 675 488 c 1,11,-1
 517 485 l 1,12,13
 506 538 506 538 468.5 572 c 128,-1,14
 431 606 431 606 375 606 c 0,15,16
 299 606 299 606 253 546.5 c 128,-1,17
 207 487 207 487 207 365 c 0,18,19
 207 235 207 235 255.5 178.5 c 128,-1,20
 304 122 304 122 381 122 c 0,21,22
 420 122 420 122 450 139 c 128,-1,23
 480 156 480 156 497.5 181.5 c 128,-1,24
 515 207 515 207 519 233 c 2,25,-1
 526 276 l 1,26,-1
 378 276 l 1,27,-1
 378 380 l 1,28,-1
 684 378 l 1,29,-1
 684 0 l 1,30,-1
 581 0 l 1,31,-1
 581 93 l 1,32,33
 546 47 546 47 497.5 18.5 c 128,-1,34
 449 -10 449 -10 370 -10 c 0,35,0
 272 -10 272 -10 198 36 c 128,-1,1
483.5 834.5 m 128,-1,37
 436 800 436 800 372 800 c 0,38,39
 307 800 307 800 259 833.5 c 128,-1,40
 211 867 211 867 194 929 c 1,41,-1
 283 929 l 1,42,43
 296 906 296 906 319.5 890 c 128,-1,44
 343 874 343 874 372 874 c 0,45,46
 398 874 398 874 422.5 890 c 128,-1,47
 447 906 447 906 459 929 c 1,48,-1
 549 929 l 1,49,36
 531 869 531 869 483.5 834.5 c 128,-1,37
EndSplineSet
EndChar

